<svg width="350" height="350" viewBox="0 0 350 350" fill="none" xmlns="http://www.w3.org/2000/svg">
<path d="M311.719 136.719C302.657 136.719 295.312 144.063 295.312 153.125V211.952L278.168 229.097C278.649 227.56 278.906 225.92 278.906 224.219C278.906 215.157 271.562 207.812 262.5 207.812C257.939 207.812 253.816 209.672 250.846 212.674L233.833 229.688H229.688C205.527 229.688 185.938 249.277 185.938 273.438V328.125H251.562V302.11L323.318 230.349C326.397 227.276 328.125 223.098 328.125 218.75V153.125C328.125 144.063 320.78 136.719 311.719 136.719Z" fill="#F0C8A0"/>
<path d="M284.32 222.945L278.168 229.097C277.359 231.689 275.926 234.008 274.045 235.873L244.021 265.896L246.755 268.631L279.513 235.873C282.516 232.903 284.375 228.78 284.375 224.219C284.375 223.792 284.353 223.366 284.32 222.945Z" fill="#D2AA82"/>
<path d="M38.2812 136.719C47.343 136.719 54.6875 144.063 54.6875 153.125V211.952L71.832 229.097C71.3508 227.56 71.0938 225.92 71.0938 224.219C71.0938 215.157 78.4383 207.812 87.5 207.812C92.0609 207.812 96.1844 209.672 99.1539 212.674L116.167 229.688H120.312C144.473 229.688 164.062 249.277 164.062 273.438V328.125H98.4375V302.11L26.682 230.349C23.6031 227.276 21.875 223.098 21.875 218.75V153.125C21.875 144.063 29.2195 136.719 38.2812 136.719Z" fill="#F0C8A0"/>
<path d="M65.6797 222.945L71.832 229.097C72.6414 231.689 74.0742 234.008 75.9555 235.873L105.979 265.896L103.245 268.631L70.4867 235.873C67.4844 232.903 65.625 228.78 65.625 224.219C65.625 223.792 65.6469 223.366 65.6797 222.945Z" fill="#D2AA82"/>
<path d="M213.281 164.062H185.938V136.719C185.938 133.7 183.487 131.25 180.469 131.25H169.531C166.513 131.25 164.062 133.7 164.062 136.719V164.062H136.719C133.7 164.062 131.25 166.513 131.25 169.531V180.469C131.25 183.487 133.7 185.938 136.719 185.938H164.062V213.281C164.062 216.3 166.513 218.75 169.531 218.75H180.469C183.487 218.75 185.938 216.3 185.938 213.281V185.938H213.281C216.3 185.938 218.75 183.487 218.75 180.469V169.531C218.75 166.513 216.3 164.062 213.281 164.062Z" fill="#07359B"/>
<path d="M289.844 76.5625H262.5V49.2188C262.5 46.2 260.05 43.75 257.031 43.75H246.094C243.075 43.75 240.625 46.2 240.625 49.2188V76.5625H213.281C210.263 76.5625 207.812 79.0125 207.812 82.0312V92.9688C207.812 95.9875 210.263 98.4375 213.281 98.4375H240.625V125.781C240.625 128.8 243.075 131.25 246.094 131.25H257.031C260.05 131.25 262.5 128.8 262.5 125.781V98.4375H289.844C292.863 98.4375 295.312 95.9875 295.312 92.9688V82.0312C295.312 79.0125 292.863 76.5625 289.844 76.5625Z" fill="#07359B"/>
<path d="M136.719 76.5625H109.375V49.2188C109.375 46.2 106.925 43.75 103.906 43.75H92.9688C89.95 43.75 87.5 46.2 87.5 49.2188V76.5625H60.1562C57.1375 76.5625 54.6875 79.0125 54.6875 82.0312V92.9688C54.6875 95.9875 57.1375 98.4375 60.1562 98.4375H87.5V125.781C87.5 128.8 89.95 131.25 92.9688 131.25H103.906C106.925 131.25 109.375 128.8 109.375 125.781V98.4375H136.719C139.738 98.4375 142.188 95.9875 142.188 92.9688V82.0312C142.188 79.0125 139.738 76.5625 136.719 76.5625Z" fill="#07359B"/>
</svg>
