<svg width="600" height="430" viewBox="0 0 600 430" fill="none" xmlns="http://www.w3.org/2000/svg">
<g clip-path="url(#clip1)">
<path d="M599.172 429.905H349.843C349.624 429.905 349.413 429.818 349.258 429.662C349.102 429.507 349.015 429.296 349.015 429.077C349.015 428.857 349.102 428.646 349.258 428.491C349.413 428.336 349.624 428.248 349.843 428.248H599.172C599.391 428.248 599.602 428.336 599.757 428.491C599.913 428.646 600 428.857 600 429.077C600 429.296 599.913 429.507 599.757 429.662C599.602 429.818 599.391 429.905 599.172 429.905Z" fill="#3F3D56"/>
<path d="M443.505 420.419H433.35L428.518 381.249L443.507 381.249L443.505 420.419Z" fill="#FFB8B8"/>
<path d="M426.096 417.517H445.681V429.848H413.765C413.765 428.229 414.084 426.626 414.703 425.129C415.323 423.633 416.231 422.274 417.376 421.129C418.521 419.984 419.881 419.075 421.377 418.456C422.873 417.836 424.477 417.517 426.096 417.517Z" fill="#2F2E41"/>
<path d="M517.19 408.916L507.952 413.135L487.283 379.513L500.915 373.287L517.19 408.916Z" fill="#FFB8B8"/>
<path d="M500.149 413.509L517.964 405.372L523.087 416.589L494.055 429.849C493.383 428.376 493.006 426.785 492.949 425.167C492.891 423.548 493.152 421.934 493.718 420.417C494.284 418.9 495.143 417.509 496.246 416.324C497.35 415.138 498.676 414.182 500.149 413.509Z" fill="#2F2E41"/>
<path d="M487.616 288.347C488.589 287.615 489.389 286.678 489.961 285.603C490.533 284.528 490.862 283.34 490.925 282.124C490.989 280.908 490.785 279.693 490.327 278.564C489.87 277.436 489.171 276.421 488.279 275.592L500.217 248.505L485.051 251.076L476.04 276.403C474.746 277.994 474.081 280.003 474.17 282.052C474.259 284.1 475.096 286.044 476.523 287.517C477.95 288.989 479.867 289.886 481.912 290.04C483.956 290.193 485.986 289.59 487.616 288.347Z" fill="#FFB8B8"/>
<path d="M442.858 410.091H433.156C432.215 410.088 431.31 409.73 430.621 409.089C429.932 408.448 429.51 407.572 429.439 406.633L419.178 265.354C419.139 264.813 419.218 264.269 419.411 263.762C419.603 263.254 419.904 262.795 420.293 262.416C420.681 262.037 421.148 261.747 421.66 261.567C422.172 261.387 422.718 261.321 423.258 261.374L484.335 267.333C485.244 267.422 486.089 267.841 486.709 268.512C487.33 269.183 487.682 270.059 487.7 270.972L488.875 333.292C488.882 333.63 488.947 333.965 489.069 334.28L512.085 393.964C512.262 394.425 512.347 394.917 512.333 395.411C512.319 395.905 512.206 396.391 512.003 396.842C511.799 397.292 511.508 397.697 511.146 398.034C510.784 398.37 510.359 398.632 509.895 398.802L500.064 402.425C499.21 402.739 498.271 402.73 497.423 402.4C496.575 402.07 495.877 401.441 495.461 400.632L467.188 345.656C467.034 345.357 466.921 345.039 466.853 344.71L462.023 321.439C461.883 320.764 461.507 320.161 460.963 319.739C460.419 319.316 459.742 319.101 459.053 319.132C458.365 319.163 457.71 319.438 457.206 319.909C456.702 320.379 456.383 321.013 456.304 321.698L446.561 406.787C446.457 407.697 446.022 408.536 445.339 409.145C444.656 409.754 443.773 410.091 442.858 410.091Z" fill="#2F2E41"/>
<path d="M447.688 154.887C458.924 154.887 468.033 145.779 468.033 134.543C468.033 123.307 458.924 114.198 447.688 114.198C436.452 114.198 427.344 123.307 427.344 134.543C427.344 145.779 436.452 154.887 447.688 154.887Z" fill="#FFB8B8"/>
<path d="M423.049 266.17C425.654 267.967 454.995 287.302 488.44 271.923C488.007 268.188 483.833 230.689 487.478 203.045C489.208 189.93 483.985 177.779 473.149 169.708C467.265 165.346 460.323 162.632 453.04 161.845C445.757 161.059 438.396 162.229 431.716 165.234H431.716C431.167 165.48 430.614 165.736 430.057 166.002L423.049 266.17Z" fill="#07359B"/>
<path d="M488.758 271.615C488.241 271.615 487.731 271.508 487.259 271.299C486.786 271.091 486.362 270.787 486.014 270.406L481.564 265.551C481.131 265.076 480.828 264.497 480.683 263.871C480.538 263.245 480.557 262.593 480.737 261.976L490.93 227.478L475.421 194.911C474.741 193.479 474.575 191.857 474.95 190.317C475.28 188.965 476.013 187.746 477.05 186.819C478.088 185.892 479.383 185.301 480.763 185.125C482.144 184.948 483.545 185.195 484.783 185.831C486.02 186.467 487.036 187.464 487.696 188.689L508.66 222.706C509.476 224.028 509.954 225.529 510.054 227.079C510.154 228.629 509.871 230.18 509.231 231.595L492.16 269.421C491.906 269.983 491.517 270.474 491.027 270.849C490.537 271.224 489.961 271.471 489.352 271.567C489.155 271.599 488.957 271.615 488.758 271.615Z" fill="#07359B"/>
<path opacity="0.2" d="M438.106 267.203H429.978L444.166 200.437L444.984 200.544L441.828 263.663C441.781 264.618 441.368 265.518 440.675 266.178C439.982 266.837 439.062 267.204 438.106 267.203Z" fill="black"/>
<path d="M430.585 283.803C431.385 282.884 431.973 281.802 432.31 280.632C432.646 279.461 432.721 278.231 432.531 277.029C432.34 275.826 431.888 274.68 431.206 273.67C430.525 272.661 429.63 271.814 428.586 271.188L434.64 242.213L420.338 247.876L416.782 274.523C415.847 276.347 415.613 278.451 416.125 280.436C416.638 282.422 417.86 284.15 419.562 285.294C421.263 286.438 423.325 286.918 425.357 286.643C427.388 286.368 429.249 285.358 430.585 283.803Z" fill="#FFB8B8"/>
<path d="M429.765 267.287C429.625 267.286 429.484 267.279 429.345 267.263L420.677 266.3C419.74 266.193 418.878 265.736 418.263 265.02C417.649 264.305 417.328 263.384 417.364 262.441L420.95 175.647C421.063 172.924 422.163 170.336 424.046 168.367C425.929 166.397 428.465 165.181 431.179 164.946C433.894 164.711 436.601 165.473 438.794 167.089C440.987 168.706 442.517 171.066 443.096 173.729L445.406 184.356L445.394 184.431L433.442 264.111C433.313 264.993 432.87 265.8 432.195 266.383C431.52 266.966 430.657 267.287 429.765 267.287Z" fill="#07359B"/>
<path d="M464.451 152.479C462.341 152.841 460.605 149.904 460.343 147.839C460.08 145.773 460.833 143.796 460.915 141.744C460.997 139.691 460.029 137.198 457.898 136.589C455.664 135.951 453.592 137.744 451.305 137.528C448.118 137.228 446.517 133.498 446.131 130.48C445.745 127.463 445.442 123.889 442.681 122.169C439.93 120.453 436.525 121.701 433.363 121.755C428.019 121.845 422.579 117.77 421.33 112.74C421.978 112.927 422.671 112.893 423.297 112.642C423.923 112.391 424.448 111.938 424.788 111.356C425.056 110.734 425.11 110.041 424.943 109.385C424.777 108.729 424.397 108.147 423.865 107.729L429.923 110.695C429.095 109.01 430.345 107.091 432.066 106.453C433.787 105.815 435.789 106.102 437.689 106.397C447.173 107.87 458.159 107.144 464.451 114.376C468.809 119.385 472.396 128.917 471.906 135.084C471.416 141.252 464.451 152.479 464.451 152.479Z" fill="#2F2E41"/>
<path d="M233.59 381.862H15.738C14.2008 381.86 12.7269 381.248 11.6399 380.161C10.5529 379.074 9.94142 377.601 9.9397 376.063L1.1236e-05 5.82058C-0.00148918 5.05768 0.147294 4.30197 0.437864 3.59658C0.728434 2.89119 1.1551 2.24993 1.6935 1.70944C2.2319 1.16894 2.87149 0.739792 3.57575 0.446486C4.28001 0.153179 5.03513 0.00146164 5.79803 0H223.65C225.187 0.00172325 226.661 0.613172 227.748 1.7002C228.835 2.78722 229.446 4.26105 229.448 5.79833L231.249 72.8711L229.593 72.9156L227.792 5.82058C227.793 5.27516 227.687 4.73477 227.48 4.23028C227.273 3.72579 226.968 3.26709 226.583 2.8804C226.199 2.4937 225.742 2.18659 225.238 1.97662C224.735 1.76665 224.195 1.65793 223.65 1.65667H5.79803C4.69998 1.65794 3.64728 2.09471 2.87084 2.87115C2.0944 3.64758 1.65764 4.70029 1.65636 5.79833L11.5961 376.041C11.5945 376.586 11.7003 377.127 11.9077 377.631C12.115 378.136 12.4197 378.595 12.8043 378.981C13.189 379.368 13.646 379.675 14.1494 379.885C14.6528 380.095 15.1926 380.204 15.738 380.205H233.59C234.688 380.204 235.74 379.767 236.517 378.991C237.293 378.214 237.73 377.161 237.731 376.063L235.797 304.021L237.453 303.976L239.388 376.041C239.389 376.804 239.241 377.56 238.95 378.265C238.659 378.97 238.233 379.612 237.694 380.152C237.156 380.693 236.516 381.122 235.812 381.415C235.108 381.708 234.353 381.86 233.59 381.862Z" fill="#CCCCCC"/>
<path d="M233.917 172.271L232.261 172.316L233.115 204.112L234.771 204.067L233.917 172.271Z" fill="#CCCCCC"/>
<path d="M214.041 349.233H33.5808C32.2697 349.232 31.0126 348.71 30.0855 347.783C29.1584 346.856 28.6369 345.599 28.6355 344.288L20.4019 37.5961C20.4002 36.9452 20.5269 36.3004 20.7745 35.6984C21.0222 35.0965 21.386 34.5492 21.8452 34.0879C22.3044 33.6266 22.85 33.2603 23.4508 33.0099C24.0516 32.7595 24.6959 32.6299 25.3468 32.6285H205.807C207.118 32.63 208.375 33.1515 209.302 34.0786C210.229 35.0057 210.751 36.2627 210.752 37.5739L212.243 72.8585L210.588 72.9281L209.096 37.6087C209.099 37.1743 209.016 36.7436 208.853 36.3412C208.689 35.9389 208.447 35.5729 208.141 35.2642C207.836 34.9554 207.472 34.71 207.072 34.542C206.671 34.374 206.241 34.2868 205.807 34.2852H25.3468C24.4749 34.2863 23.639 34.6331 23.0225 35.2496C22.406 35.8661 22.0592 36.702 22.0582 37.5739L30.2918 344.266C30.2901 344.699 30.3738 345.129 30.5382 345.53C30.7026 345.931 30.9445 346.295 31.2499 346.603C31.5554 346.91 31.9185 347.155 32.3184 347.322C32.7184 347.489 33.1473 347.575 33.5808 347.576H214.041C214.913 347.575 215.749 347.229 216.365 346.612C216.982 345.996 217.329 345.16 217.33 344.288L216.263 304.02L217.919 303.976L218.986 344.266C218.987 344.917 218.861 345.562 218.613 346.164C218.365 346.765 218.002 347.313 217.542 347.774C217.083 348.235 216.538 348.601 215.937 348.852C215.336 349.102 214.692 349.232 214.041 349.233Z" fill="#CCCCCC"/>
<path d="M214.455 173.1L212.798 173.144L213.632 204.62L215.288 204.576L214.455 173.1Z" fill="#CCCCCC"/>
<path d="M262.06 173.122H50.8346C49.3055 173.12 47.8389 172.515 46.7533 171.438C45.6677 170.362 45.0507 168.9 45.0364 167.371L41.7229 77.8633C41.7246 76.326 42.3361 74.8522 43.4231 73.7651C44.5101 72.6781 45.9839 72.0667 47.5212 72.0649H258.746C260.275 72.0666 261.742 72.6715 262.828 73.7482C263.913 74.825 264.53 76.2866 264.544 77.8155L267.858 167.323C267.856 168.861 267.245 170.334 266.158 171.421C265.071 172.508 263.597 173.12 262.06 173.122ZM43.3798 77.8196L46.6929 167.323C46.6942 168.421 47.1309 169.474 47.9074 170.25C48.6838 171.027 49.7365 171.464 50.8346 171.465H262.06C263.15 171.464 264.196 171.033 264.971 170.266C265.746 169.499 266.188 168.457 266.201 167.367L262.888 77.8633C262.887 76.7652 262.45 75.7125 261.673 74.9361C260.897 74.1596 259.844 73.7229 258.746 73.7216H47.5212C46.4307 73.7229 45.3846 74.1537 44.6095 74.9207C43.8343 75.6877 43.3925 76.7292 43.3798 77.8196Z" fill="#3F3D56"/>
<path d="M301.82 304.827H90.5946C89.0655 304.825 87.5989 304.22 86.5133 303.143C85.4277 302.067 84.8107 300.605 84.7964 299.076L81.4829 209.568C81.4846 208.031 82.0961 206.557 83.1831 205.47C84.2701 204.383 85.744 203.772 87.2812 203.77H298.506C300.035 203.772 301.502 204.377 302.588 205.453C303.673 206.53 304.29 207.992 304.304 209.521L307.618 299.028C307.616 300.566 307.005 302.039 305.918 303.126C304.831 304.214 303.357 304.825 301.82 304.827ZM83.1398 209.525L86.4529 299.028C86.4542 300.126 86.8909 301.179 87.6674 301.956C88.4438 302.732 89.4965 303.169 90.5946 303.17H301.82C302.91 303.169 303.956 302.738 304.731 301.971C305.506 301.204 305.948 300.162 305.961 299.072L302.648 209.568C302.647 208.47 302.21 207.418 301.433 206.641C300.657 205.865 299.604 205.428 298.506 205.427H87.2812C86.1908 205.428 85.1446 205.859 84.3695 206.626C83.5943 207.393 83.1525 208.434 83.1398 209.525Z" fill="#3F3D56"/>
<path d="M140.709 223.236C139.281 223.236 137.911 223.803 136.902 224.813C135.892 225.823 135.325 227.192 135.325 228.62C135.325 230.048 135.892 231.417 136.902 232.427C137.911 233.437 139.281 234.004 140.709 234.004H248.392C249.82 234.004 251.19 233.437 252.199 232.427C253.209 231.417 253.776 230.048 253.776 228.62C253.776 227.192 253.209 225.823 252.199 224.813C251.19 223.803 249.82 223.236 248.392 223.236H140.709Z" fill="#07359B"/>
<path d="M140.709 248.914C139.281 248.914 137.911 249.481 136.902 250.491C135.892 251.501 135.325 252.87 135.325 254.298C135.325 255.726 135.892 257.096 136.902 258.106C137.911 259.115 139.281 259.682 140.709 259.682H248.392C249.82 259.682 251.19 259.115 252.199 258.106C253.209 257.096 253.776 255.726 253.776 254.298C253.776 252.87 253.209 251.501 252.199 250.491C251.19 249.481 249.82 248.914 248.392 248.914H140.709Z" fill="#07359B"/>
<path d="M140.709 274.593C139.281 274.593 137.911 275.16 136.902 276.17C135.892 277.179 135.325 278.549 135.325 279.977C135.325 281.405 135.892 282.774 136.902 283.784C137.911 284.794 139.281 285.361 140.709 285.361H248.392C249.82 285.361 251.19 284.794 252.199 283.784C253.209 282.774 253.776 281.405 253.776 279.977C253.776 278.549 253.209 277.179 252.199 276.17C251.19 275.16 249.82 274.593 248.392 274.593H140.709Z" fill="#07359B"/>
<path d="M100.949 91.5308C99.5208 91.5308 98.1513 92.098 97.1416 93.1077C96.1318 94.1175 95.5646 95.487 95.5646 96.9149C95.5646 98.3429 96.1318 99.7124 97.1416 100.722C98.1513 101.732 99.5208 102.299 100.949 102.299H208.632C210.06 102.299 211.43 101.732 212.439 100.722C213.449 99.7124 214.016 98.3429 214.016 96.9149C214.016 95.487 213.449 94.1175 212.439 93.1077C211.43 92.098 210.06 91.5308 208.632 91.5308H100.949Z" fill="#07359B"/>
<path d="M100.949 117.209C99.5208 117.209 98.1513 117.776 97.1416 118.786C96.1318 119.796 95.5646 121.165 95.5646 122.593C95.5646 124.021 96.1318 125.391 97.1416 126.4C98.1513 127.41 99.5208 127.977 100.949 127.977H208.632C210.06 127.977 211.43 127.41 212.439 126.4C213.449 125.391 214.016 124.021 214.016 122.593C214.016 121.165 213.449 119.796 212.439 118.786C211.43 117.776 210.06 117.209 208.632 117.209H100.949Z" fill="#07359B"/>
<path d="M100.949 142.887C99.5208 142.887 98.1513 143.455 97.1416 144.464C96.1318 145.474 95.5646 146.844 95.5646 148.272C95.5646 149.7 96.1318 151.069 97.1416 152.079C98.1513 153.089 99.5208 153.656 100.949 153.656H208.632C210.06 153.656 211.43 153.089 212.439 152.079C213.449 151.069 214.016 149.7 214.016 148.272C214.016 146.844 213.449 145.474 212.439 144.464C211.43 143.455 210.06 142.887 208.632 142.887H100.949Z" fill="#07359B"/>
<path d="M116.273 24.85C120.848 24.85 124.556 21.1414 124.556 16.5667C124.556 11.9919 120.848 8.28333 116.273 8.28333C111.698 8.28333 107.99 11.9919 107.99 16.5667C107.99 21.1414 111.698 24.85 116.273 24.85Z" fill="#E6E6E6"/>
</g>
<defs>
<clipPath id="clip1">
<rect width="600" height="429.905" fill="white"/>
</clipPath>
</defs>
</svg>
