<svg width="500" height="451" viewBox="0 0 500 451" fill="none" xmlns="http://www.w3.org/2000/svg">
<g clip-path="url(#clip2)">
<path d="M317.817 260.927L248.81 178.833L110.294 180.099L26.2676 261.942L27.9654 263.033H27.3592V433.268H317.63V263.033L317.817 260.927Z" fill="#3F3D56"/>
<path d="M248.882 179.008L162.674 280.078V433.268H317.631V260.851L248.882 179.008Z" fill="#07359B"/>
<path d="M256.521 348.552H224.875V376.523H256.521V348.552Z" fill="white"/>
<path d="M256.521 300.136H224.875V327.664H256.521V300.136Z" fill="white"/>
<path d="M115.883 341.13H84.2371V369.101H115.883V341.13Z" fill="white"/>
<path d="M115.883 292.714H84.2371V320.242H115.883V292.714Z" fill="white"/>
<path d="M500 432.737H0V433.927H500V432.737Z" fill="#3F3D56"/>
<path d="M424.699 413.939L427.079 425.836L415.181 428.216L416.966 413.344L424.699 413.939Z" fill="#A0616A"/>
<path d="M462.177 411.559L459.203 426.431H444.926L450.875 408.585L462.177 411.559Z" fill="#A0616A"/>
<path d="M475.264 308.05L477.644 324.111L474.669 359.21L472.29 372.297L462.177 415.129C462.177 415.129 450.874 415.129 449.089 410.37L452.064 385.979C452.064 385.979 454.443 366.348 453.848 363.969C453.253 361.589 444.33 323.517 444.33 323.517C444.33 323.517 431.243 383.6 429.458 388.954C427.673 394.308 425.294 417.508 425.294 417.508C425.294 417.508 415.181 419.293 414.586 417.508C413.991 415.724 413.396 373.487 413.396 366.943C413.396 360.399 414.586 356.83 414.586 355.64C414.586 354.45 409.899 297.656 409.899 297.656L475.264 308.05Z" fill="#2F2E41"/>
<path d="M450.874 423.457C450.874 423.457 453.849 424.052 455.633 423.457C457.418 422.862 455.633 419.293 455.633 419.293H462.177C462.177 419.293 469.316 435.355 472.29 436.544C475.264 437.734 484.783 450.822 473.48 450.822C466.506 450.732 459.699 448.67 453.849 444.873C453.849 444.873 452.659 439.519 447.305 438.924C441.951 438.329 438.382 431.785 438.382 431.785L446.115 417.508C446.115 417.508 447.9 424.052 450.874 423.457Z" fill="#2F2E41"/>
<path d="M422.915 422.862C422.915 422.862 421.725 425.242 420.535 424.052C419.345 422.862 418.156 419.888 418.156 419.888C418.156 419.888 414.586 418.103 413.991 419.888C413.396 421.672 411.017 431.19 409.827 432.38C408.637 433.57 396.145 446.063 408.637 448.442C421.13 450.822 423.509 445.468 423.509 445.468C423.509 445.468 421.725 442.493 425.294 441.303C428.863 440.114 429.458 435.95 429.458 435.95L427.079 418.103C427.079 418.103 424.699 424.052 422.915 422.862Z" fill="#2F2E41"/>
<path d="M488.947 266.408L490.731 297.342C490.731 297.342 499.06 316.973 487.757 316.378C476.454 315.783 483.593 296.747 483.593 296.747L472.526 269.138L488.947 266.408Z" fill="#A0616A"/>
<path d="M397.334 257.484L395.55 288.418C395.55 288.418 387.221 308.05 398.524 307.455C409.827 306.86 402.688 287.823 402.688 287.823L413.755 260.215L397.334 257.484Z" fill="#A0616A"/>
<path d="M444.925 190.262C453.467 190.262 460.392 183.338 460.392 174.795C460.392 166.253 453.467 159.328 444.925 159.328C436.383 159.328 429.458 166.253 429.458 174.795C429.458 183.338 436.383 190.262 444.925 190.262Z" fill="#A0616A"/>
<path d="M457.12 181.042C457.12 181.042 452.956 197.699 461.285 201.863C469.613 206.027 435.11 211.976 432.73 201.863L433.92 197.104C433.92 197.104 438.679 191.155 437.489 185.801L457.12 181.042Z" fill="#A0616A"/>
<path d="M447.9 202.16C447.9 202.16 437.635 203.119 434.439 196.393C434.439 196.393 410.422 197.996 405.068 220.007L413.991 277.116C413.991 277.116 404.473 293.772 405.663 295.557C405.663 295.557 399.714 312.214 454.443 312.809L478.239 311.619C478.56 308.237 478.36 304.826 477.644 301.506C476.454 296.152 469.91 258.674 469.91 258.674C469.91 258.674 487.757 230.715 485.972 226.55C484.187 222.386 481.329 205.967 458.368 199.304C458.368 199.304 458.013 202.755 447.9 202.16Z" fill="#E6E6E6"/>
<path d="M478.239 216.437L485.972 226.55C485.972 226.55 493.706 268.787 491.326 269.382C488.947 269.977 474.669 274.736 472.29 272.951C469.91 271.167 459.202 236.068 459.202 236.068L478.239 216.437Z" fill="#E6E6E6"/>
<path d="M415.181 213.463L405.068 220.007C405.068 220.007 390.196 261.648 394.36 263.433C398.524 265.218 421.725 264.028 421.725 264.028L415.181 213.463Z" fill="#E6E6E6"/>
<path d="M461.832 160.954C461.832 160.954 456.474 149.346 446.206 152.025C435.938 154.704 430.134 158.722 429.688 162.74C429.241 166.757 429.911 172.784 429.911 172.784C429.911 172.784 431.027 164.525 438.17 166.311C441.969 167.261 446.905 167.327 450.694 167.18C451.437 167.149 452.178 167.271 452.872 167.536C453.566 167.802 454.199 168.206 454.732 168.724C455.265 169.242 455.686 169.864 455.971 170.55C456.255 171.237 456.397 171.974 456.387 172.717L456.2 185.503C456.2 185.503 471.072 175.985 461.832 160.954Z" fill="#2F2E41"/>
<path d="M388.881 165.455H178.777C177.746 165.454 176.757 165.044 176.027 164.314C175.298 163.585 174.887 162.596 174.886 161.564V65.0912C174.887 64.0597 175.298 63.0708 176.027 62.3414C176.757 61.612 177.746 61.2017 178.777 61.2004H388.881C389.913 61.2017 390.902 61.612 391.631 62.3414C392.361 63.0708 392.771 64.0597 392.772 65.0912V161.564C392.771 162.596 392.361 163.585 391.631 164.314C390.902 165.044 389.913 165.454 388.881 165.455ZM178.777 62.7568C178.158 62.7574 177.565 63.0036 177.127 63.4413C176.689 63.8789 176.443 64.4723 176.443 65.0912V161.564C176.443 162.183 176.689 162.777 177.127 163.214C177.565 163.652 178.158 163.898 178.777 163.899H388.881C389.5 163.898 390.094 163.652 390.531 163.214C390.969 162.777 391.215 162.183 391.216 161.564V65.0912C391.215 64.4723 390.969 63.8789 390.531 63.4413C390.094 63.0036 389.5 62.7574 388.881 62.7568H178.777Z" fill="#E6E6E6"/>
<path d="M209.867 111.225C218.62 111.225 225.716 104.129 225.716 95.3756C225.716 86.6224 218.62 79.5265 209.867 79.5265C201.113 79.5265 194.018 86.6224 194.018 95.3756C194.018 104.129 201.113 111.225 209.867 111.225Z" fill="#07359B"/>
<path d="M246.471 84.8096C246.123 84.8091 245.78 84.877 245.459 85.0095C245.138 85.142 244.846 85.3365 244.6 85.5819C244.355 85.8272 244.16 86.1186 244.027 86.4393C243.894 86.7601 243.825 87.1039 243.825 87.4511C243.825 87.7983 243.894 88.1421 244.027 88.4629C244.16 88.7836 244.355 89.075 244.6 89.3203C244.846 89.5657 245.138 89.7602 245.459 89.8927C245.78 90.0252 246.123 90.0931 246.471 90.0926H370.999C371.7 90.0926 372.372 89.8143 372.867 89.3189C373.363 88.8236 373.641 88.1517 373.641 87.4511C373.641 86.7505 373.363 86.0786 372.867 85.5833C372.372 85.0879 371.7 84.8096 370.999 84.8096H246.471Z" fill="#E6E6E6"/>
<path d="M246.471 100.659C246.123 100.658 245.78 100.726 245.459 100.859C245.138 100.991 244.846 101.186 244.6 101.431C244.355 101.676 244.16 101.968 244.027 102.288C243.894 102.609 243.825 102.953 243.825 103.3C243.825 103.647 243.894 103.991 244.027 104.312C244.16 104.633 244.355 104.924 244.6 105.169C244.846 105.415 245.138 105.609 245.459 105.742C245.78 105.874 246.123 105.942 246.471 105.942H300.056C300.403 105.942 300.747 105.874 301.068 105.742C301.389 105.609 301.68 105.415 301.926 105.169C302.172 104.924 302.367 104.633 302.5 104.312C302.633 103.991 302.701 103.647 302.701 103.3C302.701 102.953 302.633 102.609 302.5 102.288C302.367 101.968 302.172 101.676 301.926 101.431C301.68 101.186 301.389 100.991 301.068 100.859C300.747 100.726 300.403 100.658 300.056 100.659H246.471Z" fill="#E6E6E6"/>
<path d="M197.71 125.997C195.701 125.997 194.065 127.182 194.065 128.638C194.065 130.095 195.701 131.28 197.71 131.28H369.521C371.531 131.28 373.166 130.095 373.166 128.638C373.166 127.182 371.531 125.997 369.521 125.997H197.71Z" fill="#E6E6E6"/>
<path d="M197.71 141.846C195.701 141.846 194.065 143.031 194.065 144.487C194.065 145.944 195.701 147.129 197.71 147.129H369.521C371.531 147.129 373.166 145.944 373.166 144.487C373.166 143.031 371.531 141.846 369.521 141.846H197.71Z" fill="#E6E6E6"/>
<path d="M351.041 56.3737C366.608 56.3737 379.228 43.754 379.228 28.1869C379.228 12.6197 366.608 0 351.041 0C335.474 0 322.854 12.6197 322.854 28.1869C322.854 43.754 335.474 56.3737 351.041 56.3737Z" fill="#07359B"/>
<path d="M351.041 74.0083L342.227 58.743L333.414 43.4777H351.041H368.667L359.854 58.743L351.041 74.0083Z" fill="#07359B"/>
<path d="M351.268 38.124C356.853 38.124 361.381 33.5962 361.381 28.011C361.381 22.4257 356.853 17.8979 351.268 17.8979C345.683 17.8979 341.155 22.4257 341.155 28.011C341.155 33.5962 345.683 38.124 351.268 38.124Z" fill="white"/>
<path d="M457.39 177.77C458.704 177.77 459.769 176.438 459.769 174.795C459.769 173.153 458.704 171.821 457.39 171.821C456.075 171.821 455.01 173.153 455.01 174.795C455.01 176.438 456.075 177.77 457.39 177.77Z" fill="#A0616A"/>
</g>
<defs>
<clipPath id="clip2">
<rect width="500" height="450.822" fill="white"/>
</clipPath>
</defs>
</svg>
