<svg width="250" height="69" viewBox="0 0 250 69" fill="none" xmlns="http://www.w3.org/2000/svg">
<g clip-path="url(#clip0)">
<path d="M24.8904 -1.49396e-06C20.3117 -0.00596728 15.7784 0.907823 11.5595 2.68715C7.34068 4.46648 3.52221 7.07509 0.330683 10.3582L0.265836 10.4231C0.246382 10.4404 0.226927 10.462 0.207473 10.4814L0.170727 10.5203L0.125334 10.5657L0.101557 10.5917V33.0157V33.461C0.101557 33.7377 0.0864258 34.0165 0.0864258 34.2954C0.0864258 34.5742 0.0864258 34.8682 0.101557 35.16L0.116688 57.5841V58.0293C2.74011 60.7681 5.79723 63.0554 9.165 64.7994H9.17796L9.24713 64.8339H9.2601C12.8837 66.6933 16.8115 67.8874 20.8569 68.3595C24.2329 68.7553 27.6488 68.6519 30.9946 68.0525L31.2108 68.0136C36.7609 66.9783 41.9678 64.5831 46.3655 61.0426L46.6011 60.8523C52.0751 56.3713 56.0301 50.3077 57.9242 43.4918C59.8183 36.6759 59.5591 29.4411 57.1819 22.7782C54.8048 16.1154 50.426 10.3503 44.6453 6.27266C38.8645 2.19498 31.9646 0.0040723 24.8904 -1.49396e-06ZM24.8904 39.1956C23.9229 39.1956 22.9772 38.9087 22.1727 38.3713C21.3683 37.8338 20.7413 37.0698 20.3711 36.176C20.0009 35.2821 19.904 34.2986 20.0927 33.3497C20.2815 32.4008 20.7474 31.5292 21.4315 30.8451C22.1156 30.161 22.9872 29.6951 23.9361 29.5064C24.8849 29.3176 25.8685 29.4145 26.7623 29.7847C27.6561 30.155 28.4201 30.782 28.9576 31.5864C29.4951 32.3908 29.782 33.3365 29.782 34.304C29.782 34.9464 29.6555 35.5825 29.4096 36.176C29.1638 36.7694 28.8035 37.3087 28.3493 37.7629C27.895 38.2171 27.3558 38.5775 26.7623 38.8233C26.1688 39.0691 25.5328 39.1956 24.8904 39.1956Z" fill="#07359B"/>
<path d="M24.8904 9.51089C20.1435 9.51488 15.4971 10.8785 11.5009 13.4405C7.50469 16.0025 4.32602 19.6555 2.34095 23.9674C0.96974 26.9541 0.209813 30.1849 0.10589 33.4697C0.10589 33.7463 0.0907593 34.0252 0.0907593 34.304C0.0907593 34.5829 0.0907593 34.8768 0.10589 35.1687C0.307501 41.2309 2.73176 47.0073 6.91698 51.3977L6.92995 51.4106C9.24339 53.8448 12.0284 55.7823 15.1152 57.105C18.2019 58.4276 21.5257 59.1076 24.8839 59.1036C25.3162 59.1036 25.7334 59.0928 26.1549 59.0712C32.592 58.7116 38.636 55.8592 43.0057 51.1188C47.3755 46.3785 49.7274 40.1227 49.5629 33.6777C49.3985 27.2326 46.7306 21.105 42.1248 16.5936C37.5191 12.0822 31.3374 9.54184 24.8904 9.51089ZM24.8904 39.2021C23.9229 39.2021 22.9772 38.9152 22.1727 38.3777C21.3683 37.8402 20.7414 37.0763 20.3711 36.1825C20.0009 35.2886 19.904 34.3051 20.0928 33.3562C20.2815 32.4073 20.7474 31.5357 21.4315 30.8516C22.1156 30.1675 22.9872 29.7016 23.9361 29.5129C24.885 29.3241 25.8685 29.421 26.7623 29.7912C27.6562 30.1615 28.4201 30.7885 28.9576 31.5929C29.4951 32.3973 29.782 33.343 29.782 34.3105C29.7803 35.6067 29.2642 36.8493 28.347 37.7652C27.4298 38.6812 26.1866 39.1957 24.8904 39.1956V39.2021Z" fill="#053AC1"/>
<path d="M24.8904 19.4714C21.9568 19.4714 19.089 20.3413 16.6498 21.9711C14.2106 23.601 12.3095 25.9175 11.1868 28.6278C10.0642 31.3381 9.77043 34.3205 10.3428 37.1977C10.9151 40.075 12.3277 42.7179 14.4021 44.7923C16.4765 46.8667 19.1194 48.2794 21.9967 48.8517C24.8739 49.424 27.8563 49.1303 30.5666 48.0076C33.2769 46.885 35.5935 44.9838 37.2233 42.5446C38.8531 40.1054 39.7231 37.2376 39.7231 34.304C39.7231 30.3702 38.1603 26.5974 35.3787 23.8158C32.597 21.0341 28.8243 19.4714 24.8904 19.4714ZM24.8904 39.1956C23.9229 39.1956 22.9772 38.9088 22.1728 38.3713C21.3683 37.8338 20.7414 37.0698 20.3711 36.176C20.0009 35.2821 19.904 34.2986 20.0928 33.3497C20.2815 32.4008 20.7474 31.5292 21.4315 30.8451C22.1156 30.161 22.9872 29.6951 23.9361 29.5064C24.885 29.3177 25.8685 29.4145 26.7623 29.7848C27.6562 30.155 28.4201 30.782 28.9576 31.5864C29.4951 32.3908 29.782 33.3366 29.782 34.304C29.782 34.9464 29.6555 35.5825 29.4097 36.176C29.1638 36.7694 28.8035 37.3087 28.3493 37.7629C27.8951 38.2172 27.3558 38.5775 26.7623 38.8233C26.1689 39.0691 25.5328 39.1956 24.8904 39.1956Z" fill="#0540F2"/>
<path d="M31.2108 68.0266L30.9946 68.0655C27.6495 68.6649 24.2343 68.7683 20.859 68.3724C16.8129 67.9006 12.8843 66.7065 9.26007 64.8469H9.2471L7.01421 51.4928L2.39278 23.8593L0.162051 10.529L0.114496 10.2372V10.2155L0.0993652 10.1248V10.0988L0.116658 10.1291L0.270129 10.4144L0.293906 10.4598L4.94127 19.1255L5.07961 19.3849L12.7877 33.7334L12.8007 33.755L18.3149 44.0202L18.6737 44.6903L26.1549 58.6259L26.3861 59.0582L30.986 67.618L31.2108 68.0266Z" fill="#333333"/>
<path d="M9.26012 64.8469H9.24715L9.17798 64.8123H9.16502C5.79603 63.0639 2.73823 60.7722 0.114547 58.0293V57.5841V35.1665V33.0244L0.0950928 10.5917V10.1053V10.1442L0.108062 10.2177V10.2523L0.166424 10.5268L2.34096 23.5221L2.39716 23.8485L6.93644 50.9654L7.02507 51.5057L9.18663 64.3606L9.26012 64.8469Z" fill="#1A1A1A"/>
<path d="M46.6011 60.8653L46.3677 61.0555C44.1867 62.8083 41.8 64.2884 39.2605 65.463C36.6941 66.6485 33.9901 67.5097 31.2108 68.0266L30.9946 67.6202L26.3948 59.0604L26.1636 58.6281L18.6759 44.6903L18.3149 44.0203L12.8008 33.755L12.7878 33.7334L5.07966 19.3849L4.94132 19.1255L0.289634 10.4685L0.265856 10.4231L0.112385 10.1377L0.0950928 10.1075L0.123193 10.1377L0.33935 10.3669L6.55817 17.1563L6.76352 17.3725L15.2066 26.5894L15.3925 26.7926L20.3036 32.1511L20.4289 32.2873L26.183 38.5688L26.5008 38.9146L31.28 44.1305L31.5372 44.4115L39.9284 53.5722L40.1662 53.8316L46.3677 60.5995L46.6011 60.8653Z" fill="#4D4D4D"/>
<path d="M19.3589 68.0504L0.203161 10.4879L0.121021 10.2545L0.114536 10.2372L0.101567 10.2026L0.0950824 10.1853L0.0907593 10.1723" stroke="white" stroke-width="0.5" stroke-miterlimit="10"/>
<path d="M39.2605 65.463L33.6318 57.5192L25.7356 46.3763L13.7778 29.5032L5.88808 18.369L0.289627 10.4684L0.261526 10.4274L0.11454 10.222V10.2199L0.110217 10.2155L0.101571 10.2026L0.0950858 10.1939L0.0540161 10.1356" stroke="white" stroke-width="0.5" stroke-miterlimit="10"/>
<path d="M4.2107 61.6651L0.0972474 10.596L0.0950858 10.57L0.0540161 10.1356" stroke="white" stroke-width="0.5" stroke-miterlimit="10"/>
<path d="M97.5924 19.0736C95.6384 16.7997 92.726 15.6627 88.8554 15.6627H71.1954L64.6805 52.9454H74.7426L77.1873 38.9363H79.8503L85.3926 52.9389H95.4611L95.5692 51.9813L89.6552 38.4758L90.3469 38.2597C92.7194 37.5645 94.8386 36.1947 96.4468 34.317C98.0142 32.5348 99.073 30.3636 99.5119 28.0312C100.186 24.3306 99.5465 21.3447 97.5924 19.0736ZM89.4563 28.1306C89.2828 29.2242 88.7257 30.2203 87.8849 30.9406C87.0627 31.6453 86.0105 32.0238 84.9278 32.0041H78.3956L79.7617 24.1965H86.3156C87.4511 24.1965 88.3121 24.551 88.8986 25.26C89.4851 25.969 89.671 26.9259 89.4563 28.1306Z" fill="#1A1A1A"/>
<path d="M113.125 38.2662L112.06 44.4115H112.068L111.958 45.0448L130.022 44.98L128.63 52.9454H100.604L104.434 31.1546H131.14L130.044 37.2243H113.311L113.132 38.2662H113.125Z" fill="#1A1A1A"/>
<path d="M135.182 15.6627L133.816 23.4854H105.783L107.157 15.6627H135.182Z" fill="#1A1A1A"/>
<path d="M167.188 30.5515C168.413 29.22 169.15 27.7732 169.4 26.2111C170.002 22.6935 169.265 20.0564 167.188 18.2998C165.112 16.5432 161.96 15.6641 157.731 15.6627H141.267L139.881 23.4854H155.334C156.826 23.4854 157.963 23.8406 158.745 24.551C159.528 25.2615 159.83 26.1845 159.651 27.32C159.474 28.457 158.781 29.38 157.572 30.089C156.498 30.7002 155.297 31.0553 154.063 31.1265C153.767 31.1503 153.462 31.1611 153.149 31.1611H138.522L137.441 37.2308H147.337V37.2048H153.625C155.364 37.2048 156.696 37.5781 157.621 38.3245C158.546 39.071 158.902 40.0466 158.687 41.2513C158.604 41.7894 158.409 42.3042 158.115 42.7628C157.822 43.2214 157.435 43.6136 156.981 43.9143C155.964 44.6068 154.753 44.9608 153.523 44.926H146.997L136.077 44.9649L134.665 52.9454H152.727C156.954 52.9454 160.435 52.0397 163.17 50.2283C165.905 48.4169 167.593 45.7192 168.232 42.1354C168.624 39.8989 168.322 37.9816 167.327 36.3834C166.331 34.7853 164.803 33.809 162.744 33.4545C164.445 32.8747 165.974 31.8764 167.188 30.5515Z" fill="#1A1A1A"/>
<path d="M209.888 20.3857C206.814 16.8321 202.312 15.0546 196.38 15.0531C190.449 15.0517 185.307 16.8386 180.955 20.4138C176.603 23.9876 173.93 28.6177 172.936 34.304C171.942 39.9904 172.978 44.6233 176.046 48.2029C179.117 51.7752 183.619 53.5614 189.552 53.5614C195.485 53.5614 200.606 51.7817 204.916 48.2223C209.239 44.6658 211.915 40.0264 212.942 34.304C213.97 28.5816 212.951 23.9422 209.888 20.3857ZM202.925 34.304C202.358 37.4743 200.972 40.0437 198.769 42.0121C196.665 43.9471 193.901 45.0055 191.043 44.9713C188.096 44.9713 185.868 43.9756 184.358 41.984C182.847 39.9925 182.377 37.4325 182.946 34.304C183.515 31.177 184.9 28.6169 187.101 26.624C189.197 24.6737 191.963 23.6042 194.826 23.6367C197.774 23.6367 200.004 24.6238 201.514 26.598C203.024 28.5723 203.495 31.1409 202.925 34.304Z" fill="#1A1A1A"/>
<path d="M250 15.6627L249.84 16.3911L235.669 33.0568L245.234 52.0699L245.128 52.9454H235.174L229.093 40.7866L218.755 52.9454H209.071L209.285 51.9899L225.205 33.0114L217.105 16.6246L217.265 15.6627H227.684L231.73 25.2319L239.756 15.6627H250Z" fill="#1A1A1A"/>
<path d="M154.063 31.1265V31.1611H153.149C153.471 31.1546 153.767 31.1438 154.063 31.1265Z" fill="#1A1A1A"/>
</g>
<defs>
<clipPath id="clip0">
<rect width="250" height="68.608" fill="white"/>
</clipPath>
</defs>
</svg>
