<svg width="600" height="418" viewBox="0 0 600 418" fill="none" xmlns="http://www.w3.org/2000/svg">
<g clip-path="url(#clip4)">
<path d="M119.546 417.451C185.569 417.451 239.092 413.386 239.092 408.372C239.092 403.357 185.569 399.292 119.546 399.292C53.5226 399.292 0 403.357 0 408.372C0 413.386 53.5226 417.451 119.546 417.451Z" fill="#E6E6E6"/>
<path d="M91.3788 92.6251C112.183 83.7762 138.096 89.3828 163.402 93.2739C163.638 88.5617 166.492 82.8267 163.502 79.5391C159.869 75.5451 160.204 71.3485 162.39 67.1277C167.98 56.3345 159.971 44.85 151.885 35.3007C150.062 33.1532 147.759 31.4659 145.161 30.3758C142.564 29.2857 139.747 28.8236 136.937 29.027L121.958 30.0969C118.313 30.3573 114.835 31.7246 111.988 34.016C109.141 36.3074 107.062 39.4135 106.029 42.9187C102.452 47.7832 100.538 52.6341 101.743 57.4599C96.3859 61.121 95.4858 65.5404 97.8932 70.5225C99.9345 73.6594 99.9128 76.7128 97.8003 79.6818C95.0259 83.467 92.901 87.6876 91.5127 92.1707L91.3788 92.6251Z" fill="#2F2E41"/>
<path d="M585.782 360.88H161.759C157.988 360.88 154.372 359.382 151.705 356.716C149.039 354.049 147.541 350.433 147.541 346.662C301.249 328.798 452.069 328.798 600 346.662C600 350.433 598.502 354.049 595.836 356.716C593.169 359.382 589.553 360.88 585.782 360.88Z" fill="#2F2E41"/>
<path d="M600 347.498L147.541 346.662L199.979 258.428L200.23 258.01V63.5532C200.23 61.1929 200.695 58.8557 201.598 56.6751C202.501 54.4944 203.825 52.513 205.494 50.844C207.163 49.1751 209.144 47.8512 211.325 46.948C213.506 46.0449 215.843 45.5801 218.203 45.5803H526.829C529.189 45.5801 531.526 46.0449 533.707 46.948C535.888 47.8512 537.869 49.1751 539.538 50.844C541.207 52.513 542.531 54.4944 543.434 56.6751C544.337 58.8557 544.802 61.1929 544.802 63.5532V259.348L600 347.498Z" fill="#3F3D56"/>
<path d="M217.793 58.1255C216.241 58.1272 214.753 58.7446 213.656 59.8421C212.558 60.9396 211.941 62.4277 211.939 63.9799V241.284C211.941 242.836 212.558 244.324 213.656 245.421C214.753 246.519 216.241 247.136 217.793 247.138H529.748C531.3 247.136 532.788 246.519 533.885 245.421C534.983 244.324 535.6 242.836 535.602 241.284V63.9799C535.6 62.4277 534.983 60.9397 533.885 59.8422C532.788 58.7447 531.3 58.1273 529.748 58.1255H217.793Z" fill="white"/>
<path d="M219.101 270.555C218.621 270.556 218.152 270.694 217.748 270.953C217.344 271.212 217.022 271.58 216.821 272.016L200.663 307.142C200.487 307.524 200.41 307.945 200.439 308.364C200.469 308.784 200.603 309.19 200.83 309.544C201.057 309.898 201.369 310.19 201.738 310.392C202.108 310.594 202.522 310.7 202.942 310.7H542.734C543.162 310.7 543.583 310.59 543.956 310.382C544.33 310.174 544.644 309.873 544.869 309.51C545.094 309.146 545.222 308.731 545.241 308.303C545.26 307.876 545.169 307.451 544.978 307.068L527.415 271.942C527.208 271.525 526.888 271.173 526.491 270.928C526.095 270.683 525.638 270.554 525.171 270.555H219.101Z" fill="#2F2E41"/>
<path d="M372.516 55.1984C374.594 55.1984 376.279 53.5134 376.279 51.4349C376.279 49.3564 374.594 47.6714 372.516 47.6714C370.437 47.6714 368.752 49.3564 368.752 51.4349C368.752 53.5134 370.437 55.1984 372.516 55.1984Z" fill="white"/>
<path d="M339.117 317.39C338.566 317.391 338.03 317.573 337.592 317.909C337.154 318.244 336.839 318.714 336.695 319.247L332.642 334.301C332.541 334.673 332.528 335.063 332.603 335.441C332.678 335.818 332.838 336.174 333.073 336.48C333.307 336.785 333.608 337.033 333.954 337.203C334.299 337.374 334.679 337.462 335.064 337.462H412.144C412.544 337.462 412.938 337.367 413.294 337.184C413.649 337 413.956 336.735 414.188 336.409C414.42 336.083 414.57 335.706 414.627 335.31C414.684 334.914 414.645 334.511 414.514 334.133L409.303 319.079C409.133 318.586 408.812 318.158 408.388 317.856C407.963 317.553 407.454 317.391 406.932 317.39H339.117Z" fill="#2F2E41"/>
<path d="M544.802 255.083V258.428H199.979L200.239 258.011V255.083H544.802Z" fill="#2F2E41"/>
<path d="M535.184 117.087C567.517 117.087 593.727 90.8765 593.727 58.5437C593.727 26.2109 567.517 0 535.184 0C502.851 0 476.64 26.2109 476.64 58.5437C476.64 90.8765 502.851 117.087 535.184 117.087Z" fill="#07359B"/>
<path d="M559.438 84.0519H510.93C510.043 84.051 509.193 83.6983 508.565 83.0711C507.938 82.4439 507.585 81.5935 507.585 80.7066V51.4347C507.586 50.5477 507.938 49.6974 508.565 49.0702C509.193 48.4431 510.043 48.0903 510.93 48.0894H559.438C560.325 48.0903 561.175 48.4431 561.802 49.0702C562.429 49.6974 562.782 50.5477 562.783 51.4347V80.7065C562.782 81.5935 562.429 82.4439 561.802 83.0711C561.175 83.6983 560.325 84.051 559.438 84.0519ZM510.93 51.4347V80.7066H559.44L559.438 51.4347L510.93 51.4347Z" fill="white"/>
<path d="M550.238 51.4348H520.13V38.0534C520.13 28.3612 526.461 21.3267 535.184 21.3267C543.906 21.3267 550.238 28.3612 550.238 38.0534L550.238 51.4348ZM523.475 48.0895H546.892V38.0534C546.892 30.1747 542.078 24.672 535.184 24.672C528.29 24.672 523.475 30.1748 523.475 38.0534L523.475 48.0895Z" fill="white"/>
<path d="M535.184 68.5799C537.031 68.5799 538.529 67.0821 538.529 65.2345C538.529 63.3869 537.031 61.8892 535.184 61.8892C533.336 61.8892 531.839 63.3869 531.839 65.2345C531.839 67.0821 533.336 68.5799 535.184 68.5799Z" fill="white"/>
<path d="M494.315 186.998H253.226C252.042 186.997 250.907 186.526 250.07 185.689C249.233 184.852 248.763 183.717 248.761 182.534V122.73C248.763 121.546 249.233 120.411 250.07 119.574C250.907 118.737 252.042 118.267 253.226 118.265H494.315C495.499 118.267 496.634 118.737 497.471 119.574C498.308 120.411 498.778 121.546 498.78 122.73V182.534C498.778 183.717 498.308 184.852 497.471 185.689C496.634 186.526 495.499 186.997 494.315 186.998ZM253.226 120.051C252.516 120.052 251.835 120.334 251.333 120.836C250.83 121.339 250.548 122.02 250.547 122.73V182.534C250.548 183.244 250.83 183.925 251.333 184.427C251.835 184.929 252.516 185.212 253.226 185.213H494.315C495.025 185.212 495.706 184.929 496.209 184.427C496.711 183.925 496.993 183.244 496.994 182.534V122.73C496.993 122.02 496.711 121.339 496.209 120.836C495.706 120.334 495.025 120.052 494.315 120.051L253.226 120.051Z" fill="#E6E6E6"/>
<path d="M290.686 168.524C300.73 168.524 308.873 160.381 308.873 150.337C308.873 140.293 300.73 132.151 290.686 132.151C280.642 132.151 272.5 140.293 272.5 150.337C272.5 160.381 280.642 168.524 290.686 168.524Z" fill="#E6E6E6"/>
<path d="M332.688 138.213C332.29 138.212 331.895 138.29 331.527 138.442C331.158 138.594 330.824 138.817 330.542 139.099C330.26 139.38 330.036 139.715 329.884 140.083C329.731 140.451 329.652 140.845 329.652 141.244C329.652 141.642 329.731 142.037 329.884 142.405C330.036 142.773 330.26 143.107 330.542 143.389C330.824 143.67 331.158 143.893 331.527 144.045C331.895 144.197 332.29 144.275 332.688 144.275H475.582C476.386 144.275 477.157 143.955 477.725 143.387C478.294 142.819 478.613 142.048 478.613 141.244C478.613 140.44 478.294 139.669 477.725 139.1C477.157 138.532 476.386 138.213 475.582 138.213H332.688Z" fill="#E6E6E6"/>
<path d="M332.688 156.399C331.884 156.399 331.113 156.719 330.545 157.287C329.977 157.855 329.657 158.626 329.657 159.43C329.657 160.234 329.977 161.005 330.545 161.574C331.113 162.142 331.884 162.461 332.688 162.461H394.176C394.98 162.461 395.751 162.142 396.319 161.574C396.888 161.005 397.207 160.234 397.207 159.43C397.207 158.626 396.888 157.855 396.319 157.287C395.751 156.719 394.98 156.399 394.176 156.399H332.688Z" fill="#E6E6E6"/>
<path d="M199.386 157.625L154.819 181.319L154.255 161.574C168.801 159.146 182.641 154.918 195.437 148.035L200.098 136.519C200.606 135.264 201.432 134.163 202.494 133.324C203.556 132.484 204.818 131.935 206.156 131.731C207.494 131.527 208.863 131.674 210.127 132.158C211.391 132.642 212.507 133.447 213.367 134.493C214.624 136.023 215.252 137.975 215.125 139.951C214.997 141.928 214.123 143.782 212.679 145.138L199.386 157.625Z" fill="#FFB8B8"/>
<path d="M90.4904 294.426C90.1653 293.233 90.0963 291.986 90.2879 290.765C90.4795 289.544 90.9274 288.377 91.6021 287.342L101.392 272.317C103.708 268.763 107.261 266.196 111.362 265.114C115.463 264.032 119.82 264.512 123.588 266.461C119.473 273.465 120.047 279.609 125.009 284.948C117.306 288.708 110.187 293.562 103.872 299.358C102.719 300.144 101.395 300.643 100.01 300.814C98.6253 300.984 97.2198 300.821 95.9106 300.339C94.6014 299.856 93.4265 299.068 92.4837 298.039C91.5409 297.011 90.8575 295.772 90.4904 294.426Z" fill="#2F2E41"/>
<path d="M201.416 274.781C199.935 277.25 197.843 279.297 195.343 280.725C192.843 282.153 190.017 282.915 187.138 282.936L122.099 283.429L119.278 267.069L148.049 258.607L123.791 239.99L150.306 208.962L198.465 253.848C201.279 256.472 203.108 259.982 203.645 263.792C204.183 267.602 203.396 271.481 201.416 274.781Z" fill="#2F2E41"/>
<path d="M111.944 386.667H96.7121C83.0361 292.924 69.1153 198.918 110.252 163.831L158.768 171.729L152.562 212.911L125.483 243.939L111.944 386.667Z" fill="#2F2E41"/>
<path d="M125.334 407.903C124.141 408.228 122.893 408.297 121.672 408.106C120.451 407.914 119.285 407.466 118.249 406.792L101.711 404.569C98.1567 402.253 95.5896 398.7 94.5074 394.599C93.4251 390.498 93.9049 386.141 95.8535 382.373C102.857 386.488 109.001 385.914 114.34 380.951C118.113 388.569 124.329 388.104 130.265 394.521C131.051 395.674 131.55 396.998 131.721 398.383C131.891 399.768 131.729 401.173 131.246 402.482C130.764 403.792 129.976 404.967 128.947 405.909C127.919 406.852 126.68 407.536 125.334 407.903Z" fill="#2F2E41"/>
<path d="M148.049 101.211L119.842 94.4413C124.527 84.852 124.913 74.1819 122.663 62.8493L141.844 62.2852C142.445 76.3775 144.263 89.5433 148.049 101.211Z" fill="#FFB8B8"/>
<path d="M155.801 188.715C135.268 202.707 120.759 189.193 109.687 168.344C111.226 155.586 108.735 140.318 104.121 123.729C102.069 116.412 102.835 108.591 106.268 101.811C109.701 95.0314 115.551 89.7848 122.663 87.1074L146.921 97.262C167.519 114.052 171.573 132.238 163.845 151.42L155.801 188.715Z" fill="#07359B"/>
<path d="M96.7121 115.315L74.1464 127.162L114.201 150.856L119.774 164.603C120.146 165.521 120.327 166.504 120.306 167.494C120.286 168.484 120.064 169.459 119.654 170.361C119.244 171.262 118.655 172.07 117.922 172.737C117.19 173.403 116.33 173.913 115.394 174.235C114.33 174.602 113.195 174.718 112.079 174.573C110.963 174.428 109.895 174.027 108.96 173.401C108.025 172.775 107.247 171.941 106.688 170.964C106.129 169.987 105.804 168.894 105.738 167.771L105.174 158.189L54.2659 141.39C52.5507 140.824 50.9868 139.875 49.6926 138.615C48.3984 137.355 47.4079 135.817 46.7961 134.117C45.9043 131.64 45.8589 128.937 46.667 126.432C47.4751 123.926 49.0911 121.759 51.2621 120.269L92.199 92.1848L96.7121 115.315Z" fill="#FFB8B8"/>
<path d="M119.278 117.571C109.867 113.447 101.309 117.927 90.5066 121.52L88.8142 91.6207C99.5402 85.9039 109.767 84.3626 119.278 88.8L119.278 117.571Z" fill="#07359B"/>
<path d="M130.536 77.0955C140.482 77.0955 148.545 69.0325 148.545 59.0863C148.545 49.1401 140.482 41.0771 130.536 41.0771C120.59 41.0771 112.527 49.1401 112.527 59.0863C112.527 69.0325 120.59 77.0955 130.536 77.0955Z" fill="#FFB8B8"/>
<path d="M152.081 56.814C134.25 58.5604 120.663 55.6442 111.98 47.3411V40.6543H150.568L152.081 56.814Z" fill="#2F2E41"/>
</g>
<defs>
<clipPath id="clip4">
<rect width="600" height="417.451" fill="white"/>
</clipPath>
</defs>
</svg>
