<svg version="1.1" id="Layer_1" xmlns="http://www.w3.org/2000/svg" xmlns:xlink="http://www.w3.org/1999/xlink" x="0px" y="0px"
	 viewBox="0 0 1937.6 160.1" style="enable-background:new 0 0 1937.6 160.1;" xml:space="preserve">
<style type="text/css">
	.st0{fill:#FFFFFF;}
	
		.st1{fill:none;stroke:#FF345A;stroke-width:2.8363;stroke-linecap:round;stroke-linejoin:round;stroke-miterlimit:4.0018;stroke-dasharray:12.0054;}
</style>
<g>
	<path id="Path_23_1_" class="st0" d="M1936.2,160.1H1.4V106c0,0,19.9,40.4,109.8,46.7S361.1,16.5,494.7,25.9S778,122.6,915.9,132.3
		S1219.6,1,1338.1,9.3c118.5,8.3,151.9,56.1,285.5,65.5s312.6-73.3,312.6-73.3V160.1z"/>
	<path id="Path_23" class="st1" d="M1.4,106c0,0,19.9,40.4,109.8,46.7S361.1,16.5,494.7,25.9S778,122.6,915.9,132.3
		S1219.6,1,1338.1,9.3c118.5,8.3,151.9,56.1,285.5,65.5s312.6-73.3,312.6-73.3"/>
</g>
</svg>
