<svg width="20" height="20" viewBox="0 0 20 20" fill="none" xmlns="http://www.w3.org/2000/svg">
<g clip-path="url(#clip0)">
<path d="M19.1667 9.16665H10.8334V0.83335C10.8334 0.373096 10.4603 0 10 0C9.53975 0 9.16665 0.373096 9.16665 0.83335V9.1667H0.83335C0.373096 9.16665 0 9.53975 0 10C0 10.4603 0.373096 10.8334 0.83335 10.8334H9.1667V19.1667C9.1667 19.627 9.53979 20 10 20C10.4603 20 10.8334 19.627 10.8334 19.1667V10.8334H19.1667C19.627 10.8334 20.0001 10.4603 20.0001 10C20.0001 9.53975 19.6269 9.16665 19.1667 9.16665Z" fill="#1D1D1D"/>
</g>
<defs>
<clipPath id="clip0">
<rect width="20" height="20" fill="white"/>
</clipPath>
</defs>
</svg>
