<svg width="20" height="20" viewBox="0 0 20 20" fill="none" xmlns="http://www.w3.org/2000/svg">
<g clip-path="url(#clip0)">
<path d="M1.12419 11.5681L1.09297 11.5613L14.4761 11.5613L10.2689 15.7777C10.0629 15.9836 9.94988 16.2624 9.94988 16.5551C9.94988 16.8478 10.0629 17.1247 10.2689 17.331L10.9235 17.986C11.1294 18.1918 11.4037 18.3057 11.6962 18.3057C11.9889 18.3057 12.2634 18.1927 12.4692 17.9868L19.6811 10.7756C19.8878 10.5689 20.0008 10.2936 20 10.0008C20.0008 9.70631 19.8878 9.43087 19.6811 9.22452L12.4692 2.01266C12.2634 1.80696 11.9891 1.69379 11.6962 1.69379C11.4037 1.69379 11.1294 1.80713 10.9235 2.01266L10.2689 2.66761C10.0629 2.87314 9.94988 3.14761 9.94988 3.4403C9.94988 3.73282 10.0629 3.99282 10.2689 4.19851L14.5235 8.43851L1.10923 8.43851C0.506468 8.43851 -3.62396e-05 8.95802 -3.62396e-05 9.56046V10.4868C-3.62396e-05 11.0892 0.521427 11.5681 1.12419 11.5681Z" fill="white"/>
</g>
<defs>
<clipPath id="clip0">
<rect width="20" height="20" fill="white" transform="translate(20 20) rotate(-180)"/>
</clipPath>
</defs>
</svg>
