<svg width="36" height="36" viewBox="0 0 36 36" fill="none" xmlns="http://www.w3.org/2000/svg">
<g clip-path="url(#clip0)">
<path d="M3.60003 29.1003V18.9003C3.60003 18.5685 3.33123 18.3003 3.00003 18.3003C2.66882 18.3003 2.40002 18.5685 2.40002 18.9003V29.1003C2.40002 29.4321 2.66882 29.7003 3.00003 29.7003C3.33123 29.7003 3.60003 29.4321 3.60003 29.1003Z" fill="#1D1D1D"/>
<path d="M33.6003 29.1003V18.9003C33.6003 18.5685 33.3315 18.3003 33.0003 18.3003C32.6691 18.3003 32.4003 18.5685 32.4003 18.9003V29.1003C32.4003 29.4321 32.6691 29.7003 33.0003 29.7003C33.3315 29.7003 33.6003 29.4321 33.6003 29.1003Z" fill="#1D1D1D"/>
<path d="M5.40017 18.3003C5.06897 18.3003 4.80017 18.5685 4.80017 18.9003V24.3003C4.80017 24.6321 5.06897 24.9003 5.40017 24.9003C5.73137 24.9003 6.00017 24.6321 6.00017 24.3003V18.9003C6.00017 18.5685 5.73137 18.3003 5.40017 18.3003Z" fill="#1D1D1D"/>
<path d="M7.19998 18.3003C6.86878 18.3003 6.59998 18.5685 6.59998 18.9003V24.3003C6.59998 24.6321 6.86878 24.9003 7.19998 24.9003C7.53118 24.9003 7.79998 24.6321 7.79998 24.3003V18.9003C7.79998 18.5685 7.53118 18.3003 7.19998 18.3003Z" fill="#1D1D1D"/>
<path d="M10.8001 24.3003V18.9003C10.8001 18.5685 10.5313 18.3003 10.2001 18.3003C9.8689 18.3003 9.6001 18.5685 9.6001 18.9003V24.3003C9.6001 24.6321 9.8689 24.9003 10.2001 24.9003C10.5313 24.9003 10.8001 24.6321 10.8001 24.3003Z" fill="#1D1D1D"/>
<path d="M12.6 24.3003V18.9003C12.6 18.5685 12.3312 18.3003 12 18.3003C11.6688 18.3003 11.4 18.5685 11.4 18.9003V24.3003C11.4 24.6321 11.6688 24.9003 12 24.9003C12.3312 24.9003 12.6 24.6321 12.6 24.3003Z" fill="#1D1D1D"/>
<path d="M14.4 24.3003V18.9003C14.4 18.5685 14.1312 18.3003 13.8 18.3003C13.4688 18.3003 13.2 18.5685 13.2 18.9003V24.3003C13.2 24.6321 13.4688 24.9003 13.8 24.9003C14.1312 24.9003 14.4 24.6321 14.4 24.3003Z" fill="#1D1D1D"/>
<path d="M17.9997 24.3003V18.9003C17.9997 18.5685 17.7309 18.3003 17.3997 18.3003C17.0685 18.3003 16.7997 18.5685 16.7997 18.9003V24.3003C16.7997 24.6321 17.0685 24.9003 17.3997 24.9003C17.7309 24.9003 17.9997 24.6321 17.9997 24.3003Z" fill="#1D1D1D"/>
<path d="M20.9998 18.9003C20.9998 18.5685 20.731 18.3003 20.3998 18.3003C20.0686 18.3003 19.7998 18.5685 19.7998 18.9003V24.3003C19.7998 24.6321 20.0686 24.9003 20.3998 24.9003C20.731 24.9003 20.9998 24.6321 20.9998 24.3003V18.9003Z" fill="#1D1D1D"/>
<path d="M22.7997 18.9003C22.7997 18.5685 22.5309 18.3003 22.1997 18.3003C21.8685 18.3003 21.5997 18.5685 21.5997 18.9003V24.3003C21.5997 24.6321 21.8685 24.9003 22.1997 24.9003C22.5309 24.9003 22.7997 24.6321 22.7997 24.3003V18.9003Z" fill="#1D1D1D"/>
<path d="M25.2 18.3003C24.8688 18.3003 24.6 18.5685 24.6 18.9003V24.3003C24.6 24.6321 24.8688 24.9003 25.2 24.9003C25.5312 24.9003 25.8 24.6321 25.8 24.3003V18.9003C25.8 18.5685 25.5312 18.3003 25.2 18.3003Z" fill="#1D1D1D"/>
<path d="M26.9999 18.3003C26.6687 18.3003 26.3999 18.5685 26.3999 18.9003V24.3003C26.3999 24.6321 26.6687 24.9003 26.9999 24.9003C27.3311 24.9003 27.5999 24.6321 27.5999 24.3003V18.9003C27.5999 18.5685 27.3311 18.3003 26.9999 18.3003Z" fill="#1D1D1D"/>
<path d="M30.6002 24.9003C30.9314 24.9003 31.2002 24.6321 31.2002 24.3003V18.9003C31.2002 18.5685 30.9314 18.3003 30.6002 18.3003C30.269 18.3003 30.0002 18.5685 30.0002 18.9003V24.3003C30.0002 24.6321 30.269 24.9003 30.6002 24.9003Z" fill="#1D1D1D"/>
<path d="M2.40002 6.90029V15.3003C2.40002 15.6321 2.66882 15.9003 3.00003 15.9003C3.33123 15.9003 3.60003 15.6321 3.60003 15.3003V6.90029C3.60003 6.56849 3.33123 6.30029 3.00003 6.30029C2.66882 6.30029 2.40002 6.56849 2.40002 6.90029Z" fill="#1D1D1D"/>
<path d="M33.6003 15.3003V6.90029C33.6003 6.56849 33.3315 6.30029 33.0003 6.30029C32.6691 6.30029 32.4003 6.56849 32.4003 6.90029V15.3003C32.4003 15.6321 32.6691 15.9003 33.0003 15.9003C33.3315 15.9003 33.6003 15.6321 33.6003 15.3003Z" fill="#1D1D1D"/>
<path d="M4.80017 15.3003C4.80017 15.6321 5.06897 15.9003 5.40017 15.9003C5.73137 15.9003 6.00017 15.6321 6.00017 15.3003V6.90029C6.00017 6.56849 5.73137 6.30029 5.40017 6.30029C5.06897 6.30029 4.80017 6.56849 4.80017 6.90029V15.3003Z" fill="#1D1D1D"/>
<path d="M7.19998 15.9003C7.53118 15.9003 7.79998 15.6321 7.79998 15.3003V6.90029C7.79998 6.56849 7.53118 6.30029 7.19998 6.30029C6.86878 6.30029 6.59998 6.56849 6.59998 6.90029V15.3003C6.59998 15.6321 6.86878 15.9003 7.19998 15.9003Z" fill="#1D1D1D"/>
<path d="M10.2001 15.9003C10.5313 15.9003 10.8001 15.6321 10.8001 15.3003V6.90029C10.8001 6.56849 10.5313 6.30029 10.2001 6.30029C9.8689 6.30029 9.6001 6.56849 9.6001 6.90029V15.3003C9.6001 15.6321 9.8689 15.9003 10.2001 15.9003Z" fill="#1D1D1D"/>
<path d="M12 15.9003C12.3312 15.9003 12.6 15.6321 12.6 15.3003V6.90029C12.6 6.56849 12.3312 6.30029 12 6.30029C11.6688 6.30029 11.4 6.56849 11.4 6.90029V15.3003C11.4 15.6321 11.6688 15.9003 12 15.9003Z" fill="#1D1D1D"/>
<path d="M13.8 15.9003C14.1312 15.9003 14.4 15.6321 14.4 15.3003V6.90029C14.4 6.56849 14.1312 6.30029 13.8 6.30029C13.4688 6.30029 13.2 6.56849 13.2 6.90029V15.3003C13.2 15.6321 13.4688 15.9003 13.8 15.9003Z" fill="#1D1D1D"/>
<path d="M17.3997 15.9003C17.7309 15.9003 17.9997 15.6321 17.9997 15.3003V6.90029C17.9997 6.56849 17.7309 6.30029 17.3997 6.30029C17.0685 6.30029 16.7997 6.56849 16.7997 6.90029V15.3003C16.7997 15.6321 17.0685 15.9003 17.3997 15.9003Z" fill="#1D1D1D"/>
<path d="M20.3998 15.9003C20.731 15.9003 20.9998 15.6321 20.9998 15.3003V6.90029C20.9998 6.56849 20.731 6.30029 20.3998 6.30029C20.0686 6.30029 19.7998 6.56849 19.7998 6.90029V15.3003C19.7998 15.6321 20.0686 15.9003 20.3998 15.9003Z" fill="#1D1D1D"/>
<path d="M22.1997 15.9003C22.5309 15.9003 22.7997 15.6321 22.7997 15.3003V6.90029C22.7997 6.56849 22.5309 6.30029 22.1997 6.30029C21.8685 6.30029 21.5997 6.56849 21.5997 6.90029V15.3003C21.5997 15.6321 21.8685 15.9003 22.1997 15.9003Z" fill="#1D1D1D"/>
<path d="M25.2 15.9003C25.5312 15.9003 25.8 15.6321 25.8 15.3003V6.90029C25.8 6.56849 25.5312 6.30029 25.2 6.30029C24.8688 6.30029 24.6 6.56849 24.6 6.90029V15.3003C24.6 15.6321 24.8688 15.9003 25.2 15.9003Z" fill="#1D1D1D"/>
<path d="M26.9999 15.9003C27.3311 15.9003 27.5999 15.6321 27.5999 15.3003V6.90029C27.5999 6.56849 27.3311 6.30029 26.9999 6.30029C26.6687 6.30029 26.3999 6.56849 26.3999 6.90029V15.3003C26.3999 15.6321 26.6687 15.9003 26.9999 15.9003Z" fill="#1D1D1D"/>
<path d="M30.6002 15.9003C30.9314 15.9003 31.2002 15.6321 31.2002 15.3003V6.90029C31.2002 6.56849 30.9314 6.30029 30.6002 6.30029C30.269 6.30029 30.0002 6.56849 30.0002 6.90029V15.3003C30.0002 15.6321 30.269 15.9003 30.6002 15.9003Z" fill="#1D1D1D"/>
<path d="M5.40017 26.7002C5.06897 26.7002 4.80017 26.9684 4.80017 27.3002V27.9002C4.80017 28.232 5.06897 28.5002 5.40017 28.5002C5.73137 28.5002 6.00017 28.232 6.00017 27.9002V27.3002C6.00017 26.9684 5.73137 26.7002 5.40017 26.7002Z" fill="#1D1D1D"/>
<path d="M7.19998 26.7002C6.86878 26.7002 6.59998 26.9684 6.59998 27.3002V27.9002C6.59998 28.232 6.86878 28.5002 7.19998 28.5002C7.53118 28.5002 7.79998 28.232 7.79998 27.9002V27.3002C7.79998 26.9684 7.53118 26.7002 7.19998 26.7002Z" fill="#1D1D1D"/>
<path d="M8.9999 26.7002C8.6687 26.7002 8.3999 26.9684 8.3999 27.3002V27.9002C8.3999 28.232 8.6687 28.5002 8.9999 28.5002C9.33111 28.5002 9.59991 28.232 9.59991 27.9002V27.3002C9.59991 26.9684 9.33111 26.7002 8.9999 26.7002Z" fill="#1D1D1D"/>
<path d="M10.7997 26.7002C10.4685 26.7002 10.1997 26.9684 10.1997 27.3002V27.9002C10.1997 28.232 10.4685 28.5002 10.7997 28.5002C11.1309 28.5002 11.3997 28.232 11.3997 27.9002V27.3002C11.3997 26.9684 11.1309 26.7002 10.7997 26.7002Z" fill="#1D1D1D"/>
<path d="M12.6002 26.7002C12.269 26.7002 12.0002 26.9684 12.0002 27.3002V27.9002C12.0002 28.232 12.269 28.5002 12.6002 28.5002C12.9314 28.5002 13.2002 28.232 13.2002 27.9002V27.3002C13.2002 26.9684 12.9314 26.7002 12.6002 26.7002Z" fill="#1D1D1D"/>
<path d="M14.4002 26.7002C14.069 26.7002 13.8002 26.9684 13.8002 27.3002V27.9002C13.8002 28.232 14.069 28.5002 14.4002 28.5002C14.7314 28.5002 15.0002 28.232 15.0002 27.9002V27.3002C15.0002 26.9684 14.7314 26.7002 14.4002 26.7002Z" fill="#1D1D1D"/>
<path d="M16.2 26.7002C15.8688 26.7002 15.6 26.9684 15.6 27.3002V27.9002C15.6 28.232 15.8688 28.5002 16.2 28.5002C16.5312 28.5002 16.8 28.232 16.8 27.9002V27.3002C16.8 26.9684 16.5312 26.7002 16.2 26.7002Z" fill="#1D1D1D"/>
<path d="M17.9999 26.7002C17.6687 26.7002 17.3999 26.9684 17.3999 27.3002V27.9002C17.3999 28.232 17.6687 28.5002 17.9999 28.5002C18.3311 28.5002 18.5999 28.232 18.5999 27.9002V27.3002C18.5999 26.9684 18.3311 26.7002 17.9999 26.7002Z" fill="#1D1D1D"/>
<path d="M19.7997 26.7002C19.4685 26.7002 19.1997 26.9684 19.1997 27.3002V27.9002C19.1997 28.232 19.4685 28.5002 19.7997 28.5002C20.1309 28.5002 20.3997 28.232 20.3997 27.9002V27.3002C20.3997 26.9684 20.1309 26.7002 19.7997 26.7002Z" fill="#1D1D1D"/>
<path d="M21.6001 26.7002C21.2689 26.7002 21.0001 26.9684 21.0001 27.3002V27.9002C21.0001 28.232 21.2689 28.5002 21.6001 28.5002C21.9313 28.5002 22.2001 28.232 22.2001 27.9002V27.3002C22.2001 26.9684 21.9313 26.7002 21.6001 26.7002Z" fill="#1D1D1D"/>
<path d="M23.4 26.7002C23.0688 26.7002 22.8 26.9684 22.8 27.3002V27.9002C22.8 28.232 23.0688 28.5002 23.4 28.5002C23.7312 28.5002 24 28.232 24 27.9002V27.3002C24 26.9684 23.7312 26.7002 23.4 26.7002Z" fill="#1D1D1D"/>
<path d="M25.2 26.7002C24.8688 26.7002 24.6 26.9684 24.6 27.3002V27.9002C24.6 28.232 24.8688 28.5002 25.2 28.5002C25.5312 28.5002 25.8 28.232 25.8 27.9002V27.3002C25.8 26.9684 25.5312 26.7002 25.2 26.7002Z" fill="#1D1D1D"/>
<path d="M26.9999 26.7002C26.6687 26.7002 26.3999 26.9684 26.3999 27.3002V27.9002C26.3999 28.232 26.6687 28.5002 26.9999 28.5002C27.3311 28.5002 27.5999 28.232 27.5999 27.9002V27.3002C27.5999 26.9684 27.3311 26.7002 26.9999 26.7002Z" fill="#1D1D1D"/>
<path d="M28.7997 26.7002C28.4685 26.7002 28.1997 26.9684 28.1997 27.3002V27.9002C28.1997 28.232 28.4685 28.5002 28.7997 28.5002C29.1309 28.5002 29.3997 28.232 29.3997 27.9002V27.3002C29.3997 26.9684 29.1309 26.7002 28.7997 26.7002Z" fill="#1D1D1D"/>
<path d="M31.2002 27.3002C31.2002 26.9684 30.9314 26.7002 30.6002 26.7002C30.269 26.7002 30.0002 26.9684 30.0002 27.3002V27.9002C30.0002 28.232 30.269 28.5002 30.6002 28.5002C30.9314 28.5002 31.2002 28.232 31.2002 27.9002V27.3002Z" fill="#1D1D1D"/>
<path d="M4.8 32.1H1.2V29.1C1.2 28.7682 0.9312 28.5 0.6 28.5C0.2688 28.5 0 28.7682 0 29.1V33.3H4.8C5.1312 33.3 5.4 33.0318 5.4 32.7C5.4 32.3682 5.1312 32.1 4.8 32.1Z" fill="#1D1D1D"/>
<path d="M35.4 28.5C35.0688 28.5 34.8 28.7682 34.8 29.1V32.1H31.8C31.4688 32.1 31.2 32.3682 31.2 32.7C31.2 33.0318 31.4688 33.3 31.8 33.3H36V29.1C36 28.7682 35.7312 28.5 35.4 28.5Z" fill="#1D1D1D"/>
<path d="M31.1997 2.7002C30.8685 2.7002 30.5997 2.9684 30.5997 3.3002C30.5997 3.63199 30.8685 3.90019 31.1997 3.90019H34.7997V6.90019C34.7997 7.23199 35.0686 7.50019 35.3998 7.50019C35.731 7.50019 35.9998 7.23199 35.9998 6.90019V2.7002H31.1997Z" fill="#1D1D1D"/>
<path d="M0.6 7.50019C0.9312 7.50019 1.2 7.23199 1.2 6.90019V3.90019H4.2C4.5312 3.90019 4.8 3.63199 4.8 3.3002C4.8 2.9684 4.5312 2.7002 4.2 2.7002H0V6.90019C0 7.23199 0.2688 7.50019 0.6 7.50019Z" fill="#1D1D1D"/>
<path d="M35.4 16.5H0.6C0.2688 16.5 0 16.7682 0 17.1C0 17.4318 0.2688 17.7 0.6 17.7H35.4C35.7312 17.7 36 17.4318 36 17.1C36 16.7682 35.7312 16.5 35.4 16.5Z" fill="#1D1D1D"/>
</g>
<defs>
<clipPath id="clip0">
<rect width="36" height="36" fill="white"/>
</clipPath>
</defs>
</svg>
