<svg width="36" height="36" viewBox="0 0 36 36" fill="none" xmlns="http://www.w3.org/2000/svg">
<g clip-path="url(#clip0)">
<path d="M3.60015 29.1003V18.9003C3.60015 18.5685 3.33135 18.3003 3.00015 18.3003C2.66895 18.3003 2.40015 18.5685 2.40015 18.9003V29.1003C2.40015 29.4321 2.66895 29.7003 3.00015 29.7003C3.33135 29.7003 3.60015 29.4321 3.60015 29.1003Z" fill="#07359B"/>
<path d="M33.6001 29.1003V18.9003C33.6001 18.5685 33.3313 18.3003 33.0001 18.3003C32.6689 18.3003 32.4001 18.5685 32.4001 18.9003V29.1003C32.4001 29.4321 32.6689 29.7003 33.0001 29.7003C33.3313 29.7003 33.6001 29.4321 33.6001 29.1003Z" fill="#07359B"/>
<path d="M5.40005 18.3003C5.06885 18.3003 4.80005 18.5685 4.80005 18.9003V24.3003C4.80005 24.6321 5.06885 24.9003 5.40005 24.9003C5.73125 24.9003 6.00005 24.6321 6.00005 24.3003V18.9003C6.00005 18.5685 5.73125 18.3003 5.40005 18.3003Z" fill="#07359B"/>
<path d="M7.19985 18.3003C6.86865 18.3003 6.59985 18.5685 6.59985 18.9003V24.3003C6.59985 24.6321 6.86865 24.9003 7.19985 24.9003C7.53105 24.9003 7.79985 24.6321 7.79985 24.3003V18.9003C7.79985 18.5685 7.53105 18.3003 7.19985 18.3003Z" fill="#07359B"/>
<path d="M10.8001 24.3003V18.9003C10.8001 18.5685 10.5313 18.3003 10.2001 18.3003C9.8689 18.3003 9.6001 18.5685 9.6001 18.9003V24.3003C9.6001 24.6321 9.8689 24.9003 10.2001 24.9003C10.5313 24.9003 10.8001 24.6321 10.8001 24.3003Z" fill="#07359B"/>
<path d="M12.6001 24.3003V18.9003C12.6001 18.5685 12.3313 18.3003 12.0001 18.3003C11.6689 18.3003 11.4001 18.5685 11.4001 18.9003V24.3003C11.4001 24.6321 11.6689 24.9003 12.0001 24.9003C12.3313 24.9003 12.6001 24.6321 12.6001 24.3003Z" fill="#07359B"/>
<path d="M14.4 24.3003V18.9003C14.4 18.5685 14.1312 18.3003 13.8 18.3003C13.4688 18.3003 13.2 18.5685 13.2 18.9003V24.3003C13.2 24.6321 13.4688 24.9003 13.8 24.9003C14.1312 24.9003 14.4 24.6321 14.4 24.3003Z" fill="#07359B"/>
<path d="M17.9995 24.3003V18.9003C17.9995 18.5685 17.7307 18.3003 17.3996 18.3003C17.0684 18.3003 16.7996 18.5685 16.7996 18.9003V24.3003C16.7996 24.6321 17.0684 24.9003 17.3996 24.9003C17.7307 24.9003 17.9995 24.6321 17.9995 24.3003Z" fill="#07359B"/>
<path d="M20.9998 18.9003C20.9998 18.5685 20.731 18.3003 20.3998 18.3003C20.0686 18.3003 19.7998 18.5685 19.7998 18.9003V24.3003C19.7998 24.6321 20.0686 24.9003 20.3998 24.9003C20.731 24.9003 20.9998 24.6321 20.9998 24.3003V18.9003Z" fill="#07359B"/>
<path d="M22.7998 18.9003C22.7998 18.5685 22.531 18.3003 22.1998 18.3003C21.8686 18.3003 21.5999 18.5685 21.5999 18.9003V24.3003C21.5999 24.6321 21.8686 24.9003 22.1998 24.9003C22.531 24.9003 22.7998 24.6321 22.7998 24.3003V18.9003Z" fill="#07359B"/>
<path d="M25.1998 18.3003C24.8686 18.3003 24.5999 18.5685 24.5999 18.9003V24.3003C24.5999 24.6321 24.8686 24.9003 25.1998 24.9003C25.531 24.9003 25.7998 24.6321 25.7998 24.3003V18.9003C25.7998 18.5685 25.531 18.3003 25.1998 18.3003Z" fill="#07359B"/>
<path d="M26.9999 18.3003C26.6687 18.3003 26.3999 18.5685 26.3999 18.9003V24.3003C26.3999 24.6321 26.6687 24.9003 26.9999 24.9003C27.3311 24.9003 27.5999 24.6321 27.5999 24.3003V18.9003C27.5999 18.5685 27.3311 18.3003 26.9999 18.3003Z" fill="#07359B"/>
<path d="M30.6002 24.9003C30.9314 24.9003 31.2002 24.6321 31.2002 24.3003V18.9003C31.2002 18.5685 30.9314 18.3003 30.6002 18.3003C30.269 18.3003 30.0002 18.5685 30.0002 18.9003V24.3003C30.0002 24.6321 30.269 24.9003 30.6002 24.9003Z" fill="#07359B"/>
<path d="M2.40015 6.90029V15.3003C2.40015 15.6321 2.66895 15.9003 3.00015 15.9003C3.33135 15.9003 3.60015 15.6321 3.60015 15.3003V6.90029C3.60015 6.56849 3.33135 6.30029 3.00015 6.30029C2.66895 6.30029 2.40015 6.56849 2.40015 6.90029Z" fill="#07359B"/>
<path d="M33.6001 15.3003V6.90029C33.6001 6.56849 33.3313 6.30029 33.0001 6.30029C32.6689 6.30029 32.4001 6.56849 32.4001 6.90029V15.3003C32.4001 15.6321 32.6689 15.9003 33.0001 15.9003C33.3313 15.9003 33.6001 15.6321 33.6001 15.3003Z" fill="#07359B"/>
<path d="M4.80005 15.3003C4.80005 15.6321 5.06885 15.9003 5.40005 15.9003C5.73125 15.9003 6.00005 15.6321 6.00005 15.3003V6.90029C6.00005 6.56849 5.73125 6.30029 5.40005 6.30029C5.06885 6.30029 4.80005 6.56849 4.80005 6.90029V15.3003Z" fill="#07359B"/>
<path d="M7.19985 15.9003C7.53105 15.9003 7.79985 15.6321 7.79985 15.3003V6.90029C7.79985 6.56849 7.53105 6.30029 7.19985 6.30029C6.86865 6.30029 6.59985 6.56849 6.59985 6.90029V15.3003C6.59985 15.6321 6.86865 15.9003 7.19985 15.9003Z" fill="#07359B"/>
<path d="M10.2001 15.9003C10.5313 15.9003 10.8001 15.6321 10.8001 15.3003V6.90029C10.8001 6.56849 10.5313 6.30029 10.2001 6.30029C9.8689 6.30029 9.6001 6.56849 9.6001 6.90029V15.3003C9.6001 15.6321 9.8689 15.9003 10.2001 15.9003Z" fill="#07359B"/>
<path d="M12.0001 15.9003C12.3313 15.9003 12.6001 15.6321 12.6001 15.3003V6.90029C12.6001 6.56849 12.3313 6.30029 12.0001 6.30029C11.6689 6.30029 11.4001 6.56849 11.4001 6.90029V15.3003C11.4001 15.6321 11.6689 15.9003 12.0001 15.9003Z" fill="#07359B"/>
<path d="M13.8 15.9003C14.1312 15.9003 14.4 15.6321 14.4 15.3003V6.90029C14.4 6.56849 14.1312 6.30029 13.8 6.30029C13.4688 6.30029 13.2 6.56849 13.2 6.90029V15.3003C13.2 15.6321 13.4688 15.9003 13.8 15.9003Z" fill="#07359B"/>
<path d="M17.3996 15.9003C17.7307 15.9003 17.9995 15.6321 17.9995 15.3003V6.90029C17.9995 6.56849 17.7307 6.30029 17.3996 6.30029C17.0684 6.30029 16.7996 6.56849 16.7996 6.90029V15.3003C16.7996 15.6321 17.0684 15.9003 17.3996 15.9003Z" fill="#07359B"/>
<path d="M20.3998 15.9003C20.731 15.9003 20.9998 15.6321 20.9998 15.3003V6.90029C20.9998 6.56849 20.731 6.30029 20.3998 6.30029C20.0686 6.30029 19.7998 6.56849 19.7998 6.90029V15.3003C19.7998 15.6321 20.0686 15.9003 20.3998 15.9003Z" fill="#07359B"/>
<path d="M22.1998 15.9003C22.531 15.9003 22.7998 15.6321 22.7998 15.3003V6.90029C22.7998 6.56849 22.531 6.30029 22.1998 6.30029C21.8686 6.30029 21.5999 6.56849 21.5999 6.90029V15.3003C21.5999 15.6321 21.8686 15.9003 22.1998 15.9003Z" fill="#07359B"/>
<path d="M25.1998 15.9003C25.531 15.9003 25.7998 15.6321 25.7998 15.3003V6.90029C25.7998 6.56849 25.531 6.30029 25.1998 6.30029C24.8686 6.30029 24.5999 6.56849 24.5999 6.90029V15.3003C24.5999 15.6321 24.8686 15.9003 25.1998 15.9003Z" fill="#07359B"/>
<path d="M26.9999 15.9003C27.3311 15.9003 27.5999 15.6321 27.5999 15.3003V6.90029C27.5999 6.56849 27.3311 6.30029 26.9999 6.30029C26.6687 6.30029 26.3999 6.56849 26.3999 6.90029V15.3003C26.3999 15.6321 26.6687 15.9003 26.9999 15.9003Z" fill="#07359B"/>
<path d="M30.6002 15.9003C30.9314 15.9003 31.2002 15.6321 31.2002 15.3003V6.90029C31.2002 6.56849 30.9314 6.30029 30.6002 6.30029C30.269 6.30029 30.0002 6.56849 30.0002 6.90029V15.3003C30.0002 15.6321 30.269 15.9003 30.6002 15.9003Z" fill="#07359B"/>
<path d="M5.40005 26.7002C5.06885 26.7002 4.80005 26.9684 4.80005 27.3002V27.9002C4.80005 28.232 5.06885 28.5002 5.40005 28.5002C5.73125 28.5002 6.00005 28.232 6.00005 27.9002V27.3002C6.00005 26.9684 5.73125 26.7002 5.40005 26.7002Z" fill="#07359B"/>
<path d="M7.19985 26.7002C6.86865 26.7002 6.59985 26.9684 6.59985 27.3002V27.9002C6.59985 28.232 6.86865 28.5002 7.19985 28.5002C7.53105 28.5002 7.79985 28.232 7.79985 27.9002V27.3002C7.79985 26.9684 7.53105 26.7002 7.19985 26.7002Z" fill="#07359B"/>
<path d="M8.9999 26.7002C8.6687 26.7002 8.3999 26.9684 8.3999 27.3002V27.9002C8.3999 28.232 8.6687 28.5002 8.9999 28.5002C9.33111 28.5002 9.59991 28.232 9.59991 27.9002V27.3002C9.59991 26.9684 9.33111 26.7002 8.9999 26.7002Z" fill="#07359B"/>
<path d="M10.7997 26.7002C10.4685 26.7002 10.1997 26.9684 10.1997 27.3002V27.9002C10.1997 28.232 10.4685 28.5002 10.7997 28.5002C11.1309 28.5002 11.3997 28.232 11.3997 27.9002V27.3002C11.3997 26.9684 11.1309 26.7002 10.7997 26.7002Z" fill="#07359B"/>
<path d="M12.6002 26.7002C12.269 26.7002 12.0002 26.9684 12.0002 27.3002V27.9002C12.0002 28.232 12.269 28.5002 12.6002 28.5002C12.9314 28.5002 13.2002 28.232 13.2002 27.9002V27.3002C13.2002 26.9684 12.9314 26.7002 12.6002 26.7002Z" fill="#07359B"/>
<path d="M14.4001 26.7002C14.0688 26.7002 13.8 26.9684 13.8 27.3002V27.9002C13.8 28.232 14.0688 28.5002 14.4001 28.5002C14.7313 28.5002 15.0001 28.232 15.0001 27.9002V27.3002C15.0001 26.9684 14.7313 26.7002 14.4001 26.7002Z" fill="#07359B"/>
<path d="M16.1999 26.7002C15.8687 26.7002 15.5999 26.9684 15.5999 27.3002V27.9002C15.5999 28.232 15.8687 28.5002 16.1999 28.5002C16.5311 28.5002 16.7999 28.232 16.7999 27.9002V27.3002C16.7999 26.9684 16.5311 26.7002 16.1999 26.7002Z" fill="#07359B"/>
<path d="M17.9999 26.7002C17.6687 26.7002 17.3999 26.9684 17.3999 27.3002V27.9002C17.3999 28.232 17.6687 28.5002 17.9999 28.5002C18.3311 28.5002 18.5999 28.232 18.5999 27.9002V27.3002C18.5999 26.9684 18.3311 26.7002 17.9999 26.7002Z" fill="#07359B"/>
<path d="M19.7997 26.7002C19.4685 26.7002 19.1997 26.9684 19.1997 27.3002V27.9002C19.1997 28.232 19.4685 28.5002 19.7997 28.5002C20.1309 28.5002 20.3997 28.232 20.3997 27.9002V27.3002C20.3997 26.9684 20.1309 26.7002 19.7997 26.7002Z" fill="#07359B"/>
<path d="M21.6002 26.7002C21.269 26.7002 21.0002 26.9684 21.0002 27.3002V27.9002C21.0002 28.232 21.269 28.5002 21.6002 28.5002C21.9314 28.5002 22.2002 28.232 22.2002 27.9002V27.3002C22.2002 26.9684 21.9314 26.7002 21.6002 26.7002Z" fill="#07359B"/>
<path d="M23.4 26.7002C23.0688 26.7002 22.8 26.9684 22.8 27.3002V27.9002C22.8 28.232 23.0688 28.5002 23.4 28.5002C23.7312 28.5002 24 28.232 24 27.9002V27.3002C24 26.9684 23.7312 26.7002 23.4 26.7002Z" fill="#07359B"/>
<path d="M25.1998 26.7002C24.8686 26.7002 24.5999 26.9684 24.5999 27.3002V27.9002C24.5999 28.232 24.8686 28.5002 25.1998 28.5002C25.531 28.5002 25.7998 28.232 25.7998 27.9002V27.3002C25.7998 26.9684 25.531 26.7002 25.1998 26.7002Z" fill="#07359B"/>
<path d="M26.9999 26.7002C26.6687 26.7002 26.3999 26.9684 26.3999 27.3002V27.9002C26.3999 28.232 26.6687 28.5002 26.9999 28.5002C27.3311 28.5002 27.5999 28.232 27.5999 27.9002V27.3002C27.5999 26.9684 27.3311 26.7002 26.9999 26.7002Z" fill="#07359B"/>
<path d="M28.7997 26.7002C28.4685 26.7002 28.1997 26.9684 28.1997 27.3002V27.9002C28.1997 28.232 28.4685 28.5002 28.7997 28.5002C29.1309 28.5002 29.3997 28.232 29.3997 27.9002V27.3002C29.3997 26.9684 29.1309 26.7002 28.7997 26.7002Z" fill="#07359B"/>
<path d="M31.2002 27.3002C31.2002 26.9684 30.9314 26.7002 30.6002 26.7002C30.269 26.7002 30.0002 26.9684 30.0002 27.3002V27.9002C30.0002 28.232 30.269 28.5002 30.6002 28.5002C30.9314 28.5002 31.2002 28.232 31.2002 27.9002V27.3002Z" fill="#07359B"/>
<path d="M4.8 32.1H1.2V29.1C1.2 28.7682 0.9312 28.5 0.6 28.5C0.2688 28.5 0 28.7682 0 29.1V33.3H4.8C5.1312 33.3 5.4 33.0318 5.4 32.7C5.4 32.3682 5.1312 32.1 4.8 32.1Z" fill="#07359B"/>
<path d="M35.4 28.5C35.0688 28.5 34.8 28.7682 34.8 29.1V32.1H31.8C31.4688 32.1 31.2 32.3682 31.2 32.7C31.2 33.0318 31.4688 33.3 31.8 33.3H36V29.1C36 28.7682 35.7312 28.5 35.4 28.5Z" fill="#07359B"/>
<path d="M31.1999 2.7002C30.8687 2.7002 30.5999 2.9684 30.5999 3.3002C30.5999 3.63199 30.8687 3.90019 31.1999 3.90019H34.7999V6.90019C34.7999 7.23199 35.0687 7.50019 35.3999 7.50019C35.7311 7.50019 35.9999 7.23199 35.9999 6.90019V2.7002H31.1999Z" fill="#07359B"/>
<path d="M0.6 7.50019C0.9312 7.50019 1.2 7.23199 1.2 6.90019V3.90019H4.2C4.5312 3.90019 4.8 3.63199 4.8 3.3002C4.8 2.9684 4.5312 2.7002 4.2 2.7002H0V6.90019C0 7.23199 0.2688 7.50019 0.6 7.50019Z" fill="#07359B"/>
<path d="M35.4 16.5H0.6C0.2688 16.5 0 16.7682 0 17.1C0 17.4318 0.2688 17.7 0.6 17.7H35.4C35.7312 17.7 36 17.4318 36 17.1C36 16.7682 35.7312 16.5 35.4 16.5Z" fill="#07359B"/>
</g>
<defs>
<clipPath id="clip0">
<rect width="36" height="36" fill="white"/>
</clipPath>
</defs>
</svg>
