<svg width="28" height="28" viewBox="0 0 28 28" fill="none" xmlns="http://www.w3.org/2000/svg">
<g clip-path="url(#clip0)">
<path d="M9.80953 13.5226C8.74973 12.3256 7.33666 11.6667 5.82979 11.6667C4.32293 11.6667 2.90986 12.3256 1.85053 13.5226C-0.301738 15.9544 -0.301738 19.9103 1.85053 22.3421L5.82979 26.8375L9.80906 22.3421C11.9618 19.9103 11.9618 15.9544 9.80953 13.5226ZM9.11046 21.7233L5.83026 25.4291L2.54959 21.7233C0.698795 19.6331 0.698795 16.2316 2.54959 14.1414C3.42926 13.1474 4.59453 12.6 5.82979 12.6C7.06506 12.6 8.23079 13.1474 9.10999 14.1414C10.9608 16.2316 10.9608 19.6327 9.11046 21.7233Z" fill="#1D1D1D"/>
<path d="M22.748 11.4366L25.7645 8.03647C27.3876 6.20713 27.3876 3.23167 25.7645 1.40233C24.9619 0.497933 23.8904 0 22.7475 0C21.6051 0 20.5336 0.497933 19.731 1.40233C18.1079 3.23167 18.1079 6.20713 19.731 8.03647L22.748 11.4366ZM20.4291 2.02207C21.0521 1.31973 21.8753 0.933333 22.7475 0.933333C23.6202 0.933333 24.4434 1.31973 25.0664 2.02207C26.3861 3.50933 26.3861 5.92947 25.0664 7.41673L22.748 10.0305L20.4291 7.41673C19.1094 5.92947 19.1094 3.50933 20.4291 2.02207Z" fill="#1D1D1D"/>
<path d="M24.548 25.4413C24.2965 25.3848 24.0468 25.5425 23.9903 25.7941C23.9367 26.0321 23.8326 26.2509 23.6809 26.4437C23.5218 26.6462 23.5563 26.9397 23.7593 27.0989C23.8452 27.1661 23.9465 27.1987 24.0473 27.1987C24.1859 27.1987 24.3226 27.1376 24.4145 27.0205C24.6497 26.7218 24.8177 26.369 24.9008 25.9994C24.9573 25.7474 24.7995 25.4977 24.548 25.4413Z" fill="#1D1D1D"/>
<path d="M14.9307 14.4667C14.7286 14.4662 14.5321 14.4303 14.3464 14.3593C14.1075 14.2683 13.8363 14.3883 13.7439 14.6291C13.6525 14.8699 13.7733 15.1396 14.0137 15.2315C14.3058 15.3426 14.6133 15.3995 14.9297 15.4H15.0963C15.3544 15.4 15.563 15.1914 15.563 14.9333C15.563 14.6753 15.3544 14.4667 15.0963 14.4667H14.9307Z" fill="#1D1D1D"/>
<path d="M13.8229 11.5154C13.9074 11.5154 13.9923 11.4926 14.0693 11.445C14.2761 11.3162 14.5047 11.2373 14.7479 11.2103C15.0041 11.1818 15.1889 10.9513 15.1609 10.6951C15.1329 10.4389 14.9037 10.2559 14.6457 10.2821C14.2621 10.3245 13.9018 10.4487 13.5751 10.6526C13.3563 10.7889 13.29 11.0768 13.4263 11.2957C13.5149 11.4375 13.6671 11.5154 13.8229 11.5154Z" fill="#1D1D1D"/>
<path d="M8.42978 27.0667H7.49645C7.23838 27.0667 7.02979 27.2753 7.02979 27.5333C7.02979 27.7914 7.23838 28 7.49645 28H8.42978C8.68785 28 8.89645 27.7914 8.89645 27.5333C8.89645 27.2753 8.68738 27.0667 8.42978 27.0667Z" fill="#1D1D1D"/>
<path d="M16.7964 18.6667C16.7563 18.6667 16.7166 18.6676 16.6769 18.6695C16.4193 18.6797 16.2196 18.8972 16.2299 19.1548C16.2397 19.4059 16.4469 19.6023 16.6956 19.6023C16.7021 19.6023 16.7087 19.6023 16.7152 19.6019L17.6294 19.6C17.8875 19.6 18.0961 19.3914 18.0961 19.1333C18.0961 18.8753 17.8875 18.6667 17.6294 18.6667H16.7964Z" fill="#1D1D1D"/>
<path d="M16.5629 11.2H17.4962C17.7543 11.2 17.9629 10.9914 17.9629 10.7334C17.9629 10.4753 17.7543 10.2667 17.4962 10.2667H16.5629C16.3048 10.2667 16.0962 10.4753 16.0962 10.7334C16.0962 10.9914 16.3048 11.2 16.5629 11.2Z" fill="#1D1D1D"/>
<path d="M22.2963 18.6667C22.0382 18.6667 21.8296 18.8753 21.8296 19.1333C21.8296 19.3914 22.0382 19.6 22.2963 19.6H23.2296C23.4877 19.6 23.6963 19.3914 23.6963 19.1333C23.6963 18.8753 23.4877 18.6667 23.2296 18.6667H22.2963Z" fill="#1D1D1D"/>
<path d="M23.9633 14.9333C23.9633 14.6753 23.7547 14.4667 23.4967 14.4667H22.5633C22.3053 14.4667 22.0967 14.6753 22.0967 14.9333C22.0967 15.1914 22.3053 15.4 22.5633 15.4H23.4967C23.7543 15.4 23.9633 15.1914 23.9633 14.9333Z" fill="#1D1D1D"/>
<path d="M19.4965 19.6H20.4298C20.6879 19.6 20.8965 19.3914 20.8965 19.1333C20.8965 18.8753 20.6879 18.6667 20.4298 18.6667H19.4965C19.2384 18.6667 19.0298 18.8753 19.0298 19.1333C19.0298 19.3914 19.2389 19.6 19.4965 19.6Z" fill="#1D1D1D"/>
<path d="M20.2965 11.2C20.5546 11.2 20.7632 10.9914 20.7632 10.7334C20.7632 10.4753 20.5546 10.2667 20.2965 10.2667H19.3632C19.1051 10.2667 18.8965 10.4753 18.8965 10.7334C18.8965 10.9914 19.1051 11.2 19.3632 11.2H20.2965Z" fill="#1D1D1D"/>
<path d="M16.9637 14.4667C16.7057 14.4667 16.4971 14.6753 16.4971 14.9333C16.4971 15.1914 16.7057 15.4 16.9637 15.4H17.8971C18.1551 15.4 18.3637 15.1914 18.3637 14.9333C18.3637 14.6753 18.1551 14.4667 17.8971 14.4667H16.9637Z" fill="#1D1D1D"/>
<path d="M21.1635 14.9333C21.1635 14.6753 20.9549 14.4667 20.6969 14.4667H19.7635C19.5055 14.4667 19.2969 14.6753 19.2969 14.9333C19.2969 15.1914 19.5055 15.4 19.7635 15.4H20.6969C20.9545 15.4 21.1635 15.1914 21.1635 14.9333Z" fill="#1D1D1D"/>
<path d="M27.7319 16.6283C27.6908 16.3735 27.4505 16.1994 27.1971 16.2414C26.9423 16.282 26.7691 16.5219 26.8102 16.7762C26.8233 16.8593 26.8307 16.9437 26.8298 17.0338C26.8298 17.1906 26.8074 17.3455 26.7635 17.4949C26.6912 17.7422 26.8326 18.0017 27.0804 18.074C27.1243 18.0866 27.1682 18.0927 27.2116 18.0927C27.4136 18.0927 27.5998 17.9611 27.6596 17.7571C27.7282 17.5224 27.7632 17.2793 27.7632 17.0371C27.7641 16.9027 27.7538 16.765 27.7319 16.6283Z" fill="#1D1D1D"/>
<path d="M19.6295 27.0667H18.6962C18.4381 27.0667 18.2295 27.2753 18.2295 27.5333C18.2295 27.7914 18.4381 28 18.6962 28H19.6295C19.8876 28 20.0962 27.7914 20.0962 27.5333C20.0962 27.2753 19.8871 27.0667 19.6295 27.0667Z" fill="#1D1D1D"/>
<path d="M16.8297 27.0667H15.8964C15.6383 27.0667 15.4297 27.2753 15.4297 27.5333C15.4297 27.7914 15.6383 28 15.8964 28H16.8297C17.0878 28 17.2964 27.7914 17.2964 27.5333C17.2964 27.2753 17.0873 27.0667 16.8297 27.0667Z" fill="#1D1D1D"/>
<path d="M21.9634 23.3333C21.9634 23.0753 21.7548 22.8667 21.4967 22.8667H20.5633C20.3053 22.8667 20.0967 23.0753 20.0967 23.3333C20.0967 23.5914 20.3053 23.8 20.5633 23.8H21.4967C21.7543 23.8 21.9634 23.5914 21.9634 23.3333Z" fill="#1D1D1D"/>
<path d="M19.1635 23.3333C19.1635 23.0753 18.9549 22.8667 18.6969 22.8667H17.7635C17.5055 22.8667 17.2969 23.0753 17.2969 23.3333C17.2969 23.5914 17.5055 23.8 17.7635 23.8H18.6969C18.9545 23.8 19.1635 23.5914 19.1635 23.3333Z" fill="#1D1D1D"/>
<path d="M22.3966 27.0667H21.496C21.2379 27.0667 21.0293 27.2753 21.0293 27.5333C21.0293 27.7914 21.2379 28 21.496 28L22.4158 27.9996L22.4293 27.5329V27.9996C22.6874 27.9996 22.8796 27.7909 22.8796 27.5329C22.8796 27.2753 22.6547 27.0667 22.3966 27.0667Z" fill="#1D1D1D"/>
<path d="M24.0475 24.6022C24.1483 24.6022 24.2505 24.5695 24.3355 24.5023C24.5385 24.3427 24.573 24.0492 24.4139 23.8471C24.1791 23.5489 23.8763 23.3025 23.537 23.1341C23.3051 23.0188 23.026 23.1135 22.9112 23.3441C22.7964 23.5751 22.8907 23.8551 23.1212 23.9699C23.3373 24.0767 23.5305 24.234 23.6798 24.4244C23.7722 24.5411 23.9089 24.6022 24.0475 24.6022Z" fill="#1D1D1D"/>
<path d="M25.8273 18.5402C25.6271 18.6242 25.4153 18.6667 25.1964 18.6667H25.0961C24.838 18.6667 24.6294 18.8753 24.6294 19.1333C24.6294 19.3914 24.838 19.6 25.0961 19.6H25.1964C25.5399 19.6 25.8735 19.5328 26.1881 19.4007C26.4261 19.3009 26.5376 19.0274 26.4377 18.7899C26.3383 18.5523 26.063 18.4403 25.8273 18.5402Z" fill="#1D1D1D"/>
<path d="M13.0796 13.9323C13.3241 13.8516 13.4576 13.5879 13.3773 13.3429C13.3237 13.1791 13.2961 13.0078 13.2961 12.8352C13.2966 12.7647 13.3008 12.6942 13.3092 12.6256C13.3414 12.3699 13.1603 12.1361 12.9046 12.1044C12.6409 12.075 12.4151 12.2542 12.3833 12.509C12.3703 12.6144 12.3633 12.7218 12.3628 12.8328C12.3628 13.1072 12.4057 13.377 12.4902 13.6346C12.5551 13.831 12.7375 13.9556 12.9335 13.9556C12.9821 13.9556 13.0315 13.9486 13.0796 13.9323Z" fill="#1D1D1D"/>
<path d="M11.2296 27.0667H10.2963C10.0382 27.0667 9.82959 27.2753 9.82959 27.5333C9.82959 27.7914 10.0382 28 10.2963 28H11.2296C11.4877 28 11.6963 27.7914 11.6963 27.5333C11.6963 27.2753 11.4872 27.0667 11.2296 27.0667Z" fill="#1D1D1D"/>
<path d="M15.9232 23.6105C16.1006 23.6105 16.2695 23.5093 16.3479 23.338C16.4548 23.1033 16.3521 22.8265 16.1178 22.7197C15.899 22.6193 15.7006 22.4686 15.5448 22.2829C15.3786 22.0855 15.0846 22.0598 14.8872 22.2259C14.6899 22.3916 14.6642 22.6861 14.8303 22.8835C15.0748 23.1742 15.3856 23.4113 15.7296 23.5681C15.7926 23.5965 15.8584 23.6105 15.9232 23.6105Z" fill="#1D1D1D"/>
<path d="M26.4809 14.8111C26.1477 14.6179 25.7837 14.5045 25.3996 14.4741C25.1434 14.4555 24.918 14.6454 24.8979 14.903C24.8779 15.1601 25.0697 15.3846 25.3268 15.4047C25.5704 15.4238 25.8014 15.4957 26.0128 15.6184C26.0865 15.6613 26.1673 15.6814 26.2466 15.6814C26.4076 15.6814 26.5644 15.5979 26.6507 15.449C26.78 15.2264 26.7039 14.9408 26.4809 14.8111Z" fill="#1D1D1D"/>
<path d="M14.0299 27.0667H13.0966C12.8385 27.0667 12.6299 27.2753 12.6299 27.5333C12.6299 27.7914 12.8385 28 13.0966 28H14.0299C14.288 28 14.4966 27.7914 14.4966 27.5333C14.4966 27.2753 14.2875 27.0667 14.0299 27.0667Z" fill="#1D1D1D"/>
<path d="M15.1921 20.9249C15.2383 20.685 15.3353 20.4633 15.4809 20.2655C15.6335 20.0583 15.5892 19.7661 15.3815 19.6131C15.1739 19.4609 14.8822 19.5048 14.7291 19.7125C14.5009 20.0233 14.3478 20.3719 14.275 20.7494C14.2265 21.0023 14.3922 21.2469 14.6456 21.2959C14.675 21.3015 14.7049 21.3043 14.7338 21.3043C14.9531 21.3033 15.1487 21.1479 15.1921 20.9249Z" fill="#1D1D1D"/>
<path d="M22.8631 7C24.278 7 25.4297 5.84827 25.4297 4.43334C25.4297 3.0184 24.278 1.86667 22.8631 1.86667C21.4481 1.86667 20.2964 3.0184 20.2964 4.43334C20.2964 5.84827 21.4481 7 22.8631 7ZM22.8631 2.8C23.7637 2.8 24.4964 3.53267 24.4964 4.43334C24.4964 5.334 23.7637 6.06667 22.8631 6.06667C21.9624 6.06667 21.2297 5.334 21.2297 4.43334C21.2297 3.53267 21.9629 2.8 22.8631 2.8Z" fill="#1D1D1D"/>
<path d="M5.82979 14.4667C4.28559 14.4667 3.02979 15.7225 3.02979 17.2667C3.02979 18.8109 4.28559 20.0667 5.82979 20.0667C7.37399 20.0667 8.62979 18.8109 8.62979 17.2667C8.62979 15.7225 7.37399 14.4667 5.82979 14.4667ZM5.82979 19.1333C4.80032 19.1333 3.96312 18.2961 3.96312 17.2667C3.96312 16.2372 4.80032 15.4 5.82979 15.4C6.85925 15.4 7.69645 16.2372 7.69645 17.2667C7.69645 18.2961 6.85925 19.1333 5.82979 19.1333Z" fill="#1D1D1D"/>
</g>
<defs>
<clipPath id="clip0">
<rect width="28" height="28" fill="white"/>
</clipPath>
</defs>
</svg>
