<svg width="75" height="59" viewBox="0 0 75 59" fill="none" xmlns="http://www.w3.org/2000/svg">
<g clip-path="url(#clip0)">
<path d="M71.9634 21.6342L70.3321 19.9126L64.6227 4.52486C64.1449 3.25559 63.2929 2.16134 62.1795 1.38696C61.0661 0.612569 59.7438 0.194553 58.3876 0.188232H17.6163C16.2593 0.191391 14.9356 0.608163 13.8216 1.38297C12.7076 2.15778 11.8562 3.25379 11.3811 4.52486L5.7533 19.7206L3.40931 21.8889C2.40014 22.7483 1.5895 23.8165 1.03338 25.0198C0.477258 26.223 0.1889 27.5326 0.188217 28.8581L0.188217 51.2766C0.196842 53.0387 0.90291 54.7258 2.15201 55.9688C3.40111 57.2117 5.09159 57.9095 6.85377 57.9095H11.0624C12.8246 57.9095 14.5151 57.2117 15.7642 55.9688C17.0133 54.7258 17.7193 53.0387 17.728 51.2766V48.0241H57.272V51.2766C57.2807 53.0379 57.986 54.7241 59.2341 55.967C60.4821 57.2098 62.1713 57.9082 63.9326 57.9095H68.1425C69.9046 57.9095 71.5951 57.2117 72.8442 55.9688C74.0933 54.7258 74.7994 53.0387 74.808 51.2766V28.2671C74.8028 27.0273 74.5482 25.8011 74.0595 24.6617C73.5709 23.5222 72.858 22.4926 71.9634 21.6342ZM14.3789 5.60901C14.6267 4.95134 15.0696 4.3851 15.6482 3.98613C16.2268 3.58717 16.9135 3.37453 17.6163 3.37671H58.3976C59.0997 3.3777 59.785 3.59159 60.363 3.99013C60.941 4.38868 61.3845 4.95315 61.635 5.60901L66.6103 19.0029H62.8999C62.5157 16.4081 61.2117 14.0378 59.2257 12.3242C57.2397 10.6106 54.704 9.66785 52.0809 9.66785C49.4578 9.66785 46.9221 10.6106 44.9361 12.3242C42.9501 14.0378 41.6461 16.4081 41.2619 19.0029H9.4048L14.3789 5.60901ZM59.6474 19.0029H44.483C44.8457 17.2602 45.7977 15.6957 47.1786 14.5726C48.5595 13.4495 50.2852 12.8363 52.0652 12.8363C53.8452 12.8363 55.5709 13.4495 56.9518 14.5726C58.3328 15.6957 59.2847 17.2602 59.6474 19.0029ZM14.5382 51.2766C14.5323 52.1937 14.1631 53.0711 13.5117 53.7167C12.8602 54.3622 11.9795 54.7234 11.0624 54.721H6.85377C5.93663 54.7234 5.05593 54.3622 4.40448 53.7167C3.75303 53.0711 3.38392 52.1937 3.37794 51.2766V47.0993C4.42599 47.7296 5.63108 48.0502 6.85377 48.0241H14.5395L14.5382 51.2766ZM71.6221 51.2766C71.6161 52.1937 71.247 53.0711 70.5955 53.7167C69.9441 54.3622 69.0634 54.7234 68.1462 54.721H63.9326C63.0162 54.7207 62.1371 54.3587 61.4862 53.7137C60.8353 53.0687 60.4653 52.1929 60.4567 51.2766V48.0241H68.1425C69.3652 48.0502 70.5702 47.7296 71.6183 47.0993V51.2766H71.6221ZM68.1462 44.8344H6.85377C6.40136 44.8392 5.95244 44.7547 5.53274 44.5857C5.11304 44.4167 4.7308 44.1666 4.40792 43.8497C4.08504 43.5327 3.82787 43.1552 3.65112 42.7387C3.47438 42.3222 3.38155 41.875 3.37794 41.4225V28.8581C3.37954 27.9897 3.57005 27.1321 3.93623 26.3447C4.30242 25.5573 4.83553 24.8589 5.49857 24.2981L5.56257 24.2342L7.72963 22.1926H68.1149L69.6457 23.8351C69.662 23.8665 69.7097 23.8828 69.726 23.9154C70.3186 24.4754 70.7911 25.15 71.1147 25.8984C71.4383 26.6467 71.6062 27.4531 71.6083 28.2684V41.4225H71.6246C71.6143 42.3358 71.2424 43.2077 70.5904 43.8472C69.9384 44.4868 69.0595 44.8417 68.1462 44.8344Z" fill="#07359B" stroke="#07359B" stroke-width="0.3"/>
<path d="M21.2339 28.5708H9.27556C8.85309 28.5721 8.44833 28.7406 8.14972 29.0395C7.85111 29.3383 7.68294 29.7432 7.68195 30.1657V38.4574C7.68294 38.8801 7.85129 39.2852 8.15017 39.5841C8.44905 39.883 8.85413 40.0513 9.27681 40.0523H21.2339C21.6566 40.0513 22.0617 39.883 22.3605 39.5841C22.6594 39.2852 22.8278 38.8801 22.8288 38.4574V30.1657C22.8278 29.743 22.6594 29.3379 22.3605 29.039C22.0617 28.7401 21.6566 28.5718 21.2339 28.5708ZM19.639 36.8626H10.8704V31.7605H19.6403L19.639 36.8626Z" fill="#07359B" stroke="#07359B" stroke-width="0.3"/>
<path d="M21.5187 31.5586H8.97063V40.3423H21.5187V31.5586Z" fill="#07359B"/>
<path d="M65.4371 30.3037H54.1438V37.8326H65.4371V30.3037Z" fill="#07359B"/>
<path d="M64.8097 30.9312H54.7712V37.2052H64.8097V30.9312Z" stroke="#707070"/>
<path d="M65.7207 28.5708H53.7623C53.3399 28.5721 52.9351 28.7406 52.6365 29.0395C52.3379 29.3383 52.1697 29.7432 52.1687 30.1657V38.4574C52.1697 38.8801 52.3381 39.2852 52.6369 39.5841C52.9358 39.883 53.3409 40.0513 53.7636 40.0523H65.7219C66.1446 40.0513 66.5497 39.883 66.8486 39.5841C67.1474 39.2852 67.3158 38.8801 67.3168 38.4574V30.1657C67.3158 29.7428 67.1473 29.3375 66.8481 29.0386C66.549 28.7397 66.1436 28.5715 65.7207 28.5708ZM64.1258 36.8626H55.356V31.7605H64.1258V36.8626Z" fill="#07359B" stroke="#07359B" stroke-width="0.3"/>
<path d="M45.202 35.2677H29.7992C29.5861 35.2617 29.374 35.2985 29.1753 35.376C28.9767 35.4534 28.7956 35.5699 28.6427 35.7185C28.4898 35.8671 28.3683 36.0449 28.2854 36.2413C28.2024 36.4377 28.1596 36.6488 28.1596 36.862C28.1596 37.0752 28.2024 37.2862 28.2854 37.4826C28.3683 37.679 28.4898 37.8568 28.6427 38.0054C28.7956 38.154 28.9767 38.2705 29.1753 38.3479C29.374 38.4253 29.5861 38.4622 29.7992 38.4562H45.202C45.4151 38.4622 45.6273 38.4253 45.8259 38.3479C46.0246 38.2705 46.2057 38.154 46.3586 38.0054C46.5114 37.8568 46.6329 37.679 46.7159 37.4826C46.7989 37.2862 46.8416 37.0752 46.8416 36.862C46.8416 36.6488 46.7989 36.4377 46.7159 36.2413C46.6329 36.0449 46.5114 35.8671 46.3586 35.7185C46.2057 35.5699 46.0246 35.4534 45.8259 35.376C45.6273 35.2985 45.4151 35.2617 45.202 35.2677Z" fill="#07359B" stroke="#07359B" stroke-width="0.3"/>
<path d="M45.202 30.3251H29.7992C29.5861 30.3191 29.374 30.3559 29.1753 30.4333C28.9767 30.5108 28.7956 30.6273 28.6427 30.7759C28.4898 30.9245 28.3683 31.1023 28.2854 31.2987C28.2024 31.4951 28.1596 31.7061 28.1596 31.9193C28.1596 32.1325 28.2024 32.3436 28.2854 32.54C28.3683 32.7364 28.4898 32.9141 28.6427 33.0628C28.7956 33.2114 28.9767 33.3279 29.1753 33.4053C29.374 33.4827 29.5861 33.5195 29.7992 33.5136H45.202C45.4151 33.5195 45.6273 33.4827 45.8259 33.4053C46.0246 33.3279 46.2057 33.2114 46.3586 33.0628C46.5114 32.9141 46.6329 32.7364 46.7159 32.54C46.7989 32.3436 46.8416 32.1325 46.8416 31.9193C46.8416 31.7061 46.7989 31.4951 46.7159 31.2987C46.6329 31.1023 46.5114 30.9245 46.3586 30.7759C46.2057 30.6273 46.0246 30.5108 45.8259 30.4333C45.6273 30.3559 45.4151 30.3191 45.202 30.3251Z" fill="#07359B" stroke="#07359B" stroke-width="0.3"/>
</g>
<defs>
<clipPath id="clip0">
<rect width="75" height="58.0977" fill="white"/>
</clipPath>
</defs>
</svg>
