<svg width="42" height="40" viewBox="0 0 42 40" fill="none" xmlns="http://www.w3.org/2000/svg">
<g clip-path="url(#clip0)">
<path d="M21.0957 0C21.0844 0.0107172 21.0619 0.0107172 21.0281 0.0107172C9.64005 0.0107172 0.378784 8.83097 0.378784 19.6768C0.378784 24.103 1.96546 28.4006 4.86875 31.8622L1.86419 38.5069C1.61662 39.0535 1.88669 39.6858 2.44935 39.9108C2.6519 39.9966 2.87696 40.018 3.09077 39.9859L14.1075 38.1425C16.3131 38.9034 18.6312 39.2892 20.9719 39.2785C32.36 39.2785 41.6212 30.4583 41.6212 19.6125C41.6437 8.79882 32.45 0.0107172 21.0957 0ZM20.9831 37.1458C18.8113 37.1458 16.662 36.7707 14.6251 36.0419C14.4338 35.9669 14.2313 35.9562 14.0287 35.9883L4.75622 37.5316L7.20939 32.098C7.37818 31.7229 7.31066 31.2835 7.02934 30.9727C5.70148 29.5044 4.64369 27.8326 3.90099 26.0213C3.06826 23.9958 2.64065 21.8416 2.64065 19.666C2.64065 9.99914 10.9004 2.14344 21.0394 2.14344C31.1559 2.122 39.3706 9.9134 39.3819 19.5482C39.3819 19.5696 39.3819 19.591 39.3819 19.6125C39.3819 29.2901 31.1221 37.1458 20.9831 37.1458Z" fill="#1D1D1D"/>
<path d="M20.1054 15.7222L14.0287 15.7222C13.4098 15.7222 12.9034 16.2044 12.9034 16.7939C12.9034 17.3833 13.4098 17.8656 14.0287 17.8656L20.1054 17.8656C20.7243 17.8656 21.2307 17.3833 21.2307 16.7939C21.2307 16.2044 20.7243 15.7222 20.1054 15.7222Z" fill="#1D1D1D"/>
<path d="M27.9825 21.0807L14.0287 21.0807C13.4098 21.0807 12.9034 21.563 12.9034 22.1524C12.9034 22.7419 13.4098 23.2241 14.0287 23.2241L27.9825 23.2241C28.6015 23.2241 29.1078 22.7419 29.1078 22.1524C29.1078 21.563 28.6015 21.0807 27.9825 21.0807Z" fill="#1D1D1D"/>
</g>
<defs>
<clipPath id="clip0">
<rect width="42" height="40" fill="white"/>
</clipPath>
</defs>
</svg>
