<svg width="20" height="20" viewBox="0 0 20 20" fill="none" xmlns="http://www.w3.org/2000/svg">
<g clip-path="url(#clip0)">
<path d="M2.9408 17.0591C3.85716 17.9754 4.9246 18.695 6.11356 19.1979C7.34528 19.7189 8.65279 19.983 9.99984 19.983C11.3468 19.983 12.6544 19.7189 13.8861 19.1979C15.075 18.695 16.1425 17.9754 17.0589 17.0591C17.9752 16.1427 18.6949 15.0753 19.1977 13.8863C19.7187 12.6546 19.9829 11.3471 19.9829 10.0001C19.9829 8.653 19.7187 7.34549 19.1977 6.1138C18.6949 4.92485 17.9752 3.85741 17.0589 2.94104C16.1425 2.02468 15.0751 1.30508 13.8861 0.80221C12.6544 0.281212 11.3468 0.0170898 9.99984 0.0170898C8.65279 0.0170898 7.34528 0.281246 6.11356 0.80221C4.9246 1.30508 3.85716 2.02471 2.9408 2.94104C2.02443 3.85737 1.30483 4.92485 0.801932 6.11377C0.281002 7.34549 0.0168457 8.653 0.0168457 10.0001C0.0168457 11.3471 0.281002 12.6546 0.801966 13.8863C1.30483 15.0753 2.02447 16.1427 2.9408 17.0591ZM9.99984 1.47446C14.7084 1.47446 18.5254 5.2915 18.5254 10.0001C18.5254 14.7086 14.7084 18.5256 9.99984 18.5256C5.29126 18.5256 1.47421 14.7086 1.47421 10.0001C1.47421 5.2915 5.29126 1.47446 9.99984 1.47446Z" fill="#07359B"/>
<path d="M10 20.0009C8.65058 20.0009 7.34085 19.7363 6.10709 19.2145C4.91609 18.7107 3.84681 17.9899 2.92895 17.072C2.01102 16.1541 1.2902 15.0847 0.786481 13.8938C0.264598 12.66 0 11.3502 0 10.001C0 8.65169 0.264598 7.3419 0.786447 6.10803C1.29016 4.9171 2.01102 3.84782 2.92892 2.92989C3.84681 2.01196 4.91613 1.29114 6.10706 0.787423C7.34092 0.265575 8.65068 0.000976562 9.99997 0.000976562C11.3494 0.000976562 12.6591 0.265575 13.8928 0.787458C15.0838 1.29117 16.1531 2.01203 17.0711 2.92993C17.989 3.84793 18.7098 4.91721 19.2135 6.10807C19.7354 7.34193 20 8.65169 20 10.001C20 11.3502 19.7354 12.66 19.2135 13.8939C18.7098 15.0847 17.989 16.154 17.0711 17.0721C16.1532 17.9899 15.0838 18.7107 13.8928 19.2145C12.6591 19.7363 11.3494 20.0009 10 20.0009ZM10 0.0349954C8.65527 0.0349954 7.35 0.298675 6.12036 0.818755C4.93348 1.32077 3.8678 2.03915 2.953 2.95395C2.03817 3.86878 1.31979 4.93442 0.817778 6.12127C0.297699 7.35095 0.0340188 8.65625 0.0340188 10.001C0.0340188 11.3456 0.297699 12.651 0.817778 13.8806C1.31979 15.0675 2.03817 16.1331 2.953 17.048C3.86777 17.9627 4.93341 18.6811 6.12036 19.1832C7.34987 19.7032 8.65517 19.9669 10 19.9669C11.3448 19.9669 12.6501 19.7032 13.8796 19.1831C15.0666 18.6811 16.1322 17.9627 17.047 17.048C17.9619 16.133 18.6802 15.0674 19.1822 13.8806C19.7023 12.651 19.966 11.3457 19.966 10.001C19.966 8.65625 19.7023 7.35095 19.1822 6.12134C18.6802 4.93452 17.9619 3.86888 17.047 2.95398C16.1322 2.03918 15.0665 1.3208 13.8796 0.818789C12.6501 0.298675 11.3448 0.0349954 10 0.0349954ZM10 18.5435C7.71819 18.5435 5.57293 17.655 3.95945 16.0415C2.34597 14.428 1.45737 12.2828 1.45737 10.001C1.45737 7.71916 2.34594 5.5739 3.95945 3.96043C5.57293 2.34695 7.71819 1.45834 10 1.45834C12.2818 1.45834 14.427 2.34695 16.0405 3.96043C17.654 5.57394 18.5426 7.71916 18.5426 10.001C18.5426 12.2828 17.654 14.428 16.0405 16.0415C14.427 17.655 12.2818 18.5435 10 18.5435ZM10 1.49236C7.72727 1.49236 5.59058 2.37743 3.9835 3.98448C2.37645 5.59156 1.49138 7.72825 1.49138 10.001C1.49138 12.2737 2.37645 14.4104 3.9835 16.0174C5.59055 17.6245 7.72727 18.5095 10 18.5095C12.2727 18.5095 14.4094 17.6245 16.0165 16.0174C17.6235 14.4104 18.5086 12.2737 18.5086 10.001C18.5086 7.72825 17.6235 5.59153 16.0165 3.98448C14.4094 2.37739 12.2727 1.49236 10 1.49236Z" fill="#07359B"/>
<path d="M7.7895 13.6346C7.92615 13.7713 8.11149 13.848 8.30475 13.848C8.49804 13.848 8.68334 13.7713 8.81999 13.6346L15.0586 7.39604C15.3431 7.11147 15.3431 6.65011 15.0586 6.36554C14.774 6.08097 14.3126 6.08094 14.028 6.36554L8.30475 12.0889L5.97085 9.75495C5.68628 9.47034 5.22492 9.47034 4.94035 9.75495C4.65579 10.0395 4.65579 10.5009 4.94035 10.7854L7.7895 13.6346Z" fill="#07359B"/>
<path d="M8.30517 13.865C8.10599 13.865 7.91872 13.7874 7.77788 13.6466L4.92874 10.7974C4.63801 10.5066 4.63801 10.0336 4.92874 9.74282C5.06957 9.60195 5.25685 9.52438 5.45603 9.52438C5.65521 9.52438 5.84245 9.60195 5.98332 9.74282L8.30521 12.0647L14.0165 6.35341C14.1573 6.21254 14.3446 6.13501 14.5437 6.13501C14.7429 6.13501 14.9302 6.21257 15.071 6.35341C15.2119 6.49425 15.2895 6.68152 15.2895 6.8807C15.2895 7.07989 15.2119 7.26713 15.071 7.408L8.83246 13.6466C8.69166 13.7874 8.50439 13.865 8.30517 13.865ZM5.45603 9.55844C5.26593 9.55844 5.08723 9.63246 4.95282 9.7669C4.67536 10.0444 4.67536 10.4959 4.95282 10.7734L7.80197 13.6225C7.93637 13.7569 8.11508 13.8309 8.30517 13.8309C8.4953 13.8309 8.674 13.7569 8.80841 13.6225L15.047 7.38395C15.1814 7.24954 15.2554 7.0708 15.2554 6.88074C15.2554 6.69068 15.1814 6.51191 15.047 6.3775C14.9125 6.24305 14.7338 6.16906 14.5437 6.16906C14.3536 6.16906 14.1749 6.24309 14.0405 6.3775L8.30517 12.1128L5.95923 9.7669C5.82483 9.63246 5.64613 9.55844 5.45603 9.55844Z" fill="#07359B"/>
</g>
<defs>
<clipPath id="clip0">
<rect width="20" height="20" fill="white"/>
</clipPath>
</defs>
</svg>
