<svg width="512" height="512" viewBox="0 0 512 512" fill="none" xmlns="http://www.w3.org/2000/svg">
<path d="M256 504.5C393.243 504.5 504.5 393.243 504.5 256C504.5 118.757 393.243 7.5 256 7.5C118.757 7.5 7.5 118.757 7.5 256C7.5 393.243 118.757 504.5 256 504.5Z" fill="#07359B"/>
<path d="M256 7.5C251.564 7.5 247.156 7.621 242.777 7.851C373.873 14.725 478.055 123.193 478.055 256C478.055 388.807 373.873 497.276 242.778 504.149C247.157 504.379 251.564 504.5 256.001 504.5C393.244 504.5 504.501 393.243 504.501 256C504.501 118.757 393.243 7.5 256 7.5V7.5Z" fill="#2764EB"/>
<path d="M256 449.643C362.946 449.643 449.643 362.946 449.643 256C449.643 149.054 362.946 62.357 256 62.357C149.054 62.357 62.3571 149.054 62.3571 256C62.3571 362.946 149.054 449.643 256 449.643Z" fill="#F4FBFF"/>
<path d="M256 62.357C250.637 62.357 245.328 62.585 240.076 63.013C339.572 71.113 417.795 154.417 417.795 256C417.795 357.583 339.572 440.887 240.076 448.987C245.329 449.415 250.638 449.643 256 449.643C362.946 449.643 449.643 362.946 449.643 256C449.643 149.054 362.946 62.357 256 62.357V62.357Z" fill="#DAF1F4"/>
<path d="M256 276.018C267.056 276.018 276.018 267.056 276.018 256C276.018 244.944 267.056 235.982 256 235.982C244.944 235.982 235.982 244.944 235.982 256C235.982 267.056 244.944 276.018 256 276.018Z" fill="#FDD7AD"/>
<path d="M256 121.957C260.142 121.957 263.5 118.599 263.5 114.457V103.449C263.5 99.307 260.142 95.949 256 95.949C251.858 95.949 248.5 99.307 248.5 103.449V114.457C248.5 118.599 251.858 121.957 256 121.957Z" fill="black"/>
<path d="M368.767 142.996C365.838 140.067 361.089 140.066 358.161 142.996L350.377 150.779C347.447 153.708 347.447 158.457 350.376 161.386C351.841 162.85 353.76 163.583 355.68 163.583C357.599 163.583 359.519 162.851 360.983 161.387L368.767 153.603C371.695 150.674 371.695 145.925 368.767 142.996Z" fill="black"/>
<path d="M396.728 248.501C392.585 248.501 389.228 251.859 389.228 256.001C389.228 260.143 392.585 263.501 396.728 263.501H407.736C411.879 263.501 415.236 260.144 415.236 256.001C415.236 251.858 411.879 248.501 407.736 248.501H396.728Z" fill="black"/>
<path d="M360.405 350.376C357.475 347.448 352.727 347.448 349.798 350.376C346.869 353.306 346.869 358.054 349.798 360.983L357.581 368.766C359.046 370.23 360.966 370.962 362.885 370.962C364.804 370.962 366.724 370.23 368.189 368.766C371.118 365.836 371.118 361.088 368.189 358.159L360.405 350.376Z" fill="black"/>
<path d="M247.683 396.729V407.737C247.683 411.88 251.041 415.237 255.183 415.237C259.325 415.237 262.683 411.88 262.683 407.737V396.729C262.683 392.586 259.326 389.229 255.183 389.229C251.04 389.229 247.683 392.586 247.683 396.729Z" fill="black"/>
<path d="M150.201 349.798L142.417 357.581C139.488 360.51 139.488 365.259 142.417 368.187C143.881 369.652 145.801 370.384 147.72 370.384C149.639 370.384 151.559 369.652 153.023 368.188L160.807 360.405C163.736 357.476 163.736 352.727 160.807 349.799C157.879 346.87 153.13 346.871 150.201 349.798Z" fill="black"/>
<path d="M103.448 247.684C99.306 247.684 95.948 251.042 95.948 255.184C95.948 259.327 99.306 262.684 103.448 262.684H114.456C118.598 262.684 121.956 259.327 121.956 255.184C121.956 251.042 118.598 247.684 114.456 247.684H103.448Z" fill="black"/>
<path d="M161.386 150.202L153.602 142.418C150.672 139.489 145.925 139.49 142.995 142.418C140.066 145.347 140.067 150.096 142.995 153.025L150.779 160.808C152.244 162.273 154.163 163.005 156.082 163.005C158.001 163.005 159.921 162.273 161.386 160.808C164.315 157.879 164.314 153.131 161.386 150.202Z" fill="black"/>
<path d="M276.098 274.768L329.52 302.238C333.226 304.144 337.736 302.66 339.62 298.998C341.515 295.314 340.063 290.793 336.38 288.898L282.976 261.437C283.33 259.678 283.518 257.86 283.518 255.999C283.518 243.426 275.039 232.803 263.501 229.529V153.082C263.501 148.94 260.143 145.582 256.001 145.582C251.859 145.582 248.501 148.94 248.501 153.082V229.529C239.349 232.126 232.128 239.347 229.531 248.499H192.304C188.162 248.499 184.804 251.857 184.804 255.999C184.804 260.141 188.162 263.499 192.304 263.499H229.531C232.805 275.037 243.428 283.517 256.001 283.517C263.925 283.518 271.073 280.147 276.098 274.768V274.768ZM256 268.518C249.098 268.518 243.482 262.903 243.482 256C243.482 249.098 249.097 243.482 256 243.482C262.902 243.482 268.517 249.097 268.517 256C268.518 262.903 262.902 268.518 256 268.518Z" fill="black"/>
<path d="M449.643 248.486C453.773 248.17 456.865 244.566 456.549 240.435C452.69 190.042 430.117 143.263 392.987 108.714C355.663 73.984 307.014 54.857 256 54.857C145.09 54.857 54.8571 145.089 54.8571 256C54.8571 366.911 145.09 457.143 256 457.143C360.896 457.143 448.524 376.337 456.548 271.567C456.863 267.437 453.773 263.833 449.642 263.516C445.529 263.207 441.908 266.291 441.591 270.422C434.184 367.16 353.273 442.143 256 442.143C153.36 442.143 69.8571 358.64 69.8571 256C69.8571 153.36 153.36 69.857 256 69.857C303.208 69.857 348.229 87.557 382.769 119.696C417.131 151.67 438.022 194.956 441.591 241.581C441.908 245.709 445.498 248.809 449.643 248.486V248.486Z" fill="black"/>
<path d="M437.02 74.981C388.668 26.628 324.381 0 256 0C206.857 0 159.117 13.964 117.939 40.384C114.453 42.621 113.44 47.26 115.677 50.747C117.914 54.232 122.552 55.245 126.04 53.009C164.795 28.143 209.735 15 256 15C320.374 15 380.894 40.068 426.413 85.587C471.932 131.106 497 191.626 497 256C497 389.193 389.212 497 256 497C232.197 497 208.655 493.524 186.028 486.671C182.063 485.469 177.876 487.709 176.676 491.675C175.475 495.639 177.715 499.825 181.679 501.027C205.718 508.308 230.723 512 256 512C397.484 512 512 397.503 512 256C512 187.62 485.371 123.333 437.02 74.981Z" fill="black"/>
<path d="M158.756 476.559C71.428 437.998 15 351.423 15 256C15 183.892 46.911 116.157 102.55 70.161C105.742 67.522 106.191 62.795 103.551 59.602C100.913 56.411 96.186 55.962 92.992 58.6C33.895 107.455 0 179.404 0 256C0 357.36 59.937 449.321 152.696 490.282C153.681 490.717 154.71 490.923 155.722 490.923C158.602 490.923 161.348 489.255 162.587 486.45C164.26 482.661 162.545 478.233 158.756 476.559V476.559Z" fill="black"/>
</svg>
