<svg width="40" height="40" viewBox="0 0 40 40" fill="none" xmlns="http://www.w3.org/2000/svg">
<path d="M28.6784 14.6551C28.0284 14.0043 26.9717 14.0043 26.3217 14.6551L19.1667 21.8093L16.1783 18.8218C15.5283 18.171 14.4717 18.171 13.8217 18.8218C13.1708 19.4726 13.1708 20.5276 13.8217 21.1784L17.9883 25.3451C18.3133 25.6709 18.74 25.8335 19.1667 25.8335C19.5933 25.8335 20.02 25.6709 20.345 25.3451L28.6784 17.0118C29.3292 16.3609 29.3292 15.306 28.6784 14.6551Z" fill="#07359B"/>
<path d="M38.3333 18.3333C37.4133 18.3333 36.6667 19.08 36.6667 20C36.6667 29.19 29.19 36.6667 20 36.6667C10.81 36.6667 3.33333 29.19 3.33333 20C3.33333 10.81 10.81 3.33333 20 3.33333C24.4742 3.33333 28.6742 5.08167 31.8275 8.25667C32.475 8.91083 33.5308 8.91417 34.1842 8.265C34.8375 7.61667 34.8408 6.56167 34.1925 5.90833C30.4092 2.09833 25.3683 0 20 0C8.97167 0 0 8.97167 0 20C0 31.0283 8.97167 40 20 40C31.0283 40 40 31.0283 40 20C40 19.08 39.2533 18.3333 38.3333 18.3333Z" fill="#07359B"/>
</svg>
