<svg width="55" height="55" viewBox="0 0 55 55" fill="none" xmlns="http://www.w3.org/2000/svg">
<g clip-path="url(#clip0)">
<path d="M52.6258 38.0783L5.36249 46.7225C4.88955 46.7997 4.40534 46.6855 4.01669 46.4052C3.62803 46.1249 3.36687 45.7015 3.29083 45.2283L0.944159 32.2942C0.769601 31.3959 1.28106 30.5057 2.14499 30.2042C2.74083 30.0117 3.33666 29.8192 3.93249 29.6358C18.3881 25.0985 33.354 22.3855 48.4825 21.56C48.9408 21.5233 49.3992 21.4958 49.8575 21.4775C50.772 21.449 51.5652 22.1048 51.7092 23.0083L54.0558 35.9425C54.2416 36.9253 53.6053 37.8757 52.6258 38.0783Z" fill="#07359B"/>
<path d="M54.0558 35.9425L51.7091 23.0083C51.5652 22.1048 50.772 21.449 49.8575 21.4775C49.3991 21.4958 48.9408 21.5233 48.4825 21.56C48.2661 21.5719 48.0507 21.593 47.8344 21.6058C48.4255 21.8489 48.8502 22.3786 48.9591 23.0083L51.3058 35.9425C51.4916 36.9253 50.8553 37.8757 49.8758 38.0783L4.0929 46.4512C4.46445 46.7039 4.91964 46.8025 5.36248 46.7262L52.6258 38.082C53.607 37.8794 54.2438 36.9266 54.0558 35.9425Z" fill="white"/>
<path d="M8.70649 37.5247C9.97316 37.5247 11 36.5019 11 35.2403C11 33.9787 9.97316 32.956 8.70649 32.956C7.43983 32.956 6.41299 33.9787 6.41299 35.2403C6.41299 36.5019 7.43983 37.5247 8.70649 37.5247Z" fill="#FFDC00"/>
<path d="M45.4025 30.6973C46.6692 30.6973 47.696 29.6746 47.696 28.413C47.696 27.1514 46.6692 26.1287 45.4025 26.1287C44.1358 26.1287 43.109 27.1514 43.109 28.413C43.109 29.6746 44.1358 30.6973 45.4025 30.6973Z" fill="#FFDC00"/>
<path d="M37.6557 32.0082L17.7989 35.607C16.8049 35.7899 15.8503 35.1339 15.6649 34.1403L15.3367 32.3418C15.25 31.864 15.3569 31.3713 15.634 30.9725C15.9111 30.5737 16.3354 30.3015 16.8135 30.2161L36.6666 26.6136C37.6618 26.4314 38.6164 27.0899 38.7997 28.0848L39.1325 29.8833C39.3093 30.8774 38.6491 31.8274 37.6557 32.0082Z" fill="#F5F5F5"/>
<path d="M51.0125 38.3717L51.975 43.6141C52.153 44.6085 51.493 45.5595 50.4991 45.7407L45.0816 46.7216C44.0848 46.9015 43.1301 46.2418 42.9458 45.2457L41.9925 40.0207L51.0125 38.3717Z" fill="#1D1D1D"/>
<path d="M51.975 43.6141L51.0125 38.3717L48.3542 38.8584L49.2277 43.6141C49.4058 44.6085 48.7458 45.5595 47.7519 45.7407L43.7763 46.4603C44.1647 46.7071 44.6311 46.8003 45.0844 46.7216L50.5019 45.7407C51.4947 45.5582 52.1531 44.6076 51.975 43.6141Z" fill="#1D1D1D"/>
<path d="M48.4825 21.56C33.354 22.3855 18.3881 25.0985 3.9325 29.6358L5.90333 8.13084C5.97427 7.30081 6.58848 6.61919 7.40666 6.4625L37.1525 0.94417C37.9687 0.799408 38.7805 1.22034 39.1325 1.97084L48.4825 21.56Z" fill="white"/>
<path d="M39.1325 1.97084C38.7805 1.22034 37.9687 0.799408 37.1525 0.94417L35.7097 1.21184C36.0001 1.39736 36.2331 1.6602 36.3825 1.97084L45.7325 21.56C31.5902 22.3404 17.5876 24.7708 4.0095 28.8017L3.9325 29.6404C18.3881 25.1031 33.354 22.3901 48.4825 21.5646L39.1325 1.97084Z" fill="#A7C0F7"/>
<path d="M34.6417 10.5417L40.9594 5.25616C41.2158 5.04763 41.3401 4.71722 41.2847 4.3914C41.2293 4.06557 41.0029 3.79479 40.692 3.68268C40.3811 3.57057 40.0339 3.63449 39.7833 3.84999L33.4638 9.13824C33.3451 9.23794 33.2027 9.30548 33.0504 9.33441L29.0061 10.0833C28.541 10.1702 28.2185 10.5966 28.2615 11.0677C28.3045 11.5388 28.6989 11.8998 29.172 11.9011C29.2282 11.9011 29.2843 11.8962 29.3397 11.8864L33.3859 11.1357C33.8484 11.0484 34.2809 10.8439 34.6417 10.5417Z" fill="#1D1D1D"/>
<path d="M44.1961 12.0193L37.4128 13.2761C37.0444 13.345 36.694 13.4889 36.3834 13.6987L30.8761 17.4167C30.4559 17.6994 30.3444 18.2693 30.6272 18.6895C30.9099 19.1097 31.4798 19.2211 31.9 18.9383L37.4147 15.2167C37.5162 15.1475 37.6311 15.1003 37.752 15.0782L44.5298 13.8215C45.0277 13.7294 45.3567 13.251 45.2645 12.7531C45.1724 12.2552 44.6941 11.9263 44.1961 12.0184V12.0193Z" fill="#1D1D1D"/>
<path d="M23.7169 14.0782L21.1246 12.9369C20.5667 12.6899 19.9221 12.7394 19.4086 13.0689L16.7906 14.7428L16.1691 11.2118L18.1326 10.1118C18.574 9.86343 18.7306 9.30425 18.4823 8.86279C18.2339 8.42133 17.6748 8.26476 17.2333 8.51308L15.2707 9.61308C14.5808 10.0007 14.2127 10.7833 14.3541 11.5619L14.8967 14.6053L12.8691 13.5667C12.3279 13.2909 11.6847 13.3036 11.1549 13.6006L9.03281 14.7877C8.74691 14.9475 8.56799 15.2477 8.56344 15.5752C8.5589 15.9027 8.72942 16.2078 9.01078 16.3754C9.29213 16.5431 9.64158 16.548 9.92748 16.3882L12.0358 15.1965L14.1799 16.2892L10.9266 18.1152C10.4995 18.3524 10.1847 18.7504 10.0521 19.2207L9.0099 22.8635C8.94263 23.0975 8.97121 23.3487 9.08936 23.5616C9.2075 23.7745 9.40549 23.9316 9.63965 23.9983C9.72174 24.0211 9.80652 24.0329 9.89173 24.0332C10.3008 24.033 10.6602 23.7618 10.7726 23.3686L11.825 19.7157L15.7016 17.5478L16.7099 19.8119C16.8953 20.2313 17.2303 20.5666 17.6495 20.7524L20.3601 21.9441C20.661 22.0836 21.0138 22.0496 21.2826 21.8553C21.5514 21.661 21.6942 21.3366 21.6561 21.0071C21.618 20.6776 21.4049 20.3944 21.0989 20.2666L18.3773 19.0667L17.2837 16.6018L20.3839 14.6117L22.9771 15.7538C23.2768 15.886 23.6242 15.8482 23.8885 15.6548C24.1527 15.4613 24.2937 15.1416 24.2583 14.816C24.2229 14.4904 24.0166 14.2085 23.7169 14.0763V14.0782Z" fill="#1D1D1D"/>
<path d="M52.25 46.75H2.74999C1.73747 46.75 0.916656 47.5708 0.916656 48.5833V52.25C0.916656 53.2625 1.73747 54.0833 2.74999 54.0833H52.25C53.2625 54.0833 54.0833 53.2625 54.0833 52.25V48.5833C54.0833 47.5708 53.2625 46.75 52.25 46.75Z" fill="#395462"/>
<path d="M52.25 46.75H49.5C50.5125 46.75 51.3333 47.5708 51.3333 48.5833V52.25C51.3333 53.2625 50.5125 54.0833 49.5 54.0833H52.25C53.2625 54.0833 54.0833 53.2625 54.0833 52.25V48.5833C54.0833 47.5708 53.2625 46.75 52.25 46.75Z" fill="#37474F"/>
<path d="M8.70832 38.4422C8.90105 38.4423 9.0934 38.4251 9.28307 38.3909C10.9749 38.0849 12.1265 36.5019 11.8968 34.798C11.6671 33.0941 10.1374 31.8725 8.42488 32.0255C6.71239 32.1784 5.42338 33.6517 5.49925 35.3694C5.57512 37.087 6.98902 38.4409 8.70832 38.4422ZM7.57257 34.4667C7.77989 34.1659 8.09921 33.9608 8.45899 33.8974C8.5406 33.8821 8.62346 33.8745 8.70649 33.8745C9.37013 33.8731 9.9401 34.3458 10.0613 34.9983C10.1258 35.356 10.0453 35.7247 9.83758 36.0229C9.62981 36.3211 9.31188 36.5244 8.95399 36.5878C8.20784 36.7261 7.49071 36.2338 7.35165 35.4878C7.28549 35.1316 7.36508 34.7637 7.57257 34.4667Z" fill="#1D1D1D"/>
<path d="M45.4016 31.6149C45.5943 31.6145 45.7866 31.5974 45.9763 31.5636C47.6676 31.2576 48.8189 29.675 48.5892 27.9716C48.3595 26.2683 46.8303 25.0471 45.1183 25.2C43.4063 25.3529 42.1177 26.8257 42.1935 28.5429C42.2693 30.26 43.6828 31.6135 45.4016 31.6149ZM44.2695 27.6357C44.4778 27.3361 44.7967 27.1317 45.1559 27.0673C45.2376 27.0528 45.3204 27.0455 45.4034 27.0453C46.0664 27.0443 46.6358 27.5165 46.7573 28.1682C46.8221 28.5261 46.7417 28.895 46.5339 29.1934C46.3261 29.4919 46.0081 29.6953 45.65 29.7587C44.9042 29.8964 44.1876 29.4042 44.0486 28.6587C43.982 28.3018 44.0616 27.9332 44.2695 27.6357Z" fill="#1D1D1D"/>
<path d="M14.7629 34.3007C15.0053 35.6058 16.1434 36.5528 17.4707 36.5539C17.6355 36.5537 17.7999 36.539 17.9621 36.5099L37.8189 32.9083C38.5362 32.7792 39.1728 32.37 39.5882 31.7711C40.0036 31.1722 40.1639 30.4327 40.0336 29.7156L39.7054 27.9171C39.4275 26.4271 37.999 25.4408 36.5072 25.7088L16.6494 29.3104C15.1574 29.5817 14.1666 31.0097 14.4347 32.5022L14.7629 34.3007ZM26.6603 33.0697L23.0487 33.7242L22.3932 30.1336L26.004 29.4791L26.6603 33.0697ZM27.8089 29.15L31.4197 28.4955L32.076 32.0861L28.4643 32.7406L27.8089 29.15ZM36.8344 27.5147C36.8888 27.504 36.944 27.4988 36.9994 27.4991C37.4413 27.4982 37.821 27.8127 37.9023 28.2471L38.2305 30.0456C38.2734 30.2841 38.2196 30.5299 38.081 30.7287C37.9424 30.9276 37.7303 31.063 37.4917 31.1052L33.88 31.7597L33.2237 28.1682L36.8344 27.5147ZM16.3854 31.493C16.5241 31.2926 16.7369 31.1558 16.9767 31.1126L20.5892 30.4581L21.2447 34.0496L17.6357 34.7032C17.1381 34.7957 16.6596 34.4674 16.5669 33.9698L16.2387 32.175C16.194 31.9378 16.2469 31.6925 16.3854 31.4948V31.493Z" fill="#1D1D1D"/>
<path d="M52.25 45.8334H52.1519C52.7633 45.202 53.0331 44.3149 52.877 43.45L52.0795 39.1087L52.7954 38.9785C54.2728 38.6867 55.2373 37.2566 54.9541 35.7775L52.6166 22.8433C52.3881 21.4894 51.1921 20.5141 49.8199 20.5627C49.5623 20.5746 49.3056 20.5984 49.0481 20.6122L39.9602 1.57849C39.4263 0.456112 38.2088 -0.17177 36.9847 0.0439934L7.23523 5.56325C6.0176 5.80028 5.1028 6.81295 4.99032 8.04833L3.07357 28.9667C2.67115 29.095 2.26415 29.2078 1.86265 29.3388C0.566892 29.7821 -0.2069 31.1095 0.0458184 32.4555L1.88832 42.6415V42.6718C1.88832 42.6828 1.89657 42.691 1.89932 42.702L2.38332 45.3897C2.41372 45.5489 2.45758 45.7053 2.5144 45.8572C1.09598 45.9761 0.00404736 47.16 -1.4861e-05 48.5834V52.25C-1.4861e-05 53.7688 1.2312 55 2.74998 55H52.25C53.7688 55 55 53.7688 55 52.25V48.5834C55 47.0646 53.7688 45.8334 52.25 45.8334ZM41.2555 41.0878L42.0447 45.4117C42.0736 45.5554 42.1144 45.6964 42.1666 45.8334H15.3138L41.2555 41.0878ZM51.0739 43.7809C51.1597 44.2747 50.8331 44.7459 50.3406 44.8388L44.9322 45.8187C44.692 45.8656 44.443 45.8145 44.2407 45.6767C44.0384 45.539 43.8996 45.326 43.8551 45.0854L43.0659 40.7614L50.2837 39.4405L51.0739 43.7809ZM6.81632 8.21241C6.84899 7.79139 7.15956 7.44439 7.5744 7.36541L37.3147 1.84799C37.7249 1.77332 38.1333 1.98717 38.3056 2.36683L47.0745 20.7387C32.7882 21.6319 18.656 24.1975 4.9674 28.3828L6.81632 8.21241ZM2.42915 31.075C17.7963 26.0788 33.7625 23.1593 49.9033 22.3942C50.3554 22.3932 50.7407 22.7221 50.8108 23.1688L52.4947 32.4784L8.48648 40.5341C8.02614 40.6249 7.70867 41.0486 7.75089 41.5159C7.79312 41.9832 8.1814 42.3432 8.65057 42.35C8.7062 42.3501 8.76173 42.3452 8.81648 42.3353L52.8211 34.2833L53.1501 36.1029C53.2553 36.5876 52.9494 37.0663 52.4654 37.1745L5.20207 45.8196C4.98567 45.8555 4.76379 45.8059 4.58332 45.6812C4.37582 45.5355 4.23495 45.3132 4.1919 45.0634L3.8619 43.2392L5.2039 42.9917C5.5325 42.939 5.80676 42.7124 5.92044 42.3997C6.03411 42.0869 5.96934 41.7371 5.75122 41.4857C5.5331 41.2344 5.1959 41.121 4.87023 41.1895L3.53282 41.4333L1.84982 32.131C1.75212 31.6837 1.99943 31.2329 2.42915 31.075ZM53.1666 52.25C53.1666 52.7563 52.7562 53.1667 52.25 53.1667H2.74998C2.24372 53.1667 1.83332 52.7563 1.83332 52.25V48.5834C1.83332 48.0771 2.24372 47.6667 2.74998 47.6667H52.25C52.7562 47.6667 53.1666 48.0771 53.1666 48.5834V52.25Z" fill="#1D1D1D"/>
</g>
<defs>
<clipPath id="clip0">
<rect width="55" height="55" fill="white"/>
</clipPath>
</defs>
</svg>
