<svg width="45" height="45" viewBox="0 0 45 45" fill="none" xmlns="http://www.w3.org/2000/svg">
<path d="M44.0241 18.7627L41.041 6.83025C40.8546 6.12176 40.5004 5.50644 39.997 5.003C39.4936 4.49956 38.8782 4.14528 38.1697 3.95895L26.2373 0.97594C24.895 0.640373 23.4594 1.03184 22.4712 2.01999L1.16058 23.3306C-0.386818 24.878 -0.386905 27.3764 1.16058 28.9239L16.0762 43.8395C17.6236 45.387 20.1221 45.3869 21.6695 43.8395L42.9801 22.5289C43.9682 21.5407 44.3597 20.105 44.0241 18.7627ZM29.1272 15.8728C27.5797 14.3253 27.5798 11.8268 29.1272 10.2794C30.6747 8.73194 33.173 8.73194 34.7206 10.2794C36.2681 11.8269 36.2681 14.3252 34.7206 15.8728C33.1732 17.4202 30.6747 17.4203 29.1272 15.8728Z" fill="#1448BB"/>
<path d="M42.9799 22.5288L21.6693 43.8394C20.1219 45.3868 17.6235 45.3869 16.0759 43.8394L8.61816 36.3816L29.127 15.8728C30.6745 17.4203 33.173 17.4202 34.7204 15.8728C36.2679 14.3253 36.2679 11.827 34.7204 10.2794L39.9968 5.00299C40.5002 5.50643 40.8545 6.12175 41.0408 6.83024L44.0239 18.7627C44.3596 20.105 43.9681 21.5407 42.9799 22.5288Z" fill="#07359B"/>
<path d="M16.076 21.4661C14.5339 19.924 14.5339 17.415 16.076 15.8728C17.6182 14.3306 20.1272 14.3307 21.6694 15.8728C23.2116 17.4149 23.2115 19.9239 21.6694 21.4661C20.1273 23.0084 17.6182 23.0083 16.076 21.4661ZM19.8049 17.7372C19.2905 17.2229 18.4548 17.2229 17.9405 17.7372C17.4261 18.2515 17.4261 19.0873 17.9405 19.6016C18.4548 20.116 19.2905 20.116 19.8049 19.6016C20.3192 19.0873 20.3192 18.2515 19.8049 17.7372Z" fill="#FFE470"/>
<path d="M17.9405 34.5172C16.3984 32.9751 16.3984 30.4661 17.9405 28.9238C19.4827 27.3817 21.9917 27.3817 23.5339 28.9238C25.076 30.466 25.076 32.975 23.5339 34.5172C21.9917 36.0593 19.4827 36.0593 17.9405 34.5172ZM21.6694 30.7884C21.155 30.274 20.3193 30.274 19.805 30.7884C19.2906 31.3027 19.2906 32.1384 19.805 32.6528C20.3193 33.1671 21.155 33.1671 21.6694 32.6528C22.1838 32.1384 22.1838 31.3027 21.6694 30.7884Z" fill="#FFD400"/>
<path d="M28.3441 25.5679L18.3134 26.6865L11.5642 27.4323C11.1352 27.4882 10.7624 27.3392 10.4827 27.0594C10.2777 26.8544 10.1473 26.5746 10.1098 26.2764C10.0167 25.5491 10.5574 24.8966 11.2658 24.8221L21.2965 23.7035L28.0457 22.9576C28.773 22.8645 29.4254 23.4051 29.5001 24.1136C29.5934 24.8407 29.0526 25.4932 28.3441 25.5679Z" fill="#FFE470"/>
<path d="M28.3442 25.5679L18.3135 26.6865L21.2966 23.7034L28.0459 22.9576C28.7732 22.8644 29.4256 23.405 29.5002 24.1135C29.5934 24.8407 29.0527 25.4932 28.3442 25.5679Z" fill="#FFD400"/>
<path d="M44.6085 2.25598L34.7206 12.1439C34.1985 12.666 33.3782 12.666 32.8562 12.1439C32.3341 11.6219 32.3341 10.8016 32.8562 10.2795L42.7441 0.391553C43.2661 -0.130518 44.0864 -0.130518 44.6085 0.391553C45.1306 0.913623 45.1306 1.73391 44.6085 2.25598Z" fill="#3E5959"/>
<path d="M32.856 12.1439L44.6083 0.391541C45.1304 0.913611 45.1304 1.73389 44.6083 2.25596L34.7205 12.1439C34.1983 12.666 33.3781 12.666 32.856 12.1439Z" fill="#384949"/>
</svg>
