<svg width="50" height="50" viewBox="0 0 50 50" fill="none" xmlns="http://www.w3.org/2000/svg">
<rect width="50" height="50" rx="25" fill="#F4F5F9" fill-opacity="0.5"/>
<g clip-path="url(#clip0)">
<path d="M26.0347 26.6822H25.2624V22.5177C25.2624 22.0142 24.8527 21.6045 24.3492 21.6045H22.843C22.3394 21.6045 21.9299 22.0142 21.9299 22.5177V26.6822H21.1575C20.867 26.6822 20.6137 26.8473 20.4963 27.1131C20.3791 27.379 20.4281 27.6773 20.624 27.8919L22.857 30.3365C23.0462 30.5435 23.3155 30.6624 23.5961 30.6624C23.8766 30.6624 24.1459 30.5435 24.3351 30.3365L26.5681 27.8919C26.764 27.6773 26.813 27.379 26.6958 27.1132C26.5785 26.8473 26.3253 26.6822 26.0347 26.6822ZM23.7583 29.8094C23.7014 29.8719 23.6322 29.881 23.596 29.881C23.5598 29.881 23.4907 29.8719 23.4338 29.8096L21.2907 27.4634H22.1864C22.4757 27.4634 22.7111 27.228 22.7111 26.9387V22.5177C22.7111 22.4449 22.7703 22.3857 22.843 22.3857H24.3492C24.422 22.3857 24.4812 22.4449 24.4812 22.5177V26.9388C24.4812 27.228 24.7164 27.4634 25.0058 27.4634H25.9013L23.7583 29.8094Z" fill="#1D1D1D" fill-opacity="0.8"/>
<path d="M26.1627 31.2343H21.0291C20.8133 31.2343 20.6384 31.4093 20.6384 31.6249C20.6384 31.8406 20.8133 32.0155 21.0291 32.0155H26.1627C26.3783 32.0155 26.5533 31.8406 26.5533 31.6249C26.5533 31.4093 26.3783 31.2343 26.1627 31.2343Z" fill="#1D1D1D" fill-opacity="0.8"/>
<path d="M30.1231 23.3661C30.1133 23.3426 30.1013 23.3198 30.0872 23.2988C30.0732 23.2773 30.0567 23.2574 30.0387 23.2394C30.0209 23.2214 30.0006 23.2051 29.9794 23.1906C29.958 23.1766 29.9353 23.1648 29.9118 23.1551C29.8884 23.1453 29.8639 23.1375 29.8388 23.1323C29.7885 23.1222 29.7365 23.1226 29.6861 23.1323C29.6611 23.1375 29.6365 23.1453 29.613 23.1551C29.5895 23.1648 29.5665 23.1766 29.5454 23.1906C29.5244 23.2051 29.5041 23.2214 29.4861 23.2394C29.468 23.2574 29.4517 23.2773 29.4377 23.2988C29.4235 23.3198 29.4114 23.3426 29.4017 23.3661C29.3919 23.3899 29.3844 23.4145 29.3794 23.4395C29.3744 23.4645 29.3721 23.4903 29.3721 23.5156C29.3721 23.5409 29.3744 23.5667 29.3794 23.5918C29.3844 23.6168 29.3919 23.6413 29.4017 23.6648C29.4114 23.6887 29.4235 23.7112 29.4377 23.7324C29.4517 23.7538 29.468 23.7738 29.4861 23.7918C29.5587 23.8644 29.6595 23.9062 29.7622 23.9062C29.788 23.9062 29.8134 23.9038 29.8388 23.8988C29.8639 23.8937 29.8884 23.8859 29.9118 23.8762C29.9353 23.8664 29.958 23.8544 29.9794 23.8402C30.0006 23.8261 30.0209 23.8098 30.0387 23.7918C30.1115 23.7192 30.1529 23.6185 30.1529 23.5156C30.1529 23.4903 30.1506 23.4645 30.1454 23.4395C30.1404 23.4145 30.1329 23.3899 30.1231 23.3661Z" fill="#1D1D1D" fill-opacity="0.8"/>
<path d="M29.2198 15H20.641C19.6661 15 18.873 15.7932 18.873 16.768V18.5335L17.4721 20.1094C17.4553 20.1282 17.4391 20.1474 17.4232 20.1669C17.4171 20.1744 17.4113 20.182 17.4054 20.1897C17.3961 20.2016 17.3866 20.2135 17.3776 20.2257C17.3698 20.2361 17.3625 20.2467 17.3549 20.2574C17.3483 20.2667 17.3416 20.276 17.3352 20.2855C17.3265 20.2983 17.3181 20.3114 17.3097 20.3244C17.3051 20.3316 17.3004 20.3387 17.296 20.3461C17.2865 20.3612 17.2774 20.3767 17.2684 20.3922C17.2655 20.3972 17.2626 20.4022 17.2598 20.4073C17.2499 20.4248 17.2403 20.4427 17.231 20.4605C17.2296 20.4634 17.2281 20.4662 17.2267 20.4691C17.2165 20.4889 17.2067 20.5089 17.1974 20.5292C17.197 20.5299 17.1967 20.5309 17.1962 20.5318C17.0934 20.755 17.0386 20.9995 17.0386 21.2495V33.1187C17.0386 34.156 17.8824 35 18.9198 35H28.2718C29.287 35 30.1163 34.1917 30.1514 33.185C31.1105 33.1667 31.8852 32.3813 31.8852 31.418V17.6654C31.8852 16.1957 30.6895 15 29.2198 15V15ZM20.2736 18.1337V20.1532C20.2736 20.2644 20.1831 20.3549 20.0719 20.3549H18.2991L19.5555 18.9417C19.5555 18.9415 19.5555 18.9415 19.5557 18.9415L20.2162 18.1984L20.2736 18.1337ZM31.104 31.418C31.104 31.9501 30.6807 32.3851 30.153 32.404V25.0781C30.153 24.8624 29.9782 24.6875 29.7624 24.6875C29.5467 24.6875 29.3718 24.8624 29.3718 25.0781V33.1187C29.3718 33.7253 28.8783 34.2188 28.2719 34.2188H18.9198C18.3133 34.2188 17.8198 33.7253 17.8198 33.1187V21.2495C17.8198 21.2114 17.823 21.1737 17.8276 21.1362H20.0719C20.6139 21.1362 21.0548 20.6952 21.0548 20.1532V17.5198C21.1215 17.5049 21.19 17.4969 21.2595 17.4969H28.2718C28.8783 17.4969 29.3718 17.9904 29.3718 18.597V21.9531C29.3718 22.1689 29.5467 22.3438 29.7624 22.3438C29.9782 22.3438 30.153 22.1689 30.153 21.9531V18.597C30.153 17.5597 29.3091 16.7157 28.2718 16.7157H21.2595C21.1983 16.7157 21.1374 16.7191 21.0771 16.7255C20.8725 16.7473 20.6747 16.8062 20.4927 16.8971C20.4915 16.8977 20.4901 16.898 20.4889 16.8987C20.4874 16.8994 20.486 16.9003 20.4846 16.9009C20.4709 16.908 20.4575 16.9153 20.4439 16.9226C20.432 16.9292 20.4201 16.9354 20.4083 16.9421C20.3963 16.949 20.3844 16.9562 20.3725 16.9635C20.3592 16.9714 20.3461 16.9794 20.3331 16.9878C20.3227 16.9943 20.3123 17.0012 20.3021 17.0082C20.2879 17.0177 20.2739 17.0274 20.26 17.0374C20.2509 17.0438 20.2419 17.0505 20.2328 17.0572C20.2182 17.0682 20.2037 17.0793 20.1894 17.0908C20.1813 17.0973 20.173 17.1037 20.1651 17.1104C20.1503 17.1227 20.136 17.1352 20.1216 17.1478C20.1141 17.1544 20.1067 17.1608 20.0993 17.1675C20.0844 17.1812 20.0697 17.1954 20.0552 17.2098C20.049 17.2159 20.0426 17.2218 20.0365 17.2281C20.0162 17.2487 19.9965 17.2696 19.9773 17.2913C19.9771 17.2914 19.977 17.2916 19.9768 17.2917L19.6542 17.6546V16.768C19.6542 16.2239 20.0969 15.7812 20.641 15.7812H29.2198C30.2588 15.7812 31.104 16.6264 31.104 17.6654V31.418Z" fill="#1D1D1D" fill-opacity="0.8"/>
</g>
<defs>
<clipPath id="clip0">
<rect width="20" height="20" fill="white" transform="translate(17 15)"/>
</clipPath>
</defs>
</svg>
