<svg width="14" height="14" viewBox="0 0 14 14" fill="none" xmlns="http://www.w3.org/2000/svg">
<g clip-path="url(#clip0)">
<path d="M13.5989 6.83811C13.3761 6.83811 13.1978 7.01638 13.1978 7.23921V10.8878C13.1978 11.8801 12.3896 12.6853 11.4003 12.6853H2.59975C1.60739 12.6853 0.802207 11.8772 0.802207 10.8878V7.17979C0.802207 6.95695 0.623939 6.77869 0.401104 6.77869C0.178268 6.77869 0 6.95695 0 7.17979V10.8878C0 12.3228 1.16766 13.4875 2.59975 13.4875H11.4003C12.8353 13.4875 14 12.3199 14 10.8878V7.23921C14 7.01935 13.8217 6.83811 13.5989 6.83811Z" fill="#1D1D1D" fill-opacity="0.8"/>
<path d="M6.71767 10.3024C6.79492 10.3797 6.89891 10.4213 6.99993 10.4213C7.10095 10.4213 7.20494 10.3827 7.28219 10.3024L9.83142 7.75321C9.98889 7.59574 9.98889 7.34319 9.83142 7.18572C9.67395 7.02825 9.42141 7.02825 9.26394 7.18572L7.40103 9.05159V0.913646C7.40103 0.690811 7.22277 0.512543 6.99993 0.512543C6.7771 0.512543 6.59883 0.690811 6.59883 0.913646V9.05159L4.73295 7.18572C4.57548 7.02825 4.32294 7.02825 4.16547 7.18572C4.008 7.34319 4.008 7.59574 4.16547 7.75321L6.71767 10.3024Z" fill="#1D1D1D" fill-opacity="0.8"/>
</g>
<defs>
<clipPath id="clip0">
<rect width="14" height="14" fill="white"/>
</clipPath>
</defs>
</svg>
