<svg width="512" height="512" x="0" y="0" viewBox="0 0 512 512" style="enable-background:new 0 0 512 512" xml:space="preserve" class=""><g><g xmlns="http://www.w3.org/2000/svg"><g><path d="m116.689 74.399c55.909 0 101.233 45.323 101.233 101.233 0 34.945-17.706 65.754-44.636 83.946.096 9.354 1.672 26.687 10.935 40.366 2.15 3.174-.371 7.406-4.179 6.964-14.005-1.627-38.744-7.79-53.883-30.488-3.118.289-6.276.444-9.47.444-55.909 0-101.233-45.324-101.233-101.233 0-55.909 45.324-101.232 101.233-101.232z" fill="#f9f3f1" data-original="#f9f3f1" style="" class=""></path></g><g><path d="m173.284 259.575c.101 9.358 1.67 26.686 10.938 40.37 2.153 3.17-.372 7.406-4.176 6.963-3.985-.463-8.845-1.298-14.108-2.777-.111-.231-.241-.463-.392-.695-6.676-9.861-8.511-28.211-9.054-41.183-.293-7.012 2.805-13.686 8.181-18.198 22.129-18.571 36.201-46.436 36.201-77.588 0-35.118-17.891-66.07-45.049-84.222 36.476 15.295 62.095 51.348 62.095 93.389 0 34.947-17.699 65.749-44.636 83.941z" fill="#efe2dd" data-original="#efe2dd" style="" class=""></path></g><g><path d="m213.44 335.893c11.499-7.036 25.494-3.347 36.227 3.194 4.458 2.717 8.649 5.842 12.911 8.85 10.464 7.385 20.082 15.507 29.696 23.846 3.076 2.667 6.572 5.241 10.733 5.739 5.871.702 10.626-4.517 13.447-9.043 32.827-52.664 62.357-107.015 88.651-163.138 2.263-4.829 4.055-11.658.272-16.203-2.681-3.221-6.743-4.754-10.654-5.883-12.227-3.531-24.275-7.181-36.164-11.944-4.843-1.94-9.744-3.756-14.45-6.018-11.328-5.447-22.037-15.183-22.389-28.659-.488-18.643 9.359-40.756 16.928-57.827 9.479-21.379 21.718-41.561 36.9-59.376 12.107-14.206 34.722-15.913 51.522-4.046 6.429 4.541 14.004 10.33 22.87 17.708 0 0 54.999 44.682 45.517 123.858-3.192 26.654-11.552 52.675-20.976 77.721-5.089 13.525-10.657 26.87-16.544 40.067-7.122 15.966-14.781 31.694-23.014 47.118-14.833 27.791-31.878 55.032-50.159 80.661-16.897 23.689-35.291 47.071-57.416 66.114-.775.667-1.555 1.328-2.341 1.982-61.274 51.031-128.686 29.193-128.686 29.193-11.015-3.425-19.993-6.632-27.301-9.555-19.097-7.64-29.969-27.544-24.636-45.432 6.688-22.43 16.963-43.68 29.744-63.264 10.208-15.637 23.404-35.929 39.312-45.663z" fill="#07359b" data-original="#7acaa6" style="" class=""></path></g><g><path d="m495.462 156.949c-3.2 26.655-11.552 52.677-20.98 77.722-5.092 13.524-10.656 26.877-16.543 40.069-7.124 15.969-14.782 31.697-23.013 47.122-14.832 27.792-31.878 55.031-50.161 80.66-16.895 23.687-35.289 47.072-57.416 66.11-.775.664-1.56 1.328-2.345 1.982-61.27 51.036-128.678 29.191-128.678 29.191-11.018-3.421-19.994-6.631-27.309-9.549-5.373-2.154-10.103-5.273-13.997-9.056 6.973 2.737 15.406 5.705 25.569 8.865 0 0 67.408 21.846 128.688-29.191.785-.654 1.56-1.318 2.334-1.983 22.127-19.038 40.521-42.423 57.416-66.11 18.283-25.629 35.329-52.868 50.161-80.66 8.231-15.426 15.889-31.153 23.013-47.122 5.887-13.192 11.461-26.545 16.543-40.068 9.428-25.045 17.79-51.067 20.98-77.722 9.479-79.171-45.522-123.858-45.522-123.858-5.997-4.991-11.401-9.247-16.261-12.89 3.16 1.238 6.229 2.878 9.127 4.93 6.43 4.538 14.007 10.324 22.872 17.7-.001 0 55 44.687 45.522 123.858z" fill="#57a1be" data-original="#57be92" style="" class=""></path></g><g><path d="m67.879 157.47h22.595c4.448 0 8.053-3.606 8.053-8.053v-22.596c0-4.448 3.606-8.053 8.053-8.053h20.216c4.448 0 8.053 3.606 8.053 8.053v22.596c0 4.448 3.606 8.053 8.053 8.053h22.598c4.448 0 8.053 3.606 8.053 8.053v20.216c0 4.448-3.606 8.053-8.053 8.053h-22.596c-4.448 0-8.053 3.606-8.053 8.053v22.595c0 4.448-3.606 8.053-8.053 8.053h-20.216c-4.448 0-8.053-3.606-8.053-8.053v-22.595c0-4.448-3.606-8.053-8.053-8.053h-22.597c-4.448 0-8.053-3.606-8.053-8.053v-20.216c-.001-4.447 3.605-8.053 8.053-8.053z" fill="#ee6161" data-original="#ee6161" style=""></path></g><g><path d="m122.78 193.797h20.125c-4.448 0-8.05 3.602-8.05 8.05v22.6c0 4.448-3.612 8.05-8.06 8.05h-20.125c4.448 0 8.05-3.602 8.05-8.05v-22.6c0-4.447 3.613-8.05 8.06-8.05z" fill="#e94444" data-original="#e94444" style=""></path></g><g><path d="m142.905 157.472h-20.125c-4.448 0-8.06-3.612-8.06-8.06v-22.59c0-4.448-3.602-8.05-8.05-8.05h20.125c4.448 0 8.06 3.602 8.06 8.05v22.59c0 4.448 3.603 8.06 8.05 8.06z" fill="#e94444" data-original="#e94444" style=""></path></g><g><path d="m173.555 165.522v20.215c0 4.447-3.612 8.06-8.06 8.06h-20.125c4.448 0 8.05-3.613 8.05-8.06v-20.215c0-4.448-3.602-8.05-8.05-8.05h20.125c4.448 0 8.06 3.602 8.06 8.05z" fill="#e94444" data-original="#e94444" style=""></path></g><g><path d="m482.737 61.467c-13.099-21.963-27.433-33.739-27.968-34.173-8.343-6.944-16.197-13.024-23.344-18.072-19.983-14.115-47.051-11.781-61.621 5.315-15.097 17.716-27.901 38.31-38.055 61.212l-.11.248c-8.017 18.08-17.993 40.581-17.464 60.835.378 14.443 10.096 27.296 26.663 35.263 3.922 1.886 40.614 15.184 51.79 18.411 2.647.764 5.542 1.774 6.947 3.461.802.964.612 4.081-1.305 8.173-18.72 39.957-37.135 75.439-57.951 111.668-2.076 3.614-.83 8.227 2.784 10.303 3.614 2.077 8.227.831 10.303-2.784 21.03-36.601 39.629-72.438 58.531-112.783 4.508-9.622 4.237-18.228-.763-24.234-4.016-4.824-9.513-6.905-14.36-8.305-10.825-3.126-46.011-15.865-49.437-17.512-5.341-2.568-17.797-9.858-18.116-22.054-.441-16.853 8.771-37.629 16.173-54.323l.11-.248c9.565-21.572 21.591-40.93 35.745-57.539 9.557-11.214 27.753-12.434 41.424-2.777 6.823 4.819 14.358 10.655 22.454 17.392.131.107 13.185 10.921 24.91 30.773 15.571 26.364 21.588 55.412 17.884 86.339-3.326 27.765-12.727 55.18-20.546 75.961-4.769 12.673-10.124 25.643-16.374 39.65-7.138 16.002-14.802 31.694-22.779 46.639-14.396 26.973-31.1 53.833-49.645 79.832-8.2 11.495-16.656 22.82-25.763 33.617-4.949 5.867-10.083 11.581-15.455 17.067-26.952 27.527-60.084 46.323-99.397 47.963-23.033.961-39.212-4.107-39.443-4.181-9.985-3.105-18.981-6.253-26.739-9.356-15.541-6.217-24.417-22.149-20.206-36.269 6.235-20.912 15.936-41.535 28.832-61.297l.144-.221c9.981-15.295 22.403-34.33 36.784-43.13 10.405-6.368 23.3.117 28.361 3.201 3.247 1.979 33.077 24.57 41.589 31.953 3.811 3.305 8.548 6.785 14.781 7.53 7.765.929 15.128-3.527 20.748-12.543 4.254-6.825 8.516-13.78 12.665-20.671 2.15-3.57.998-8.208-2.573-10.358-3.571-2.151-8.208-.998-10.358 2.573-4.109 6.825-8.33 13.713-12.543 20.472-2.39 3.835-4.899 5.687-6.147 5.542-2.181-.261-4.603-2.141-6.684-3.947-8.788-7.621-39.907-31.173-43.625-33.439-15.696-9.567-31.768-10.728-44.093-3.187-17.284 10.576-30.737 31.191-41.546 47.756l-.144.221c-13.691 20.979-24.006 42.927-30.657 65.233-6.418 21.527 6.349 45.507 29.065 54.595 8.126 3.25 17.5 6.533 27.778 9.728.682.221 15.75 5.012 38.111 5.012 1.903 0 3.859-.035 5.864-.11 15.001-.563 29.921-3.36 44.1-8.294 9.135-3.179 17.955-7.247 26.312-12.118 34.426-20.065 59.725-52.611 82.527-84.577 18.922-26.527 35.971-53.944 50.673-81.49 8.143-15.257 15.965-31.271 23.247-47.596 6.372-14.284 11.841-27.526 16.716-40.484 8.118-21.577 17.887-50.11 21.406-79.481 5.155-43.013-8.145-76.155-20.21-96.385z" fill="#000000" data-original="#000000" style="" class=""></path><path d="m106.581 240.043h20.217c8.602 0 15.6-6.998 15.6-15.6v-22.596c0-.279.227-.507.507-.507h22.595c8.602 0 15.6-6.998 15.6-15.6v-20.217c0-8.602-6.998-15.6-15.6-15.6h-22.596c-.28 0-.507-.227-.507-.507v-22.596c0-8.602-6.998-15.6-15.6-15.6h-20.217c-8.602 0-15.6 6.998-15.6 15.6v22.596c0 .28-.227.507-.507.507h-22.595c-8.602 0-15.6 6.998-15.6 15.6v20.217c0 8.602 6.998 15.6 15.6 15.6h22.596c.279 0 .507.228.507.507v22.596c0 8.602 6.998 15.6 15.6 15.6zm-16.107-53.796h-22.596c-.279 0-.507-.227-.507-.507v-20.217c0-.28.227-.506.507-.506h22.596c8.602 0 15.6-6.998 15.6-15.6v-22.596c0-.28.227-.507.507-.507h20.217c.28 0 .507.227.507.507v22.596c0 8.602 6.998 15.6 15.6 15.6h22.595c.28 0 .507.227.507.506v20.217c0 .28-.227.507-.507.507h-22.596c-8.602 0-15.6 6.998-15.6 15.6v22.596c0 .279-.227.507-.507.507h-20.217c-.28 0-.507-.228-.507-.507v-22.596c.001-8.602-6.997-15.6-15.599-15.6z" fill="#000000" data-original="#000000" style="" class=""></path><path d="m180.605 314.488c4.169 0 7.988-2.126 10.196-5.764 2.472-4.072 2.345-9.058-.332-13.011-7.041-10.399-9.036-23.534-9.511-32.308 27.95-20.486 44.51-52.986 44.51-87.773 0-24.494-7.95-47.623-22.989-66.887-2.565-3.285-7.308-3.87-10.593-1.304-3.286 2.565-3.87 7.307-1.304 10.593 12.948 16.586 19.793 36.503 19.793 57.599 0 31.173-15.444 60.217-41.314 77.693-2.1 1.418-3.348 3.796-3.322 6.331.09 8.812 1.432 24.636 8.807 38.768-12.699-2.472-30.649-9.008-42.109-26.191-1.538-2.306-4.219-3.583-6.976-3.327-2.945.273-5.897.412-8.773.412-51.659 0-93.686-42.027-93.686-93.686s42.027-93.686 93.686-93.686c17.703 0 34.938 4.96 49.842 14.344 3.527 2.222 8.187 1.162 10.407-2.365 2.221-3.527 1.162-8.187-2.365-10.407-17.315-10.902-37.332-16.664-57.884-16.664-59.981 0-108.78 48.798-108.78 108.78 0 59.981 48.798 108.78 108.78 108.78 1.91 0 3.846-.052 5.79-.156 17.029 22.386 42.553 28.508 56.691 30.149.484.053.962.08 1.436.08z" fill="#000000" data-original="#000000" style="" class=""></path></g></g></g></svg>