<svg width="55" height="55" viewBox="0 0 55 55" fill="none" xmlns="http://www.w3.org/2000/svg">
<path d="M50.3287 42.9908C55.3707 34.5569 55.3707 24.1061 50.3287 15.6722C42.8115 3.1129 26.4936 -1.0124 13.8427 6.50481C5.77543 11.3635 0.916737 19.9808 0.916737 29.3315C0.916737 34.1902 2.20016 38.8655 4.67534 42.9908C5.68375 44.6409 6.87551 46.1994 8.25061 47.6662H7.79224C6.50881 47.6662 5.50041 48.6746 5.50041 49.958C5.50041 51.2414 6.50881 52.2498 7.79224 52.2498H46.2951C47.5785 52.2498 48.5869 51.2414 48.5869 49.958C48.5869 48.6746 47.5785 47.6662 46.2951 47.6662H46.7534C48.1285 46.2911 49.3203 44.6409 50.3287 42.9908ZM30.2522 47.4828C20.2598 48.9496 10.9091 42.0741 9.35069 32.0817C7.79224 22.0893 14.7594 12.7386 24.7518 11.1802C34.7442 9.62171 44.0949 16.5889 45.6533 26.5813C46.6618 33.2734 43.9115 39.9656 38.5028 43.9992C36.0276 45.8327 33.2774 47.0244 30.2522 47.4828Z" fill="#3C3C3C"/>
<path d="M38.1361 26.5813H45.5617C45.1033 23.556 43.9115 20.8058 42.0781 18.3307L36.8527 23.556C37.4944 24.5645 37.8611 25.5729 38.1361 26.5813Z" fill="white"/>
<path d="M45.6533 26.5813H38.2278C37.9528 25.5728 37.4944 24.5644 36.9443 23.6477L42.1697 18.3307C41.1613 16.9556 39.8779 15.6721 38.5028 14.6637L33.2774 19.8891C32.3607 19.3391 31.3523 18.8807 30.3439 18.6057V11.1801C28.5104 10.9051 26.6769 10.9051 24.8435 11.1801V18.6057C23.8351 18.8807 22.8267 19.3391 21.9099 19.8891L16.5012 14.6637C15.1261 15.6721 13.8427 16.9556 12.8343 18.3307L18.0596 23.556C17.5096 24.4728 17.0512 25.4812 16.7762 26.4896H9.35068C9.07566 28.323 9.07566 30.1565 9.35068 31.99H16.7762C17.0512 32.9984 17.5096 34.0068 18.0596 34.9235L12.8343 40.3323C13.8427 41.7074 15.1261 42.9908 16.5012 43.9992L21.7266 38.7738C22.6433 39.3238 23.6517 39.7822 24.6601 40.0572V47.4828C26.4936 47.7578 28.3271 47.7578 30.1605 47.4828V40.0572C31.1689 39.7822 32.1773 39.3238 33.0941 38.7738L38.5028 43.9992C39.8779 42.9908 41.1613 41.7074 42.1697 40.3323L36.9443 35.1069C37.4944 34.1901 37.9528 33.1817 38.2278 32.1733H45.6533C45.9283 30.2482 45.9283 28.4147 45.6533 26.5813ZM27.502 36.6653C23.4684 36.6653 20.1681 33.3651 20.1681 29.3315C20.1681 25.2978 23.4684 21.9976 27.502 21.9976C31.5356 21.9976 34.8359 25.2978 34.8359 29.3315C34.8359 33.3651 31.5356 36.6653 27.502 36.6653Z" fill="#07359B"/>
<path d="M16.8679 32.0817H9.44235C9.90072 35.1069 11.0925 37.8571 12.9259 40.3323L18.1513 35.1069C17.5096 34.0985 17.1429 33.0901 16.8679 32.0817Z" fill="white"/>
<path d="M18.1513 23.6477L12.8343 18.3307C11.0008 20.7142 9.80904 23.5561 9.35068 26.5813H16.7762C17.1429 25.5729 17.5096 24.5645 18.1513 23.6477Z" fill="white"/>
<path d="M24.7518 18.6974V11.2718C21.7266 11.7302 18.9764 12.9219 16.5012 14.7554L21.7266 19.9808C22.735 19.3391 23.7434 18.9724 24.7518 18.6974Z" fill="white"/>
<path d="M36.8527 35.0152L42.1697 40.3323C44.0032 37.9488 45.195 35.1069 45.6533 32.0817H38.2278C37.8611 33.0901 37.4944 34.0985 36.8527 35.0152Z" fill="white"/>
<path d="M21.8183 38.6822L16.5012 43.9992C18.8847 45.8327 21.7266 47.0244 24.7518 47.4828V40.0573C23.7434 39.6906 22.735 39.3239 21.8183 38.6822Z" fill="white"/>
<path d="M33.1857 19.9808L38.5028 14.6637C36.1193 12.8303 33.2774 11.6385 30.2522 11.1802V18.6057C31.2606 18.9724 32.269 19.3391 33.1857 19.9808Z" fill="white"/>
<path d="M30.2522 39.9656V47.3911C33.2774 46.9328 36.0276 45.741 38.5028 43.9075L33.2774 38.6822C32.269 39.3239 31.2606 39.6906 30.2522 39.9656Z" fill="white"/>
<path d="M27.502 21.9976C23.4684 21.9976 20.1681 25.2978 20.1681 29.3315C20.1681 33.3651 23.4684 36.6653 27.502 36.6653C31.5356 36.6653 34.8359 33.3651 34.8359 29.3315C34.8359 25.2978 31.5356 21.9976 27.502 21.9976ZM27.502 31.1649C26.4936 31.1649 25.6685 30.3399 25.6685 29.3315C25.6685 28.3231 26.4936 27.498 27.502 27.498C28.5104 27.498 29.3355 28.3231 29.3355 29.3315C29.3355 30.3399 28.5104 31.1649 27.502 31.1649Z" fill="#07359B"/>
<path d="M27.502 31.1649C28.5146 31.1649 29.3355 30.3441 29.3355 29.3315C29.3355 28.3189 28.5146 27.498 27.502 27.498C26.4894 27.498 25.6685 28.3189 25.6685 29.3315C25.6685 30.3441 26.4894 31.1649 27.502 31.1649Z" fill="white"/>
<path d="M27.502 32.0817C29.0604 32.0817 30.2522 30.8899 30.2522 29.3315C30.2522 27.773 29.0604 26.5813 27.502 26.5813C25.9436 26.5813 24.7518 27.773 24.7518 29.3315C24.7518 30.8899 25.9436 32.0817 27.502 32.0817ZM27.502 28.4147C28.052 28.4147 28.4187 28.7814 28.4187 29.3315C28.4187 29.8815 28.052 30.2482 27.502 30.2482C26.952 30.2482 26.5853 29.8815 26.5853 29.3315C26.5853 28.7814 26.952 28.4147 27.502 28.4147Z" fill="#1D1D1D"/>
<path d="M4.58367 49.958C4.58367 51.6998 6.05044 53.1665 7.79223 53.1665H46.295C48.0368 53.1665 49.5036 51.6998 49.5036 49.958C49.5036 48.9496 49.0452 48.0328 48.2202 47.3911C58.2126 35.9319 57.0208 18.6057 45.5617 8.61329C34.1025 -1.3791 16.7762 -0.187352 6.78383 11.2718C2.38351 16.2222 0 22.6393 0 29.3315C0 35.8403 2.29183 42.0741 6.50881 47.0244C5.31705 47.5745 4.58367 48.6745 4.58367 49.958ZM5.95877 43.2658L7.88391 41.9824L6.8755 40.4239L5.04203 41.6157C3.11689 38.2238 2.01681 34.2818 1.83347 30.2482H4.58367V28.4147H1.83347C2.01681 24.3811 3.02522 20.4392 4.95036 16.9556L6.78383 18.1473L7.79223 16.5889L5.86709 15.3054C7.88391 12.2802 10.4508 9.71337 13.476 7.69656L14.7594 9.6217L16.3179 8.61329L15.1261 6.77982C18.6097 4.94636 22.5516 3.84628 26.5853 3.66293V5.4964H28.4187V3.66293C32.4524 3.84628 36.3943 4.85468 39.8779 6.77982L38.6862 8.61329L40.2446 9.6217L41.528 7.69656C44.5532 9.71337 47.1201 12.2802 49.1369 15.3054L47.2118 16.5889L48.2202 18.1473L50.0536 16.9556C51.9788 20.4392 53.0789 24.3811 53.1705 28.4147H50.4203V30.2482H53.1705C53.0789 34.2818 51.9788 38.2238 50.0536 41.7074L48.2202 40.5156L47.2118 42.0741L49.1369 43.3575C48.3119 44.5492 47.3951 45.741 46.4784 46.8411H40.3363V48.6745H46.295C46.3867 48.6745 46.4784 48.6745 46.5701 48.6745H46.6617C47.3951 48.8579 47.8535 49.5913 47.6701 50.3247C47.4868 50.9664 46.9368 51.4247 46.295 51.4247H15.4928L16.4095 50.1413L14.8511 49.1329L13.2926 51.3331H7.79223C7.05885 51.3331 6.41713 50.6914 6.41713 49.958C6.41713 49.2246 7.05885 48.5829 7.79223 48.5829H11.0008V46.7494H8.70897C7.70056 45.6493 6.78383 44.5492 5.95877 43.2658Z" fill="#1D1D1D"/>
<path d="M27.502 48.5828C38.1361 48.5828 46.7534 39.9656 46.7534 29.3314C46.7534 18.6973 38.1361 10.08 27.502 10.08C16.8679 10.08 8.2506 18.6973 8.2506 29.3314C8.2506 39.9656 16.8679 48.5828 27.502 48.5828ZM23.8351 46.3827C21.7266 45.9243 19.7098 45.0993 17.968 43.9075L22.0016 39.8739C22.6433 40.2406 23.285 40.4239 23.9267 40.6989V46.3827H23.8351ZM31.1689 46.3827V40.6989C31.8107 40.5156 32.4524 40.2406 33.0941 39.8739L37.1277 43.9075C35.2942 45.0993 33.2774 45.9243 31.1689 46.3827ZM42.0781 38.8655L38.0444 34.8318C38.4111 34.1901 38.5945 33.5484 38.8695 32.9067H44.5532C44.0949 35.1069 43.2698 37.1237 42.0781 38.8655ZM44.5532 25.6645H38.8695C38.6862 25.0228 38.4111 24.3811 38.0444 23.7394L42.0781 19.7057C43.2698 21.5392 44.0949 23.556 44.5532 25.6645ZM31.1689 12.2802C33.2774 12.7386 35.2942 13.5636 37.036 14.7554L33.0024 18.789C32.3607 18.4223 31.719 18.239 31.0773 17.964V12.2802H31.1689ZM23.8351 12.2802V17.964C23.1934 18.1473 22.5516 18.4223 21.9099 18.789L17.8763 14.7554C19.7098 13.5636 21.7266 12.7386 23.8351 12.2802ZM16.4095 15.8555L21.0849 20.5308C21.3599 20.8058 21.8183 20.8975 22.185 20.6225C23.01 20.0724 23.9267 19.7057 24.9352 19.4307C25.3018 19.3391 25.6685 18.9724 25.6685 18.514V11.8218C26.8603 11.7302 28.1437 11.7302 29.3355 11.8218V18.514C29.3355 18.9724 29.6105 19.3391 30.0689 19.4307C30.9856 19.7057 31.9023 20.0724 32.8191 20.6225C33.1858 20.8058 33.6441 20.8058 33.9191 20.5308L38.5945 15.8555C39.4195 16.5889 40.2446 17.3222 40.978 18.239L36.3026 22.9143C36.0276 23.1893 35.936 23.6477 36.211 24.0144C36.761 24.8395 37.1277 25.7562 37.4027 26.7646C37.4944 27.1313 37.8611 27.4063 38.3195 27.498H45.0116C45.1033 28.6897 45.1033 29.9732 45.0116 31.1649H38.3195C37.8611 31.1649 37.4944 31.4399 37.4027 31.8983C37.1277 32.815 36.761 33.7318 36.211 34.6485C36.0276 35.0152 36.0276 35.4736 36.3026 35.7486L40.978 40.4239C40.2446 41.249 39.5112 42.074 38.5945 42.8074L33.9191 38.1321C33.6441 37.8571 33.1858 37.7654 32.8191 38.0404C31.994 38.5905 31.0773 38.9571 30.0689 39.2322C29.7022 39.3238 29.3355 39.6905 29.3355 40.1489V46.8411C28.1437 46.9327 26.8603 46.9327 25.6685 46.8411V40.1489C25.6685 39.6905 25.3935 39.3238 24.9352 39.2322C24.0184 38.9571 23.1017 38.5905 22.185 38.0404C21.8183 37.8571 21.3599 37.8571 21.0849 38.1321L16.4095 42.8074C15.5845 42.074 14.7594 41.3407 14.026 40.4239L18.7014 35.7486C18.9764 35.4736 19.0681 35.0152 18.793 34.6485C18.243 33.8234 17.8763 32.9067 17.6013 31.8983C17.5096 31.5316 17.1429 31.2566 16.6846 31.1649H9.9924C9.90072 29.9732 9.90072 28.6897 9.9924 27.498H16.6846C17.1429 27.498 17.5096 27.223 17.6013 26.7646C17.8763 25.8479 18.243 24.9311 18.793 24.0144C18.9764 23.6477 18.9764 23.1893 18.7014 22.9143L14.026 18.239C14.7594 17.4139 15.5845 16.5889 16.4095 15.8555ZM12.9259 38.8655C11.7342 37.032 10.9091 35.1069 10.4508 32.9984H16.1345C16.3179 33.6401 16.5929 34.2818 16.9596 34.9235L12.9259 38.8655ZM10.4508 25.6645C10.9091 23.556 11.7342 21.5392 12.9259 19.7974L16.9596 23.831C16.5929 24.4728 16.4095 25.1145 16.1345 25.7562H10.4508V25.6645Z" fill="#1D1D1D"/>
<path d="M27.502 37.5821C32.0857 37.5821 35.7526 33.9151 35.7526 29.3315C35.7526 24.7478 32.0857 21.0809 27.502 21.0809C22.9183 21.0809 19.2514 24.7478 19.2514 29.3315C19.2514 33.9151 22.9183 37.5821 27.502 37.5821ZM27.502 22.9143C31.0773 22.9143 33.9191 25.7562 33.9191 29.3315C33.9191 32.9067 31.0773 35.7486 27.502 35.7486C23.9267 35.7486 21.0849 32.9067 21.0849 29.3315C21.0849 25.7562 23.9267 22.9143 27.502 22.9143Z" fill="#1D1D1D"/>
</svg>
