<svg width="512" height="512" x="0" y="0" viewBox="0 0 482.43166 482" style="enable-background:new 0 0 512 512" xml:space="preserve" class=""><g><path xmlns="http://www.w3.org/2000/svg" d="m8 72.214844h288v336h-288zm0 0" fill="#07359b" data-original="#78b9eb" style="" class=""></path><path xmlns="http://www.w3.org/2000/svg" d="m296 72.214844v336h-288v-46.71875c118.605469-63.160156 211.75-165.347656 263.679688-289.28125zm0 0" fill="#0091ff" data-original="#5aaae7" style="" class=""></path><path xmlns="http://www.w3.org/2000/svg" d="m440 160.214844v143.519531l22.558594-6.078125c8.511718-2.320312 13.550781-11.078125 11.28125-19.601562l-49.679688-185.519532c-2.300781-8.523437-11.074218-13.570312-19.601562-11.28125l-12.558594 3.363282-222.480469 59.597656h254.480469c8.824219.027344 15.972656 7.175781 16 16zm0 0" fill="#00a38f" data-original="#00a38f" style=""></path><path xmlns="http://www.w3.org/2000/svg" d="m8 440.214844c0 17.675781 14.328125 32 32 32h224c17.671875 0 32-14.324219 32-32v-32h-288zm0 0" fill="#acabb1" data-original="#acabb1" style=""></path><path xmlns="http://www.w3.org/2000/svg" d="m264 8.214844h-224c-17.671875 0-32 14.328125-32 32v32h288v-32c0-17.671875-14.328125-32-32-32zm0 0" fill="#acabb1" data-original="#acabb1" style=""></path><path xmlns="http://www.w3.org/2000/svg" d="m440 160.214844v160c-.027344 8.828125-7.175781 15.976562-16 16h-288v-192h288c8.824219.027344 15.972656 7.175781 16 16zm0 0" fill="#00ccb3" data-original="#00ccb3" style="" class=""></path><path xmlns="http://www.w3.org/2000/svg" d="m192 176.214844h-24v48h24zm0 0" fill="#ffa733" data-original="#ffa733" style=""></path><path xmlns="http://www.w3.org/2000/svg" d="m192 200.214844h40v24h-40zm0 0" fill="#ff6243" data-original="#ff6243" style="" class=""></path><path xmlns="http://www.w3.org/2000/svg" d="m192 176.214844h40v24h-40zm0 0" fill="#ffb655" data-original="#ffb655" style="" class=""></path><path xmlns="http://www.w3.org/2000/svg" d="m136 144.214844h16v192h-16zm0 0" fill="#00b8a1" data-original="#00b8a1" style="" class=""></path><path xmlns="http://www.w3.org/2000/svg" d="m440 160.214844v160c-.027344 8.828125-7.175781 15.976562-16 16h-250c78.484375-47.875 144.503906-113.671875 192.640625-192h57.359375c8.824219.027344 15.972656 7.175781 16 16zm0 0" fill="#00b8a1" data-original="#00b8a1" style="" class=""></path><path xmlns="http://www.w3.org/2000/svg" d="m384 176.214844c-13.253906 0-24 10.746094-24 24s10.746094 24 24 24 24-10.746094 24-24-10.746094-24-24-24zm0 0" fill="#ffa733" data-original="#ffa733" style=""></path><path xmlns="http://www.w3.org/2000/svg" d="m368 182.375c-4.378906-3.976562-10.085938-6.171875-16-6.160156-13.253906 0-24 10.746094-24 24s10.746094 24 24 24c5.914062.015625 11.621094-2.183594 16-6.160156-5.089844-4.53125-8-11.023438-8-17.839844s2.910156-13.304688 8-17.839844zm0 0" fill="#ff7956" data-original="#ff7956" style="" class=""></path><path xmlns="http://www.w3.org/2000/svg" d="m72 32.214844h32v16h-32zm0 0" fill="#000000" data-original="#000000" style="" class=""></path><path xmlns="http://www.w3.org/2000/svg" d="m120 32.214844h64v16h-64zm0 0" fill="#000000" data-original="#000000" style="" class=""></path><path xmlns="http://www.w3.org/2000/svg" d="m120 432.214844h64v16h-64zm0 0" fill="#000000" data-original="#000000" style="" class=""></path><path xmlns="http://www.w3.org/2000/svg" d="m240 224.214844v-48c0-4.417969-3.582031-8-8-8h-64c-4.417969 0-8 3.582031-8 8v48c0 4.417968 3.582031 8 8 8h64c4.417969 0 8-3.582032 8-8zm-16-32h-24v-8h24zm-48-8h8v32h-8zm24 32v-8h24v8zm0 0" fill="#000000" data-original="#000000" style="" class=""></path><path xmlns="http://www.w3.org/2000/svg" d="m384 168.214844c-5.625.015625-11.144531 1.523437-16 4.359375-13.445312-7.847657-30.585938-4.878907-40.613281 7.03125-10.027344 11.90625-10.027344 29.304687 0 41.214843 10.027343 11.910157 27.167969 14.875 40.613281 7.027344 11.648438 6.804688 26.3125 5.570313 36.660156-3.078125 10.351563-8.652343 14.164063-22.863281 9.535156-35.535156-4.628906-12.671875-16.707031-21.078125-30.195312-21.019531zm-32 48c-8.835938 0-16-7.164063-16-16 0-8.835938 7.164062-16 16-16 1.347656-.003906 2.695312.167968 4 .503906-.3125.570312-.550781 1.175781-.800781 1.761719-.160157.335937-.328125.664062-.480469 1.007812-.765625 1.78125-1.371094 3.628907-1.808594 5.519531-.078125.359376-.132812.726563-.207031 1.089844-.863281 4.027344-.863281 8.191406 0 12.222656.074219.375.128906.742188.207031 1.113282.433594 1.863281 1.027344 3.6875 1.785156 5.445312.167969.394532.359376.800782.542969 1.160156.273438.554688.496094 1.128907.800781 1.671876-1.316406.34375-2.675781.511718-4.039062.503906zm32 0c-3.976562-.003906-7.808594-1.496094-10.742188-4.183594-3.367187-3.03125-5.277343-7.355469-5.257812-11.882812.019531-4.53125 1.972656-8.835938 5.367188-11.835938 2.910156-2.640625 6.703124-4.101562 10.632812-4.097656 8.835938 0 16 7.164062 16 16 0 8.835937-7.164062 16-16 16zm0 0" fill="#000000" data-original="#000000" style="" class=""></path><path xmlns="http://www.w3.org/2000/svg" d="m208 264.214844h16v16h-16zm0 0" fill="#000000" data-original="#000000" style="" class=""></path><path xmlns="http://www.w3.org/2000/svg" d="m240 264.214844h16v16h-16zm0 0" fill="#000000" data-original="#000000" style="" class=""></path><path xmlns="http://www.w3.org/2000/svg" d="m272 264.214844h16v16h-16zm0 0" fill="#000000" data-original="#000000" style="" class=""></path><path xmlns="http://www.w3.org/2000/svg" d="m304 264.214844h16v16h-16zm0 0" fill="#000000" data-original="#000000" style="" class=""></path><path xmlns="http://www.w3.org/2000/svg" d="m336 264.214844h16v16h-16zm0 0" fill="#000000" data-original="#000000" style="" class=""></path><path xmlns="http://www.w3.org/2000/svg" d="m368 264.214844h16v16h-16zm0 0" fill="#000000" data-original="#000000" style="" class=""></path><path xmlns="http://www.w3.org/2000/svg" d="m208 296.214844h64v16h-64zm0 0" fill="#000000" data-original="#000000" style="" class=""></path><path xmlns="http://www.w3.org/2000/svg" d="m320 296.214844h64v16h-64zm0 0" fill="#000000" data-original="#000000" style="" class=""></path><path xmlns="http://www.w3.org/2000/svg" d="m481.601562 275.992188-49.699218-185.601563c-3.460938-12.761719-16.597656-20.320313-29.375-16.894531l-98.527344 26.414062v-59.695312c-.027344-22.078125-17.917969-39.972656-40-40h-224c-22.082031.027344-39.9726562 17.921875-40 40v400c.0273438 22.082031 17.917969 39.972656 40 40h224c22.082031-.027344 39.972656-17.917969 40-40v-96h120c13.253906 0 24-10.746094 24-24v-10.34375l16.664062-4.496094c6.128907-1.664062 11.347657-5.691406 14.511719-11.199219 3.222657-5.488281 4.097657-12.042969 2.425781-18.183593zm-74.945312-186.976563c4.238281-1.105469 8.585938 1.382813 9.777344 5.601563l11.238281 41.976562c-1.210937-.222656-2.441406-.347656-3.671875-.378906h-193.703125zm-366.65625-72.800781h224c13.253906 0 24 10.746094 24 24v24h-272v-24c0-13.253906 10.746094-24 24-24zm224 448h-224c-13.253906 0-24-10.746094-24-24v-24h272v24c0 13.253906-10.746094 24-24 24zm24-64h-272v-320h272v24l-119.527344 32h-24.472656v-24h-16v256h16v-24h144zm144-80c0 4.417968-3.582031 8-8 8h-280v-176h280c4.417969 0 8 3.582031 8 8zm33.328125-34.054688c-1.054687 1.847656-2.796875 3.199219-4.847656 3.769532l-12.480469 3.367187v-80.800781l18.128906 67.679687c.542969 2.019531.253906 4.175781-.800781 5.984375zm0 0" fill="#000000" data-original="#000000" style="" class=""></path></g></svg>