<svg width="55" height="55" viewBox="0 0 55 55" fill="none" xmlns="http://www.w3.org/2000/svg">
<g clip-path="url(#clip0)">
<path d="M6.20193 52.682V8.73388C6.20193 4.67055 8.66131 2.21117 12.7246 2.21117H30.1542C34.2175 2.21117 36.6769 4.67055 36.6769 8.73388V52.7889H6.20193V52.682Z" fill="#07359B"/>
<path d="M30.1542 2.21117H25.4493C29.5126 2.21117 31.972 4.67055 31.972 8.73388V52.7889H36.6769V8.73388C36.6769 4.56362 34.2175 2.21117 30.1542 2.21117Z" fill="#C3C3C3"/>
<path d="M40.2056 22.4209V16.8605L47.4768 13.118V22.4209H40.2056Z" fill="#C3C3C3"/>
<path d="M44.5897 14.615V22.4209H47.4768V13.118L44.5897 14.615Z" fill="#07359B"/>
<path d="M13.2593 7.98537H29.6195C30.3681 7.98537 30.9027 8.52002 30.9027 9.26852V18.2506C30.9027 18.9991 30.3681 19.5338 29.6195 19.5338H13.2593C12.5108 19.5338 11.9761 18.9991 11.9761 18.2506V9.26852C11.9761 8.52002 12.5108 7.98537 13.2593 7.98537Z" fill="white"/>
<path d="M29.6196 7.98537H25.1285C25.7701 7.98537 26.4117 8.52002 26.4117 9.26852V18.2506C26.4117 18.9991 25.877 19.5338 25.1285 19.5338H29.6196C30.3681 19.5338 30.9027 18.9991 30.9027 18.2506V9.26852C30.9027 8.52002 30.3681 7.98537 29.6196 7.98537Z" fill="white"/>
<path d="M49.0808 29.6921C47.263 28.7298 45.7659 27.9813 45.1244 23.4902H47.4768C48.1184 23.4902 48.5461 23.0625 48.5461 22.4209V12.1556C48.4392 8.30617 43.4135 4.34976 42.8788 3.92204C42.4511 3.60125 41.7026 3.70818 41.3818 4.1359C41.061 4.56362 41.168 5.31213 41.5957 5.63292C42.8788 6.59529 46.4075 9.80318 46.4075 12.1556V12.4764L39.7779 16.0051C39.4571 16.219 39.2432 16.5398 39.2432 16.9675V22.5278C39.2432 23.1694 39.6709 23.5971 40.3125 23.5971H42.9858C43.7343 29.3713 45.9798 30.5476 48.1184 31.6169C49.8293 32.4723 51.4332 33.3277 52.6094 37.2841C53.5718 40.8128 52.3956 42.7376 51.2194 43.6999C49.4016 45.197 46.8352 45.5177 44.6966 44.6623C42.9858 43.9138 41.8095 42.2029 41.9165 40.3851C41.7026 33.007 39.2432 30.8684 37.8531 30.2268V8.73389C37.8531 3.17354 33.8967 1.14187 30.2611 1.14187H12.7246C9.08903 1.14187 5.13263 3.17354 5.13263 8.73389V51.7197H1.0693C0.427719 51.7197 0 52.1474 0 52.789C0 53.4305 0.427719 53.8583 1.0693 53.8583H41.9165C42.558 53.8583 42.9858 53.4305 42.9858 52.789C42.9858 52.1474 42.558 51.7197 41.9165 51.7197H37.7462V32.9C38.6016 33.8624 39.564 35.8941 39.6709 40.3851C39.6709 43.0584 41.2749 45.5177 43.7343 46.4801C44.8036 46.9078 45.8729 47.1217 47.0491 47.1217C49.0808 47.1217 51.0055 46.4801 52.5025 45.197C53.8926 44.0207 55.9243 41.3475 54.5342 36.5356C53.1441 31.7238 50.8986 30.6545 49.0808 29.6921ZM41.2749 21.3516V17.5021L46.3006 14.8289V21.3516H41.2749ZM35.6076 51.6127H7.27122V8.73389C7.27122 4.02897 10.693 3.28046 12.7246 3.28046H30.1542C32.1859 3.28046 35.6076 4.02897 35.6076 8.73389V51.6127Z" fill="#1D1D1D"/>
<path d="M29.6196 6.91608H13.2593C11.9761 6.91608 10.9068 7.98537 10.9068 9.26853V18.2506C10.9068 19.5338 11.9761 20.6031 13.2593 20.6031H29.6196C30.9027 20.6031 31.972 19.5338 31.972 18.2506V9.26853C31.972 7.98537 30.9027 6.91608 29.6196 6.91608ZM29.8334 18.2506C29.8334 18.3576 29.7265 18.4645 29.6196 18.4645H13.2593C13.1524 18.4645 13.0454 18.3576 13.0454 18.2506V9.26853C13.0454 9.1616 13.1524 9.05467 13.2593 9.05467H29.6196C29.7265 9.05467 29.8334 9.1616 29.8334 9.26853V18.2506Z" fill="#1D1D1D"/>
</g>
<defs>
<clipPath id="clip0">
<rect width="55" height="55" fill="white"/>
</clipPath>
</defs>
</svg>
