<svg width="55" height="55" viewBox="0 0 55 55" fill="none" xmlns="http://www.w3.org/2000/svg">
<g clip-path="url(#clip0)">
<path d="M54.0659 2.78311C54.0719 2.23415 53.8336 1.71076 53.4155 1.35445C53.2778 1.23554 53.1197 1.14219 52.9488 1.07997C52.9121 1.06164 52.8571 1.04331 52.8111 1.02499C52.7242 0.998135 52.6355 0.976824 52.5456 0.961055C52.4459 0.942727 52.3448 0.933351 52.2434 0.933351H49.4777L43.232 0.9244C42.9835 0.972136 42.758 1.10085 42.591 1.29052L22.6903 21.1912C21.961 20.9675 21.2173 20.7931 20.4646 20.6691C19.1152 20.4453 17.7432 20.3899 16.3802 20.5042C10.1954 20.996 4.78553 24.8566 2.30923 30.5449C-0.167058 36.2335 0.69389 42.8236 4.54813 47.6854C4.93257 48.1619 5.32639 48.6103 5.73854 49.0318C11.1749 54.5585 19.6855 55.65 26.3408 51.6748C32.9961 47.6995 36.0695 39.688 33.7807 32.2817L35.7588 30.3036C35.8751 30.1843 35.9352 30.021 35.9237 29.8548L35.4749 24.9824C35.4639 24.8366 35.5095 24.6921 35.6032 24.5796C35.7187 24.4317 35.9016 24.3524 36.0887 24.3691L38.2867 24.5706L40.5486 24.7812C40.7148 24.7936 40.878 24.733 40.9961 24.615C41.1142 24.4973 41.1747 24.3337 41.1623 24.1675L40.7502 19.7076C40.7387 19.5618 40.7847 19.4169 40.878 19.3044C40.9923 19.1548 41.1759 19.0751 41.3635 19.0938L43.5615 19.2954L45.8234 19.506C45.99 19.5188 46.1533 19.4578 46.2713 19.3402C46.389 19.2221 46.4499 19.0589 46.4371 18.8922L46.0343 14.414C46.0216 14.2682 46.0676 14.1229 46.1626 14.0112C46.2769 13.8676 46.4559 13.7917 46.6387 13.8096L49.2672 14.0479L51.5384 14.2491C51.7021 14.2636 51.8636 14.203 51.9779 14.0846L53.8276 12.1794C53.9922 12.0068 54.0838 11.777 54.0842 11.5384L54.0659 2.78311ZM16.142 45.1669C14.3877 46.9067 11.5593 46.9067 9.8046 45.1669C9.7688 45.135 9.73811 45.0983 9.71297 45.057C9.60641 44.9585 9.51137 44.8477 9.42911 44.7275L9.42016 44.7181C9.32938 44.6103 9.24967 44.4939 9.18191 44.3703C9.09965 44.2523 9.0289 44.1265 8.97136 43.9948C8.89805 43.8555 8.83369 43.7118 8.77914 43.5644C8.73268 43.4514 8.69602 43.3351 8.66917 43.2166C8.22463 41.6566 8.6598 39.9782 9.80673 38.8317C10.9537 37.6848 12.6317 37.2492 14.1916 37.6941C14.3105 37.721 14.4269 37.7577 14.5394 37.8041C14.6869 37.8587 14.8309 37.923 14.9699 37.9963C15.1016 38.0539 15.2273 38.1246 15.3454 38.2069C15.469 38.2746 15.5857 38.3543 15.6936 38.4451L15.7025 38.4541C15.8227 38.5359 15.9335 38.6314 16.0324 38.7379C16.0733 38.7631 16.1104 38.7938 16.142 38.8296C17.8916 40.58 17.8916 43.4165 16.142 45.1669Z" fill="#E3E3E3"/>
<path d="M51.3185 2.78311C51.3245 2.23415 51.0862 1.71076 50.6681 1.35445C50.5305 1.23554 50.3723 1.14219 50.201 1.07997C50.1643 1.06164 50.1098 1.04331 50.0638 1.02499C49.9768 0.998135 49.8882 0.976824 49.7982 0.961055C49.6985 0.942727 49.5975 0.933351 49.496 0.933351H49.4777L43.232 0.9244C42.9835 0.972136 42.7581 1.10085 42.591 1.29052L22.6903 21.1912C21.961 20.9675 21.2173 20.7931 20.4646 20.6691L19.9429 21.1912C18.7832 20.8349 17.5889 20.6047 16.3802 20.5042C10.1954 20.996 4.78553 24.8566 2.30923 30.5449C-0.167058 36.2335 0.69389 42.8236 4.54813 47.6854C4.93257 48.1619 5.32639 48.6103 5.73854 49.0318C8.57285 51.9168 12.3568 53.6771 16.3896 53.9861C21.4602 53.5616 26.0655 50.8607 28.9113 46.6425C31.7575 42.4238 32.5379 37.1426 31.0334 32.2817L33.0114 30.3036C33.1278 30.1843 33.1879 30.021 33.1764 29.8548L32.7276 24.9824C32.7135 24.8157 32.7736 24.6516 32.8917 24.5331C33.0102 24.4151 33.1742 24.355 33.3409 24.3691L35.6032 24.5796L37.8012 24.7812C37.967 24.7923 38.1298 24.7313 38.2474 24.6137C38.3651 24.4961 38.426 24.3332 38.4145 24.1675L38.0024 19.7076C37.9883 19.5409 38.0484 19.3764 38.1669 19.2583C38.285 19.1399 38.4495 19.0798 38.6161 19.0938L40.878 19.3044L43.076 19.506C43.2422 19.5175 43.4046 19.4561 43.5223 19.3389C43.6399 19.2213 43.7008 19.0584 43.6898 18.8922L43.287 14.414C43.2725 14.2499 43.3317 14.088 43.4485 13.9712C43.5649 13.8548 43.7268 13.7956 43.8914 13.8096L46.1626 14.0112L48.7907 14.2491C48.9548 14.2636 49.1163 14.203 49.2305 14.0846L49.2672 14.0479L51.0803 12.1794C51.2448 12.0068 51.3364 11.777 51.3369 11.5384L51.3185 2.78311ZM16.142 45.1669C14.9537 46.3561 13.1981 46.7776 11.5998 46.2567C10.0518 46.7605 11.3526 46.3944 10.1251 45.1669C10.0893 45.135 10.0586 45.0983 10.0335 45.057C9.92693 44.9585 9.83188 44.8477 9.74962 44.7275L9.74067 44.7181C9.64989 44.6103 9.57019 44.4939 9.50242 44.3703C9.42016 44.2523 9.34941 44.1265 9.29187 43.9948C9.21856 43.8555 9.1542 43.7118 9.09965 43.5644C9.05319 43.4514 9.01654 43.3351 8.98969 43.2166C8.54131 41.6566 8.97647 39.9761 10.1251 38.8296C11.316 37.6392 9.93289 37.2637 11.4438 37.6941C11.4941 37.7052 11.5431 37.7206 11.5904 37.7397C12.4335 37.464 13.3396 37.4478 14.1916 37.6941C14.3105 37.721 14.4269 37.7577 14.5394 37.8041C14.6869 37.8587 14.8309 37.923 14.9699 37.9963C15.1016 38.0539 15.2273 38.1246 15.3454 38.2069C15.469 38.2746 15.5857 38.3543 15.6936 38.4451L15.7025 38.4541C15.8227 38.5359 15.9335 38.6314 16.0324 38.7379C16.0733 38.7631 16.1104 38.7938 16.142 38.8296C17.8916 40.58 17.8916 43.4165 16.142 45.1669Z" fill="#07359B"/>
<path d="M17.7177 54.9634C17.3886 54.9634 17.06 54.954 16.7301 54.9356C11.6689 54.6722 6.96731 52.2364 3.83379 48.2531C-0.928276 42.2452 -1.28757 33.8569 2.94344 27.4637C7.17402 21.0705 15.0355 18.1224 22.4269 20.1572L41.9406 0.643456C42.2551 0.307601 42.6728 0.086823 43.1276 0.0156456C43.1659 0.010531 43.2218 0.0267271 43.2418 0.00839996L52.2293 0.016498C52.9611 0.0220387 53.6618 0.311863 54.1835 0.825449C54.7039 1.345 54.9925 2.05251 54.984 2.78816L55.0001 11.5396C55.0014 12.0169 54.8156 12.476 54.4832 12.8186L54.4823 12.8195L52.6308 14.7242C52.324 15.0392 51.8918 15.1995 51.4536 15.1607L46.9844 14.7588L47.3488 18.812C47.388 19.248 47.2316 19.6794 46.9221 19.9888C46.6123 20.2982 46.181 20.4542 45.7449 20.4146L41.7023 20.0446L42.0714 24.0864C42.1111 24.5229 41.9551 24.9546 41.6448 25.2645C41.3349 25.5743 40.9032 25.7303 40.4663 25.6898L36.4258 25.3207L36.8329 29.7704C36.8733 30.2072 36.7173 30.639 36.4066 30.9489L34.813 32.5429C36.2801 37.8761 35.1728 43.5886 31.8189 47.9875C28.465 52.386 23.249 54.9663 17.7177 54.9634ZM17.6942 21.3476C10.8322 21.3595 4.75271 25.7742 2.61781 32.2957C0.482487 38.8167 2.7738 45.972 8.29965 50.0402C13.8255 54.1084 21.3383 54.171 26.9311 50.1949C32.5238 46.2192 34.9337 39.1031 32.907 32.5471C32.8069 32.2228 32.8942 31.8699 33.1346 31.6304L34.9937 29.7712L34.5633 25.0624C34.5232 24.626 34.6792 24.1942 34.9895 23.8844C35.2993 23.5741 35.7307 23.4181 36.1671 23.4577L40.2089 23.8277L39.8389 19.7859C39.7993 19.3495 39.9557 18.9182 40.2656 18.6083C40.5754 18.2984 41.0067 18.142 41.4432 18.1821L45.4858 18.5516L45.1214 14.4992C45.0826 14.0632 45.2386 13.6323 45.548 13.3228C45.8575 13.0134 46.2884 12.8574 46.7244 12.8962L51.4404 13.3207L53.167 11.5443L53.1683 11.5413L53.1525 2.78176C53.1576 2.53584 53.0634 2.29801 52.8913 2.12241C52.7186 1.94639 52.4829 1.84751 52.237 1.84751H52.2323L43.3496 1.83983C43.3091 1.87052 43.2708 1.90377 43.2346 1.93914L23.339 21.8352C23.099 22.0751 22.7461 22.1625 22.4222 22.0628C20.8904 21.5901 19.2968 21.3488 17.6942 21.3476Z" fill="#1D1D1D"/>
<path d="M12.9709 47.393C10.3974 47.3913 8.18369 45.5723 7.68289 43.0478C7.18252 40.5233 8.53489 37.9968 10.9127 37.0135C13.291 36.0298 16.0328 36.863 17.4615 39.0035C18.8901 41.1439 18.608 43.9957 16.7876 45.8148C15.7762 46.8275 14.4026 47.3956 12.9709 47.393ZM12.9713 38.4345C11.2712 38.4353 9.80841 39.6373 9.47767 41.305C9.14693 42.9728 10.0403 44.6418 11.6113 45.2918C13.1823 45.9418 14.9937 45.3911 15.9378 43.9769C16.8818 42.5632 16.6952 40.6789 15.4928 39.4774C14.8241 38.8083 13.9171 38.4332 12.9713 38.4345Z" fill="#1D1D1D"/>
<path d="M26.4388 24.6938C26.0684 24.6938 25.7343 24.4705 25.5928 24.1283C25.4508 23.786 25.5293 23.3922 25.791 23.1305L40.0503 8.87113C40.2805 8.63416 40.6206 8.53911 40.9402 8.62307C41.2599 8.70704 41.5097 8.9568 41.5936 9.27646C41.6772 9.59612 41.5825 9.93623 41.3451 10.1664L27.0862 24.4253C26.9145 24.5975 26.6813 24.6938 26.4388 24.6938Z" fill="#1D1D1D"/>
<path d="M44.0103 7.29755C44.0103 6.79164 43.6003 6.38162 43.0943 6.38162C42.5889 6.38162 42.1788 6.79164 42.1788 7.29755C42.1788 7.80347 42.5889 8.21349 43.0943 8.21349C43.6003 8.21349 44.0103 7.80347 44.0103 7.29755Z" fill="#1D1D1D"/>
</g>
<defs>
<clipPath id="clip0">
<rect width="55" height="55" fill="white"/>
</clipPath>
</defs>
</svg>
