<svg width="30" height="30" viewBox="0 0 30 30" fill="none" xmlns="http://www.w3.org/2000/svg">
<path d="M24.11 20.6432C24.0946 20.6431 24.0792 20.6423 24.0638 20.6407C23.957 20.6286 23.8594 20.5746 23.7924 20.4905C23.7254 20.4064 23.6946 20.2992 23.7067 20.1923L23.8405 19.0086C23.8525 18.9017 23.9065 18.804 23.9906 18.7369C24.0747 18.6699 24.182 18.6389 24.2888 18.651C24.3957 18.663 24.4934 18.717 24.5605 18.8011C24.6275 18.8852 24.6584 18.9925 24.6464 19.0994L24.5126 20.2832C24.5015 20.3821 24.4543 20.4735 24.38 20.5399C24.3058 20.6063 24.2097 20.6431 24.11 20.6432Z" fill="#1D1D1D"/>
<path d="M22.3987 29.1894H7.6014C7.29963 29.1898 7.00838 29.0784 6.78381 28.8769C6.55924 28.6753 6.41724 28.3977 6.38519 28.0976L4.04073 7.62179C4.03422 7.56504 4.03977 7.50755 4.05703 7.4531C4.07428 7.39865 4.10285 7.34845 4.14086 7.30581C4.17887 7.26317 4.22546 7.22904 4.27758 7.20567C4.3297 7.18229 4.38617 7.17019 4.4433 7.17017H25.5568C25.6139 7.1702 25.6703 7.18229 25.7224 7.20564C25.7745 7.22899 25.8211 7.26308 25.8591 7.30568C25.8971 7.34827 25.9257 7.39841 25.9429 7.45282C25.9602 7.50722 25.9658 7.56466 25.9594 7.62138L25.4287 12.2754C25.4234 12.3289 25.4075 12.3807 25.3819 12.428C25.3564 12.4752 25.3217 12.5169 25.2799 12.5506C25.2381 12.5844 25.19 12.6095 25.1385 12.6245C25.0869 12.6394 25.0329 12.644 24.9795 12.638C24.9261 12.6319 24.8745 12.6153 24.8276 12.5891C24.7807 12.5629 24.7395 12.5277 24.7064 12.4854C24.6732 12.4432 24.6488 12.3947 24.6345 12.343C24.6202 12.2912 24.6164 12.2371 24.6232 12.1838L25.1028 7.9826H4.89776L7.18911 28.0096C7.20115 28.1108 7.24967 28.204 7.32557 28.272C7.40148 28.3399 7.49955 28.3778 7.6014 28.3785H22.3987C22.5003 28.3779 22.5982 28.3403 22.674 28.2726C22.7498 28.205 22.7984 28.1121 22.8106 28.0112L23.3826 23.0134C23.3871 22.9593 23.4025 22.9067 23.4277 22.8586C23.453 22.8105 23.4877 22.768 23.5296 22.7336C23.5716 22.6992 23.6201 22.6736 23.6722 22.6583C23.7243 22.6429 23.7789 22.6382 23.8329 22.6444C23.8868 22.6506 23.9389 22.6676 23.9862 22.6943C24.0335 22.721 24.0749 22.757 24.108 22.8C24.1411 22.8431 24.1652 22.8923 24.1789 22.9448C24.1926 22.9974 24.1956 23.0521 24.1878 23.1058L23.6161 28.1004C23.5837 28.4003 23.4413 28.6775 23.2165 28.8786C22.9917 29.0797 22.7003 29.1904 22.3987 29.1894Z" fill="#1D1D1D"/>
<path d="M24.5675 16.6378C24.552 16.6378 24.5366 16.637 24.5213 16.6353C24.4683 16.6294 24.4171 16.6131 24.3705 16.5873C24.3239 16.5616 24.2828 16.5269 24.2496 16.4852C24.2164 16.4436 24.1917 16.3958 24.177 16.3447C24.1622 16.2935 24.1577 16.2399 24.1637 16.187L24.2979 15.0032C24.3099 14.8963 24.3639 14.7986 24.448 14.7315C24.5321 14.6645 24.6394 14.6336 24.7463 14.6456C24.8531 14.6577 24.9508 14.7117 25.0179 14.7958C25.085 14.8798 25.1159 14.9871 25.1038 15.094L24.97 16.2778C24.9589 16.3768 24.9117 16.4682 24.8374 16.5346C24.7632 16.601 24.6671 16.6377 24.5675 16.6378Z" fill="#1D1D1D"/>
<path d="M26.6508 7.98187H3.34813C3.10742 7.98155 2.87667 7.88576 2.7065 7.71551C2.53633 7.54527 2.44064 7.31447 2.44043 7.07376V4.902C2.44064 4.6613 2.53633 4.4305 2.7065 4.26026C2.87667 4.09001 3.10742 3.99422 3.34813 3.9939H26.6508C26.8915 3.99422 27.1223 4.09001 27.2925 4.26026C27.4626 4.4305 27.5583 4.6613 27.5585 4.902V7.07376C27.5583 7.31447 27.4626 7.54527 27.2925 7.71551C27.1223 7.88576 26.8915 7.98155 26.6508 7.98187ZM3.34813 4.80471C3.33537 4.80471 3.32274 4.80723 3.31096 4.81212C3.29918 4.81702 3.28848 4.82419 3.27948 4.83323C3.27047 4.84227 3.26334 4.853 3.2585 4.8648C3.25365 4.8766 3.25119 4.88925 3.25124 4.902V7.07376C3.25119 7.08652 3.25365 7.09916 3.2585 7.11096C3.26334 7.12277 3.27047 7.1335 3.27948 7.14254C3.28848 7.15158 3.29918 7.15875 3.31096 7.16364C3.32274 7.16854 3.33537 7.17106 3.34813 7.17106H26.6508C26.6636 7.17106 26.6762 7.16854 26.688 7.16364C26.6998 7.15875 26.7105 7.15158 26.7195 7.14254C26.7285 7.1335 26.7356 7.12277 26.7405 7.11096C26.7453 7.09916 26.7478 7.08652 26.7477 7.07376V4.902C26.7478 4.88925 26.7453 4.8766 26.7405 4.8648C26.7356 4.853 26.7285 4.84227 26.7195 4.83323C26.7105 4.82419 26.6998 4.81702 26.688 4.81212C26.6762 4.80723 26.6636 4.80471 26.6508 4.80471H3.34813Z" fill="#1D1D1D"/>
<path d="M18.8152 4.80485H11.1847C11.0772 4.80485 10.9741 4.76213 10.898 4.6861C10.822 4.61008 10.7793 4.50696 10.7793 4.39944V2.03917C10.7796 1.71348 10.9091 1.40123 11.1394 1.17093C11.3697 0.940634 11.682 0.811113 12.0077 0.810791H17.9923C18.3179 0.811113 18.6302 0.940634 18.8605 1.17093C19.0908 1.40123 19.2203 1.71348 19.2206 2.03917V4.39944C19.2206 4.50696 19.1779 4.61008 19.1019 4.6861C19.0259 4.76213 18.9227 4.80485 18.8152 4.80485ZM11.5901 3.99403H18.4098V2.03917C18.4097 1.92846 18.3657 1.82231 18.2874 1.74402C18.2091 1.66574 18.103 1.62171 17.9923 1.6216H12.0077C11.897 1.62171 11.7908 1.66574 11.7125 1.74402C11.6342 1.82231 11.5902 1.92846 11.5901 2.03917V3.99403Z" fill="#1D1D1D"/>
<path d="M18.9771 23.3144H18.9451C18.8379 23.306 18.7385 23.2554 18.6687 23.1738C18.5988 23.0921 18.5642 22.9861 18.5725 22.879L19.3379 13.0025C19.3414 12.9492 19.3555 12.8971 19.3794 12.8493C19.4032 12.8015 19.4365 12.759 19.477 12.7243C19.5176 12.6895 19.5647 12.6632 19.6156 12.647C19.6665 12.6307 19.7201 12.6248 19.7733 12.6295C19.8264 12.6336 19.8782 12.6482 19.9257 12.6723C19.9732 12.6964 20.0155 12.7297 20.0501 12.7701C20.0848 12.8106 20.1111 12.8575 20.1276 12.9082C20.1441 12.9588 20.1504 13.0122 20.1463 13.0653L19.3809 22.9402C19.373 23.0419 19.3271 23.137 19.2522 23.2063C19.1774 23.2757 19.0791 23.3143 18.9771 23.3144Z" fill="#1D1D1D"/>
<path d="M15.0001 23.3142C14.8926 23.3142 14.7895 23.2715 14.7135 23.1955C14.6374 23.1195 14.5947 23.0164 14.5947 22.9088V13.0336C14.5947 12.9261 14.6374 12.8229 14.7135 12.7469C14.7895 12.6709 14.8926 12.6282 15.0001 12.6282C15.1077 12.6282 15.2108 12.6709 15.2868 12.7469C15.3628 12.8229 15.4055 12.9261 15.4055 13.0336V22.9088C15.4055 23.0164 15.3628 23.1195 15.2868 23.1955C15.2108 23.2715 15.1077 23.3142 15.0001 23.3142Z" fill="#1D1D1D"/>
<path d="M11.0227 23.3146C10.9204 23.3149 10.8217 23.2765 10.7466 23.2071C10.6714 23.1377 10.6252 23.0424 10.6173 22.9404L9.85475 13.0655C9.8506 13.0124 9.85695 12.959 9.87345 12.9083C9.88995 12.8577 9.91627 12.8108 9.95091 12.7703C9.98555 12.7298 10.0278 12.6966 10.0753 12.6725C10.1228 12.6483 10.1746 12.6338 10.2277 12.6297C10.2809 12.625 10.3345 12.6311 10.3853 12.6474C10.4362 12.6637 10.4832 12.69 10.5238 12.7247C10.5643 12.7594 10.5975 12.8019 10.6215 12.8497C10.6454 12.8974 10.6596 12.9494 10.6631 13.0027L11.4273 22.8779C11.4356 22.9851 11.401 23.0911 11.3311 23.1728C11.2613 23.2544 11.1619 23.305 11.0548 23.3133L11.0227 23.3146Z" fill="#1D1D1D"/>
</svg>
