<svg width="22" height="22" viewBox="0 0 22 22" fill="none" xmlns="http://www.w3.org/2000/svg">
<g clip-path="url(#clip0)">
<path d="M9.84605 21.1406C9.84605 21.6153 9.46118 22 8.98651 22H0.859375C0.384705 22 0 21.6153 0 21.1406V0.859375C0 0.384705 0.384705 0 0.859375 0H8.98668C9.46118 0 9.84605 0.384705 9.84605 0.859375C9.84605 1.33405 9.46135 1.71875 8.98668 1.71875H1.71875V20.2812H8.98651C9.46118 20.2812 9.84605 20.666 9.84605 21.1406ZM21.7487 10.3922L16.8874 5.53088C16.5517 5.19536 16.0077 5.19536 15.672 5.53088C15.3365 5.86658 15.3365 6.41057 15.672 6.74626L19.0664 10.1406H4.12517C3.6505 10.1406 3.26579 10.5253 3.26579 11C3.26579 11.4747 3.6505 11.8594 4.12517 11.8594H19.0664L15.672 15.2536C15.3365 15.5893 15.3365 16.1334 15.672 16.4689C16.0077 16.8046 16.5519 16.8045 16.8874 16.4689L21.7489 11.6076C21.8642 11.4926 21.9507 11.3365 21.9841 11.1678C22.0376 10.8974 21.9562 10.5995 21.7487 10.3922Z" fill="#1D1D1D"/>
</g>
<defs>
<clipPath id="clip0">
<rect width="22" height="22" fill="white"/>
</clipPath>
</defs>
</svg>
