<svg width="100" height="100" viewBox="0 0 100 100" fill="none" xmlns="http://www.w3.org/2000/svg">
<path d="M96.0938 46.0938H3.90625C1.74883 46.0938 0 47.8426 0 50C0 52.1574 1.74883 53.9062 3.90625 53.9062H96.0938C98.2512 53.9062 100 52.1574 100 50C100 47.8426 98.2512 46.0938 96.0938 46.0938Z" fill="#1D1D1D"/>
<path d="M96.0938 14.8438H3.90625C1.74883 14.8438 0 16.5926 0 18.75C0 20.9074 1.74883 22.6562 3.90625 22.6562H96.0938C98.2512 22.6562 100 20.9074 100 18.75C100 16.5926 98.2512 14.8438 96.0938 14.8438Z" fill="#1D1D1D"/>
<path d="M96.0938 77.3438H3.90625C1.74883 77.3438 0 79.0926 0 81.25C0 83.4074 1.74883 85.1562 3.90625 85.1562H96.0938C98.2512 85.1562 100 83.4074 100 81.25C100 79.0926 98.2512 77.3438 96.0938 77.3438Z" fill="#1D1D1D"/>
</svg>
