<svg width="53" height="65" viewBox="0 0 53 65" fill="none" xmlns="http://www.w3.org/2000/svg">
<path d="M42.2289 25.2016L40.768 26.7984L47.4118 32.8889C48.9759 34.3279 49.8675 36.3553 49.868 38.48V65H52.0347V38.48C52.032 35.7473 50.8858 33.1413 48.8735 31.2918L42.2289 25.2016Z" fill="#07359B"/>
<path d="M33.618 0H5.45133C2.46133 0.00379167 0.0384597 2.42667 0.034668 5.41667V59.5833C0.0384597 62.5733 2.46133 64.9962 5.45133 65H32.5347V63.0619C32.5295 58.1818 33.9741 53.4089 36.686 49.3512C36.9731 48.9212 36.9154 48.3489 36.5506 47.9841L28.9672 40.4007C28.2663 39.699 27.8948 38.734 27.9438 37.7436C27.9931 36.7526 28.4586 35.8296 29.2251 35.2007C30.7014 34.0722 32.7892 34.2333 34.0752 35.5742L44.7687 46.2681L46.3006 44.7362L39.0347 37.4682V5.41667C39.0309 2.42667 36.608 0.00379167 33.618 0ZM36.868 35.3015L35.607 34.0405C33.5286 31.9172 30.186 31.6959 27.846 33.5275C26.6083 34.5448 25.8573 36.0382 25.779 37.6391C25.701 39.2397 26.3022 40.7989 27.4354 41.9326L34.4012 48.8987C31.8034 53.085 30.4102 57.9069 30.3756 62.8333H5.45133C3.65679 62.8333 2.20133 61.3779 2.20133 59.5833V56.3333H29.2847V54.1667H2.20133V8.66667H36.868V35.3015ZM36.868 6.5H2.20133V5.41667C2.20133 3.62212 3.65679 2.16667 5.45133 2.16667H33.618C35.4125 2.16667 36.868 3.62212 36.868 5.41667V6.5Z" fill="#07359B"/>
<path d="M6.53467 19.5H10.868C12.0648 19.5 13.0347 18.5301 13.0347 17.3333V13C13.0347 11.8032 12.0648 10.8333 10.868 10.8333H6.53467C5.33786 10.8333 4.368 11.8032 4.368 13V17.3333C4.368 18.5301 5.33786 19.5 6.53467 19.5ZM6.53467 13H10.868V17.3333H6.53467V13Z" fill="#07359B"/>
<path d="M17.368 19.5H21.7013C22.8981 19.5 23.868 18.5301 23.868 17.3333V13C23.868 11.8032 22.8981 10.8333 21.7013 10.8333H17.368C16.1712 10.8333 15.2013 11.8032 15.2013 13V17.3333C15.2013 18.5301 16.1712 19.5 17.368 19.5ZM17.368 13H21.7013V17.3333H17.368V13Z" fill="#07359B"/>
<path d="M28.2013 19.5H32.5347C33.7315 19.5 34.7013 18.5301 34.7013 17.3333V13C34.7013 11.8032 33.7315 10.8333 32.5347 10.8333H28.2013C27.0045 10.8333 26.0347 11.8032 26.0347 13V17.3333C26.0347 18.5301 27.0045 19.5 28.2013 19.5ZM28.2013 13H32.5347V17.3333H28.2013V13Z" fill="#07359B"/>
<path d="M6.53467 30.3333H10.868C12.0648 30.3333 13.0347 29.3635 13.0347 28.1667V23.8334C13.0347 22.6365 12.0648 21.6667 10.868 21.6667H6.53467C5.33786 21.6667 4.368 22.6365 4.368 23.8334V28.1667C4.368 29.3635 5.33786 30.3333 6.53467 30.3333ZM6.53467 23.8334H10.868V28.1667H6.53467V23.8334Z" fill="#07359B"/>
<path d="M6.53467 41.1667H10.868C12.0648 41.1667 13.0347 40.1968 13.0347 39V34.6667C13.0347 33.4699 12.0648 32.5 10.868 32.5H6.53467C5.33786 32.5 4.368 33.4699 4.368 34.6667V39C4.368 40.1968 5.33786 41.1667 6.53467 41.1667ZM6.53467 34.6667H10.868V39H6.53467V34.6667Z" fill="#07359B"/>
<path d="M17.368 30.3333H21.7013C22.8981 30.3333 23.868 29.3635 23.868 28.1667V23.8334C23.868 22.6365 22.8981 21.6667 21.7013 21.6667H17.368C16.1712 21.6667 15.2013 22.6365 15.2013 23.8334V28.1667C15.2013 29.3635 16.1712 30.3333 17.368 30.3333ZM17.368 23.8334H21.7013V28.1667H17.368V23.8334Z" fill="#07359B"/>
<path d="M28.2013 30.3333H32.5347C33.7315 30.3333 34.7013 29.3635 34.7013 28.1667V23.8334C34.7013 22.6365 33.7315 21.6667 32.5347 21.6667H28.2013C27.0045 21.6667 26.0347 22.6365 26.0347 23.8334V28.1667C26.0347 29.3635 27.0045 30.3333 28.2013 30.3333ZM28.2013 23.8334H32.5347V28.1667H28.2013V23.8334Z" fill="#07359B"/>
<path d="M17.368 41.1667H21.7013C22.8981 41.1667 23.868 40.1968 23.868 39V34.6667C23.868 33.4699 22.8981 32.5 21.7013 32.5H17.368C16.1712 32.5 15.2013 33.4699 15.2013 34.6667V39C15.2013 40.1968 16.1712 41.1667 17.368 41.1667ZM17.368 34.6667H21.7013V39H17.368V34.6667Z" fill="#07359B"/>
<path d="M6.53467 52H10.868C12.0648 52 13.0347 51.0301 13.0347 49.8333V45.5C13.0347 44.3032 12.0648 43.3333 10.868 43.3333H6.53467C5.33786 43.3333 4.368 44.3032 4.368 45.5V49.8333C4.368 51.0301 5.33786 52 6.53467 52ZM6.53467 45.5H10.868V49.8333H6.53467V45.5Z" fill="#07359B"/>
<path d="M17.368 52H21.7013C22.8981 52 23.868 51.0301 23.868 49.8333V45.5C23.868 44.3032 22.8981 43.3333 21.7013 43.3333H17.368C16.1712 43.3333 15.2013 44.3032 15.2013 45.5V49.8333C15.2013 51.0301 16.1712 52 17.368 52ZM17.368 45.5H21.7013V49.8333H17.368V45.5Z" fill="#07359B"/>
<path d="M18.4513 58.5H20.618V60.6667H18.4513V58.5Z" fill="#07359B"/>
</svg>
