<svg width="160" height="160" viewBox="0 0 160 160" fill="none" xmlns="http://www.w3.org/2000/svg">
<rect width="160" height="160" rx="80" fill="#07359B" fill-opacity="0.05"/>
<path d="M80 115C70.6512 115 61.8618 111.359 55.2512 104.749C48.6405 98.1382 45 89.3488 45 80C45 70.6512 48.6407 61.8619 55.2512 55.2512C61.8617 48.6404 70.6512 45 80 45C89.3488 45 98.1382 48.6405 104.749 55.2512C111.359 61.8618 115 70.6512 115 80C115 89.3488 111.359 98.1381 104.749 104.749C98.1383 111.36 89.3488 115 80 115ZM80 49.375C63.1133 49.375 49.375 63.1133 49.375 80C49.375 96.8867 63.1133 110.625 80 110.625C96.8867 110.625 110.625 96.8867 110.625 80C110.625 63.1133 96.8867 49.375 80 49.375Z" fill="#07359B"/>
<path d="M80 77.8125C76.9845 77.8125 74.5312 75.3592 74.5312 72.3438C74.5312 69.3283 76.9845 66.875 80 66.875C83.0155 66.875 85.4688 69.3283 85.4688 72.3438C85.4688 73.5518 86.4481 74.5312 87.6562 74.5312C88.8644 74.5312 89.8438 73.5518 89.8438 72.3438C89.8438 67.6678 86.5655 63.7458 82.1875 62.748V60.3125C82.1875 59.1045 81.2082 58.125 80 58.125C78.7918 58.125 77.8125 59.1045 77.8125 60.3125V62.748C73.4345 63.7458 70.1562 67.6678 70.1562 72.3438C70.1562 77.7716 74.5721 82.1875 80 82.1875C83.0155 82.1875 85.4688 84.6408 85.4688 87.6562C85.4688 90.6717 83.0155 93.125 80 93.125C76.9845 93.125 74.5312 90.6717 74.5312 87.6562C74.5312 86.4482 73.5519 85.4688 72.3438 85.4688C71.1356 85.4688 70.1562 86.4482 70.1562 87.6562C70.1562 92.3322 73.4345 96.2542 77.8125 97.252V99.6875C77.8125 100.896 78.7918 101.875 80 101.875C81.2082 101.875 82.1875 100.896 82.1875 99.6875V97.252C86.5655 96.2542 89.8438 92.3322 89.8438 87.6562C89.8438 82.2284 85.4279 77.8125 80 77.8125Z" fill="#07359B"/>
</svg>
