<svg width="28" height="28" viewBox="0 0 28 28" fill="none" xmlns="http://www.w3.org/2000/svg">
<g clip-path="url(#clip0)">
<path d="M26.155 23.0572C23.7826 20.6996 22.5802 17.9093 22.5802 14.7636V10.1849C22.6021 6.69404 20.2546 4.37869 18.2376 3.45673C17.6598 3.19251 17.0642 2.98887 16.4589 2.83767V2.54545C16.4589 1.14189 15.317 0 13.9134 0C12.5098 0 11.3679 1.14189 11.3679 2.54545V2.88196C10.8227 3.02909 10.2866 3.22102 9.76635 3.46131C7.53704 4.48865 5.27871 6.96487 5.25835 10.1818V14.7636C5.25835 18.0157 4.10984 20.806 1.8449 23.0572C1.70999 23.1916 1.66111 23.3897 1.71813 23.5714C1.77515 23.7532 1.9294 23.8876 2.11726 23.9201L6.94904 24.7545C7.84911 24.9098 8.67791 25.0371 9.4665 25.142C10.3554 26.8831 12.1 28 14.0061 28C15.9126 28 17.6578 26.882 18.5456 25.1399C19.3311 25.0356 20.1559 24.9088 21.0509 24.754L25.8821 23.9196C26.07 23.8876 26.2237 23.7527 26.2813 23.5709C26.3388 23.3897 26.2899 23.1916 26.155 23.0572ZM12.3856 2.54545C12.3856 1.70342 13.0709 1.01818 13.9129 1.01818C14.7549 1.01818 15.4402 1.70342 15.4402 2.54545V2.63811C14.4255 2.49251 13.3962 2.49862 12.3856 2.66204V2.54545ZM14.0061 26.9818C12.717 26.9818 11.5125 26.3414 10.7392 25.2942C11.877 25.4113 12.939 25.4703 14.0005 25.4703C15.066 25.4703 16.1315 25.4113 17.2739 25.2927C16.5001 26.3409 15.2951 26.9818 14.0061 26.9818ZM20.8778 23.7506C19.9008 23.9191 19.0053 24.0561 18.1592 24.164C18.1582 24.164 18.1572 24.164 18.1562 24.164C17.7835 24.2113 17.421 24.2526 17.0662 24.2882C17.0626 24.2887 17.0586 24.2887 17.055 24.2892C16.7307 24.3218 16.4135 24.3478 16.0999 24.3707C16.0404 24.3753 15.9813 24.3788 15.9218 24.3829C15.6499 24.4007 15.3811 24.415 15.1138 24.4252C15.0589 24.4272 15.0039 24.4303 14.9489 24.4318C14.3156 24.4532 13.6909 24.4532 13.0581 24.4323C13.0021 24.4303 12.9451 24.4277 12.8891 24.4252C12.6254 24.415 12.3597 24.4012 12.0914 24.3834C12.0282 24.3793 11.9651 24.3753 11.9015 24.3707C11.596 24.3488 11.287 24.3228 10.9709 24.2918C10.9597 24.2908 10.949 24.2897 10.9383 24.2887C10.586 24.2536 10.2261 24.2124 9.85595 24.1655C9.85442 24.1655 9.85289 24.1655 9.85137 24.1655C9.0022 24.0581 8.10366 23.9201 7.12213 23.7511L3.22199 23.0771C5.2497 20.7587 6.27653 17.9668 6.27653 14.7636V10.1849C6.29384 7.41796 8.25588 5.27876 10.1919 4.38582C10.7677 4.12058 11.3649 3.92255 11.9722 3.78356C11.9773 3.78255 11.9829 3.78305 11.988 3.78204C13.2424 3.5 14.5778 3.48727 15.8469 3.74742C15.8535 3.74895 15.8602 3.74589 15.8668 3.74691C16.5306 3.88538 17.1843 4.09513 17.8141 4.38276C19.6921 5.2416 21.5793 7.36655 21.5615 10.1823V14.7641C21.5615 17.8355 22.6687 20.6915 24.7754 23.0781L20.8778 23.7506Z" fill="#1D1D1D"/>
<path d="M17.1796 5.7721C15.2069 4.8705 12.7913 4.86948 10.8318 5.77312C9.71434 6.28832 7.81899 7.79574 7.80372 10.1788C7.80219 10.4598 8.02823 10.6889 8.30975 10.6909C8.31077 10.6909 8.31179 10.6909 8.31281 10.6909C8.5923 10.6909 8.82037 10.4654 8.8219 10.1849C8.83361 8.31297 10.3588 7.11254 11.2579 6.69763C12.9537 5.91515 15.0486 5.91719 16.7556 6.69763C17.0111 6.81472 17.3135 6.70221 17.4306 6.44664C17.5477 6.19057 17.4352 5.88868 17.1796 5.7721Z" fill="#1D1D1D"/>
</g>
<defs>
<clipPath id="clip0">
<rect width="28" height="28" fill="white"/>
</clipPath>
</defs>
</svg>
