<svg width="25" height="25" viewBox="0 0 25 25" fill="none" xmlns="http://www.w3.org/2000/svg">
<g clip-path="url(#clip0)">
<path d="M18.7499 10.2773V6.24997C18.7499 2.80457 15.9469 0 12.5 0C9.05379 0 6.25 2.80457 6.25 6.24997V10.2773H9.37505V6.24997C9.37492 4.52565 10.7764 3.12492 12.5 3.12492C14.2227 3.12492 15.625 4.52573 15.625 6.24997V10.2773H18.7499Z" fill="#1D1D1D" fill-opacity="0.8"/>
<path d="M3.12494 14.0625V21.8751C3.12494 23.6009 4.5242 25.0001 6.24999 25.0001H18.75C20.4757 25.0001 21.875 23.6009 21.875 21.8751V14.0625C21.875 12.3368 20.4757 10.9375 18.7499 10.9375H6.24999C4.5242 10.9376 3.12494 12.3368 3.12494 14.0625ZM12.5 15.6251C13.3628 15.6251 14.0624 16.324 14.0624 17.1876C14.0624 17.7597 13.7397 18.2389 13.2811 18.5105V21.0938C13.2811 21.5257 12.9317 21.875 12.4999 21.875C12.068 21.875 11.7186 21.5256 11.7186 21.0938V18.5105C11.26 18.2389 10.9373 17.7597 10.9373 17.1876C10.9375 16.3239 11.6371 15.6251 12.5 15.6251Z" fill="#1D1D1D" fill-opacity="0.8"/>
</g>
<defs>
<clipPath id="clip0">
<rect width="25" height="25" fill="white"/>
</clipPath>
</defs>
</svg>
