<svg width="25" height="25" viewBox="0 0 25 25" fill="none" xmlns="http://www.w3.org/2000/svg">
<path d="M21.3389 3.66113C18.9779 1.3002 15.8389 0 12.5 0C9.16113 0 6.02207 1.3002 3.66113 3.66113C1.30024 6.02207 0 9.16113 0 12.5C0 15.8389 1.30024 18.9779 3.66113 21.3389C6.02207 23.6998 9.16113 25 12.5 25C15.8389 25 18.9779 23.6998 21.3389 21.3389C23.6998 18.9779 25 15.8389 25 12.5C25 9.16113 23.6998 6.02207 21.3389 3.66113ZM12.5 23.5352C6.41519 23.5352 1.46484 18.5848 1.46484 12.5C1.46484 6.41519 6.41519 1.46484 12.5 1.46484C18.5848 1.46484 23.5352 6.41519 23.5352 12.5C23.5352 18.5848 18.5848 23.5352 12.5 23.5352Z" fill="#1D1D1D"/>
<path d="M13.2848 11.7676H11.7158C10.8219 11.7676 10.0947 11.0404 10.0947 10.1465C10.0947 9.25263 10.8219 8.52544 11.7158 8.52544H14.8538C15.2583 8.52544 15.5862 8.19751 15.5862 7.79301C15.5862 7.38852 15.2583 7.06059 14.8538 7.06059H13.2327V5.4395C13.2327 5.03501 12.9048 4.70708 12.5003 4.70708C12.0958 4.70708 11.7679 5.03501 11.7679 5.4395V7.06059H11.7158C10.0142 7.06059 8.62988 8.44497 8.62988 10.1465C8.62988 11.8481 10.0143 13.2324 11.7158 13.2324H13.2849C14.1787 13.2324 14.9059 13.9597 14.9059 14.8535C14.9059 15.7474 14.1787 16.4746 13.2849 16.4746H10.1468C9.74234 16.4746 9.41441 16.8025 9.41441 17.207C9.41441 17.6115 9.74234 17.9394 10.1468 17.9394H11.7679V19.5606C11.7679 19.9651 12.0958 20.293 12.5003 20.293C12.9048 20.293 13.2327 19.9651 13.2327 19.5606V17.9394H13.2848C14.9864 17.9394 16.3707 16.5551 16.3707 14.8535C16.3707 13.152 14.9864 11.7676 13.2848 11.7676Z" fill="#1D1D1D"/>
</svg>
