<svg width="40" height="40" viewBox="0 0 40 40" fill="none" xmlns="http://www.w3.org/2000/svg">
<g clip-path="url(#clip0)">
<path d="M38.4727 7.39849L13.9746 2.21401C12.9381 1.99473 11.9108 2.66343 11.6915 3.69991L11.2261 6.6909L39.4927 12.6726L39.9582 9.68158C40.1774 8.64549 39.5091 7.61784 38.4727 7.39849Z" fill="#1D1D1D"/>
<path d="M28.1705 13.3069C27.8843 12.2765 26.8075 11.6674 25.7773 11.9531L21.1267 13.2441L10.1631 10.9238L8.95735 16.6209L1.4237 18.7119C0.39363 18.9977 -0.215459 20.0745 0.070229 21.1047L4.31588 36.404C4.60202 37.4341 5.67896 38.0435 6.70903 37.7575L31.0627 30.9991C32.0927 30.7129 32.7018 29.6364 32.4161 28.6059L31.6874 25.9795L34.4187 26.5569C35.4552 26.7766 36.4825 26.1079 36.7018 25.0714L38.4298 16.9056L28.5915 14.8237L28.1705 13.3069ZM30.983 21.0827L31.5853 18.2361C31.6757 17.8099 32.0983 17.535 32.5245 17.625L35.371 18.2277C35.7977 18.3181 36.0726 18.7403 35.9826 19.1669L35.3803 22.0134C35.2898 22.4397 34.8673 22.7149 34.441 22.6246L31.5945 22.0223C31.1675 21.9315 30.8925 21.5089 30.983 21.0827ZM1.8475 20.2387L8.58708 18.369L24.4891 13.9561L26.2003 13.4806C26.2315 13.4722 26.2627 13.4682 26.2931 13.4682C26.4304 13.4682 26.5945 13.5583 26.6425 13.7308L26.8434 14.4543L27.4729 16.7226L2.42776 23.6727L1.59736 20.6813C1.54534 20.4936 1.65985 20.2907 1.8475 20.2387ZM30.8889 29.0292C30.921 29.1453 30.8874 29.2413 30.8533 29.3014C30.8197 29.3614 30.7549 29.4399 30.6388 29.4719L6.28563 36.2303C6.25484 36.2387 6.22321 36.2431 6.19275 36.2431C6.0555 36.2431 5.89138 36.1526 5.8434 35.9801L3.36705 27.0563L28.4122 20.1058L29.9397 25.6096L30.8889 29.0292Z" fill="#1D1D1D"/>
<path d="M10.221 29.6401C10.1041 29.22 9.66546 28.9718 9.24526 29.0883L6.40113 29.8779C5.98132 29.9943 5.73282 30.4334 5.84968 30.8536L6.63884 33.6973C6.7557 34.1175 7.19433 34.3656 7.61453 34.2487L10.4587 33.4596C10.8789 33.3431 11.127 32.9041 11.0105 32.4839L10.221 29.6401Z" fill="#1D1D1D"/>
</g>
<defs>
<clipPath id="clip0">
<rect width="40" height="40" fill="white"/>
</clipPath>
</defs>
</svg>
