<svg width="40" height="40" viewBox="0 0 40 40" fill="none" xmlns="http://www.w3.org/2000/svg">
<g clip-path="url(#clip0)">
<path d="M38.4725 7.39849L13.9745 2.21401C12.938 1.99473 11.9107 2.66343 11.6914 3.69991L11.226 6.6909L39.4926 12.6726L39.958 9.68158C40.1773 8.64549 39.509 7.61784 38.4725 7.39849Z" fill="#07359B"/>
<path d="M28.1704 13.3069C27.8842 12.2765 26.8073 11.6674 25.7772 11.9531L21.1266 13.2441L10.163 10.9238L8.95722 16.6209L1.42358 18.7119C0.393508 18.9977 -0.215581 20.0745 0.0701069 21.1047L4.31576 36.404C4.6019 37.4341 5.67884 38.0435 6.70891 37.7575L31.0625 30.9991C32.0926 30.7129 32.7017 29.6364 32.416 28.6059L31.6872 25.9795L34.4186 26.5569C35.455 26.7766 36.4824 26.1079 36.7017 25.0714L38.4297 16.9056L28.5913 14.8237L28.1704 13.3069ZM30.9829 21.0827L31.5852 18.2361C31.6756 17.8099 32.0982 17.535 32.5244 17.625L35.3709 18.2277C35.7975 18.3181 36.0724 18.7403 35.9824 19.1669L35.3801 22.0134C35.2897 22.4397 34.8671 22.7149 34.4409 22.6246L31.5944 22.0223C31.1674 21.9315 30.8924 21.5089 30.9829 21.0827ZM1.84737 20.2387L8.58696 18.369L24.489 13.9561L26.2001 13.4806C26.2314 13.4722 26.2626 13.4682 26.293 13.4682C26.4303 13.4682 26.5944 13.5583 26.6424 13.7308L26.8433 14.4543L27.4728 16.7226L2.42764 23.6727L1.59724 20.6813C1.54521 20.4936 1.65973 20.2907 1.84737 20.2387ZM30.8888 29.0292C30.9208 29.1453 30.8872 29.2413 30.8532 29.3014C30.8196 29.3614 30.7548 29.4399 30.6387 29.4719L6.28551 36.2303C6.25472 36.2387 6.22309 36.2431 6.19263 36.2431C6.05537 36.2431 5.89126 36.1526 5.84328 35.9801L3.36693 27.0563L28.4121 20.1058L29.9396 25.6096L30.8888 29.0292Z" fill="#07359B"/>
<path d="M10.2208 29.6401C10.104 29.22 9.66534 28.9718 9.24514 29.0883L6.401 29.8779C5.9812 29.9943 5.7327 30.4334 5.84956 30.8536L6.63872 33.6973C6.75558 34.1175 7.19421 34.3656 7.61441 34.2487L10.4585 33.4596C10.8787 33.3431 11.1269 32.9041 11.0104 32.4839L10.2208 29.6401Z" fill="#07359B"/>
</g>
<defs>
<clipPath id="clip0">
<rect width="40" height="40" fill="white"/>
</clipPath>
</defs>
</svg>
