<svg width="35" height="35" viewBox="0 0 35 35" fill="none" xmlns="http://www.w3.org/2000/svg">
<g clip-path="url(#clip0)">
<path d="M32.6727 17.9535C32.5319 17.6653 32.5319 17.3349 32.6727 17.0468L33.9781 14.3764C34.7049 12.8895 34.129 11.1173 32.6671 10.3416L30.0414 8.94845C29.7582 8.7982 29.5639 8.53078 29.5085 8.21503L28.995 5.28729C28.709 3.6572 27.2012 2.56181 25.5628 2.79362L22.6198 3.20992C22.3021 3.25477 21.988 3.15264 21.7576 2.92972L19.6213 0.863092C18.4318 -0.287663 16.5683 -0.287731 15.3788 0.863092L13.2425 2.92993C13.012 3.15291 12.6979 3.25484 12.3803 3.21013L9.43722 2.79382C7.79831 2.56188 6.291 3.6574 6.00505 5.28749L5.49154 8.2151C5.4361 8.53092 5.24189 8.79827 4.95868 8.94859L2.33302 10.3417C0.871091 11.1173 0.295235 12.8897 1.02203 14.3766L2.32734 17.0469C2.46816 17.3351 2.46816 17.6655 2.32734 17.9536L1.02196 20.624C0.295166 22.1108 0.871022 23.883 2.33295 24.6587L4.95861 26.0519C5.24189 26.2021 5.4361 26.4695 5.49154 26.7853L6.00505 29.713C6.26536 31.197 7.5378 32.2377 9.0002 32.2375C9.14423 32.2375 9.29039 32.2274 9.43729 32.2066L12.3803 31.7903C12.6977 31.7453 13.0121 31.8476 13.2426 32.0705L15.3788 34.1372C15.9737 34.7126 16.7367 35.0003 17.5 35.0002C18.2631 35.0001 19.0266 34.7125 19.6212 34.1372L21.7576 32.0705C21.9881 31.8476 22.3022 31.7458 22.6198 31.7903L25.5628 32.2066C27.2019 32.4385 28.709 31.3431 28.995 29.713L29.5086 26.7854C29.564 26.4695 29.7582 26.2022 30.0414 26.0519L32.6671 24.6587C34.129 23.8831 34.7049 22.1108 33.9781 20.6239L32.6727 17.9535ZM13.4627 8.41621C15.5033 8.41621 17.1636 10.0764 17.1636 12.1171C17.1636 14.1578 15.5033 15.818 13.4627 15.818C11.422 15.818 9.76179 14.1578 9.76179 12.1171C9.76179 10.0764 11.422 8.41621 13.4627 8.41621ZM11.5525 24.875C11.3554 25.0721 11.097 25.1707 10.8388 25.1707C10.5805 25.1707 10.3221 25.0721 10.1251 24.875C9.73096 24.4808 9.73096 23.8418 10.1251 23.4476L23.4475 10.1252C23.8416 9.73103 24.4808 9.73103 24.8749 10.1252C25.2691 10.5193 25.2691 11.1584 24.8749 11.5526L11.5525 24.875ZM21.5372 26.5841C19.4966 26.5841 17.8363 24.9239 17.8363 22.8832C17.8363 20.8426 19.4966 19.1823 21.5372 19.1823C23.5779 19.1823 25.2381 20.8426 25.2381 22.8832C25.2381 24.9239 23.5779 26.5841 21.5372 26.5841Z" fill="#07359B"/>
<path d="M21.5372 21.2009C20.6097 21.2009 19.855 21.9555 19.855 22.8831C19.855 23.8107 20.6096 24.5653 21.5372 24.5653C22.4648 24.5653 23.2194 23.8107 23.2194 22.8831C23.2194 21.9555 22.4648 21.2009 21.5372 21.2009Z" fill="#07359B"/>
<path d="M13.4627 10.4348C12.5351 10.4348 11.7805 11.1894 11.7805 12.117C11.7805 13.0446 12.5351 13.7993 13.4627 13.7993C14.3903 13.7993 15.1449 13.0446 15.1449 12.117C15.1449 11.1895 14.3903 10.4348 13.4627 10.4348Z" fill="#07359B"/>
</g>
<defs>
<clipPath id="clip0">
<rect width="35" height="35" fill="white"/>
</clipPath>
</defs>
</svg>
