<svg width="26" height="26" viewBox="0 0 26 26" fill="none" xmlns="http://www.w3.org/2000/svg">
<path d="M16.708 3.21277C16.4467 1.38129 14.8525 0 13 0C11.8086 0 10.6771 0.574903 9.97362 1.53841C9.82993 1.73491 9.87292 2.01055 10.0694 2.15424C10.2653 2.29742 10.5416 2.25494 10.685 2.05819C11.2235 1.32139 12.0887 0.881398 12.9998 0.881398C14.4166 0.881398 15.6355 1.93722 15.8354 3.3371C15.8669 3.55696 16.0555 3.71563 16.2712 3.71563C16.2917 3.71563 16.3129 3.71408 16.334 3.71124C16.5749 3.67677 16.7423 3.45355 16.708 3.21277Z" fill="#1D1D1D"/>
<path d="M23.0726 8.14597L21.7506 5.94255C21.6711 5.8097 21.5276 5.72862 21.3727 5.72862H20.1058C19.8626 5.72862 19.6652 5.92602 19.6652 6.16926C19.6652 6.41249 19.8626 6.60989 20.1058 6.60989H21.1233L21.9165 7.93192H4.08314L4.87635 6.60989H5.34307C5.5863 6.60989 5.7837 6.41249 5.7837 6.16926C5.7837 5.92602 5.5863 5.72862 5.34307 5.72862H4.62692C4.472 5.72862 4.32856 5.8097 4.24904 5.94255L2.927 8.14597C2.84528 8.28231 2.84334 8.45182 2.92145 8.58996C2.99956 8.72811 3.14596 8.81357 3.30489 8.81357H22.6947C22.8537 8.81357 22.9999 8.72811 23.0782 8.58996C23.1564 8.45182 23.1543 8.28205 23.0726 8.14597Z" fill="#1D1D1D"/>
<path d="M20.8762 4.08268C20.8145 3.98314 20.716 3.91253 20.6022 3.88593L14.5948 2.48088C14.481 2.45416 14.3612 2.47404 14.2618 2.53549C14.1627 2.59721 14.0919 2.69571 14.0653 2.80958L13.6123 4.74615C13.5568 4.98306 13.704 5.2201 13.941 5.27535C14.1779 5.33087 14.4152 5.18369 14.4705 4.94665L14.8232 3.43936L19.9723 4.64377L19.1632 8.10313C19.1076 8.34004 19.2548 8.57708 19.4919 8.63233C19.5258 8.64021 19.5595 8.64395 19.5928 8.64395C19.7929 8.64395 19.9741 8.50684 20.0212 8.30376L20.9307 4.41539C20.9576 4.30165 20.938 4.18184 20.8762 4.08268Z" fill="#1D1D1D"/>
<path d="M13.2329 5.12443L12.8314 1.72833C12.8177 1.61227 12.7585 1.50627 12.6665 1.43397C12.5746 1.36167 12.4585 1.32862 12.342 1.34231L4.97137 2.21351C4.72981 2.24217 4.55707 2.46113 4.5856 2.70294L5.25501 8.36715C5.28161 8.59141 5.47178 8.75627 5.69216 8.75627C5.70933 8.75627 5.72702 8.75511 5.74458 8.75317C5.986 8.72451 6.15874 8.50555 6.13034 8.26374L5.51257 3.03681L12.008 2.26915L12.3576 5.22758C12.3862 5.46927 12.6042 5.64098 12.847 5.61361C13.0886 5.5852 13.2613 5.36611 13.2329 5.12443Z" fill="#1D1D1D"/>
<path d="M16.718 8.20537L15.8434 4.56798C15.816 4.45449 15.7446 4.35624 15.6451 4.29518C15.5455 4.23463 15.4261 4.21565 15.3118 4.24276L8.21276 5.95004C7.97611 6.00685 7.83048 6.24492 7.88728 6.48156L8.32443 8.29962C8.38124 8.53652 8.61931 8.68228 8.85583 8.62509C9.09247 8.56828 9.2381 8.33021 9.1813 8.09356L8.84705 6.70388L15.0893 5.20291L15.8609 8.41168C15.9093 8.61373 16.0901 8.74929 16.289 8.74929C16.3232 8.74929 16.3578 8.74528 16.3926 8.73689C16.6292 8.67996 16.7748 8.44202 16.718 8.20537Z" fill="#1D1D1D"/>
<path d="M23.1352 8.35037C23.1231 8.11617 22.9297 7.93233 22.695 7.93233H3.30514C3.07042 7.93233 2.87702 8.11604 2.86489 8.35037L1.98349 25.5368C1.97729 25.6574 2.02093 25.7754 2.10407 25.8629C2.18735 25.9503 2.30277 26 2.42361 26H23.5761C23.6968 26 23.8124 25.9504 23.896 25.8629C23.9791 25.7754 24.0227 25.6575 24.0166 25.5368L23.1352 8.35037ZM2.88735 25.1186L3.72356 8.8136H22.276L23.1122 25.1186H2.88735Z" fill="#1D1D1D"/>
<path d="M16.3049 9.69485C15.5759 9.69485 14.9829 10.2878 14.9829 11.0169C14.9829 11.7459 15.5759 12.3389 16.3049 12.3389C17.034 12.3389 17.627 11.7459 17.627 11.0169C17.627 10.2878 17.034 9.69485 16.3049 9.69485ZM16.3049 11.4576C16.0618 11.4576 15.8643 11.26 15.8643 11.017C15.8643 10.774 16.062 10.5764 16.3049 10.5764C16.5479 10.5764 16.7456 10.774 16.7456 11.017C16.7456 11.26 16.5479 11.4576 16.3049 11.4576Z" fill="#1D1D1D"/>
<path d="M9.69459 9.69485C8.96554 9.69485 8.37256 10.2878 8.37256 11.0169C8.37256 11.7459 8.96554 12.3389 9.69459 12.3389C10.4236 12.3389 11.0166 11.7459 11.0166 11.0169C11.0166 10.2878 10.4236 9.69485 9.69459 9.69485ZM9.69459 11.4576C9.45162 11.4576 9.25396 11.26 9.25396 11.017C9.25396 10.774 9.45162 10.5764 9.69459 10.5764C9.93756 10.5764 10.1352 10.774 10.1352 11.017C10.1352 11.26 9.93756 11.4576 9.69459 11.4576Z" fill="#1D1D1D"/>
<path d="M16.3047 11.0169H16.2707C16.0275 11.0169 15.8301 11.2143 15.8301 11.4575C15.8301 11.5177 15.842 11.5751 15.8641 11.6274V13.8812C15.8641 15.4605 14.5791 16.7456 12.9996 16.7456C11.4201 16.7456 10.1352 15.4607 10.1352 13.8812V11.4577C10.1352 11.2144 9.93777 11.017 9.69454 11.017C9.45131 11.017 9.25391 11.2144 9.25391 11.4577V13.8813C9.25391 15.9467 10.9342 17.627 12.9996 17.627C15.065 17.627 16.7453 15.9467 16.7453 13.8813V11.4577C16.7453 11.2144 16.5479 11.0169 16.3047 11.0169Z" fill="#1D1D1D"/>
</svg>
