<svg width="40" height="36" viewBox="0 0 40 36" fill="none" xmlns="http://www.w3.org/2000/svg">
<path d="M1.33333 18.0002C1.33333 12.1188 6.11867 7.3335 12 7.3335H26.3907L21.5287 12.1955C21.268 12.4562 21.268 12.8775 21.5287 13.1382C21.6587 13.2682 21.8293 13.3335 22 13.3335C22.1707 13.3335 22.3413 13.2682 22.4713 13.1382L28.4707 7.13883C28.5327 7.0775 28.5813 7.0035 28.6153 6.9215C28.6827 6.75883 28.6827 6.57483 28.6153 6.41217C28.5813 6.33017 28.5327 6.25683 28.4707 6.19483L22.4713 0.1955C22.2107 -0.0651667 21.7893 -0.0651667 21.5287 0.1955C21.268 0.456167 21.268 0.8775 21.5287 1.13817L26.3907 6.00017H12C5.38333 6.00017 0 11.3835 0 18.0002C0 21.1908 1.25067 24.2002 3.52133 26.4728C3.65133 26.6028 3.82267 26.6682 3.99333 26.6682C4.164 26.6682 4.33467 26.6028 4.46467 26.4728C4.72533 26.2128 4.72533 25.7908 4.46467 25.5302C2.44533 23.5095 1.33333 20.8355 1.33333 18.0002Z" fill="#07359B"/>
<path d="M37.1286 10.2328C36.8899 9.95209 36.4679 9.91809 36.1893 10.1581C35.9086 10.3968 35.8753 10.8174 36.1146 11.0974C37.7606 13.0274 38.6666 15.4788 38.6666 18.0001C38.6666 23.8814 33.8813 28.6667 27.9999 28.6667H12.2759L17.1379 23.8047C17.3986 23.5441 17.3986 23.1227 17.1379 22.8621C16.8773 22.6014 16.4559 22.6014 16.1953 22.8621L10.1953 28.8621C9.93459 29.1227 9.93459 29.5441 10.1953 29.8047L16.1953 35.8047C16.3253 35.9347 16.4959 36.0001 16.6666 36.0001C16.8373 36.0001 17.0079 35.9347 17.1379 35.8047C17.3986 35.5441 17.3986 35.1227 17.1379 34.8621L12.2759 30.0001H27.9999C34.6166 30.0001 39.9999 24.6167 39.9999 18.0001C39.9999 15.1621 38.9806 12.4028 37.1286 10.2328Z" fill="#07359B"/>
</svg>
