<svg width="20" height="22" viewBox="0 0 20 22" fill="none" xmlns="http://www.w3.org/2000/svg">
<path d="M16.3957 14.7703C15.2477 14.7703 14.2241 15.3105 13.5636 16.1493L6.94883 12.3303C7.11573 11.9156 7.2085 11.4633 7.2085 10.9895C7.2085 10.5157 7.11569 10.0634 6.94883 9.64857L13.5636 5.82958C14.2242 6.66838 15.2477 7.20858 16.3957 7.20858C18.3831 7.20858 20 5.59168 20 3.60431C20 1.6169 18.3832 0 16.3957 0C14.4083 0 12.7915 1.61686 12.7915 3.60423C12.7915 4.07806 12.8843 4.53043 13.0513 4.94528L6.43653 8.76427C5.77601 7.92538 4.75236 7.38514 3.60427 7.38514C1.61686 7.38514 0 9.00205 0 10.9894C0 12.9768 1.61686 14.5937 3.60427 14.5937C4.75236 14.5937 5.77601 14.0534 6.43653 13.2146L13.0513 17.0336C12.8843 17.4484 12.7915 17.9008 12.7915 18.3746C12.7915 20.3621 14.4083 21.9789 16.3957 21.9789C18.3831 21.9789 20 20.362 20 18.3746C20 16.3873 18.3832 14.7703 16.3957 14.7703ZM16.3957 1.02202C17.8196 1.02202 18.978 2.18041 18.978 3.60423C18.978 5.02809 17.8196 6.18652 16.3957 6.18652C14.9719 6.18652 13.8134 5.02809 13.8134 3.60423C13.8135 2.18037 14.9719 1.02202 16.3957 1.02202ZM3.60427 13.5717C2.18041 13.5717 1.02197 12.4133 1.02197 10.9894C1.02197 9.56555 2.18037 8.40711 3.60427 8.40711C5.02813 8.40711 6.18657 9.56555 6.18657 10.9894C6.18657 12.4133 5.02813 13.5717 3.60427 13.5717ZM16.3957 20.9568C14.9719 20.9568 13.8134 19.7984 13.8134 18.3746C13.8134 16.9507 14.9718 15.7923 16.3957 15.7923C17.8196 15.7923 18.978 16.9507 18.978 18.3746C18.978 19.7985 17.8196 20.9568 16.3957 20.9568Z" fill="#1B5CBC"/>
<path d="M3.60421 9.47009C2.76644 9.47009 2.08484 10.1517 2.08484 10.9895C2.08484 11.2716 2.3136 11.5005 2.59585 11.5005C2.8781 11.5005 3.10686 11.2716 3.10686 10.9895C3.10686 10.7152 3.32995 10.4921 3.60421 10.4921C3.88642 10.4921 4.11522 10.2633 4.11522 9.9811C4.11522 9.6989 3.88642 9.47009 3.60421 9.47009Z" fill="#1B5CBC"/>
</svg>
