<svg width="512" height="512" viewBox="0 0 512 512" fill="none" xmlns="http://www.w3.org/2000/svg">
<g clip-path="url(#clip6545410)">
<path d="M91.3406 60.9282V83.3097L91.2508 151.942C91.239 160.372 94.2964 168.517 99.8488 174.858L121.613 199.719L39.2915 173.699V43.6579C39.3032 39.027 41.154 34.5874 44.4417 31.3192C47.7256 28.051 52.173 26.2198 56.8078 26.2315C75.9133 26.2978 91.364 41.8228 91.3406 60.9282Z" fill="#FDD7AD"/>
<path d="M158.915 92.0718L124.561 125.035L119.88 129.197L77.0262 167.799C75.273 169.622 74.4413 172.145 74.7732 174.651C75.1519 177.061 75.3276 179.497 75.2925 181.937V182.371H71.997C57.253 182.32 44.0826 191.566 39.1198 205.447L22.8998 250.901L17.9526 286.465L15.438 263.998C10.975 234.689 8.80009 205.076 8.93285 175.432C8.81962 168.787 11.2756 162.356 15.7855 157.475L39.2057 132.059H39.2916V131.973L91.1649 83.4815L91.3406 83.3097L134.366 42.9746C137.611 39.6986 142.027 37.8556 146.638 37.8556C151.25 37.8556 155.67 39.6986 158.915 42.9746C159.254 43.2987 159.574 43.6462 159.867 44.0133C161.57 45.9148 163.081 47.9765 164.377 50.1748C172.179 63.7825 169.941 80.9201 158.915 92.0718V92.0718Z" fill="#CBB292"/>
<path d="M168.801 64.3136C169.793 74.575 166.169 84.7466 158.915 92.0718L124.561 125.035L119.88 129.197L77.0261 167.799C75.2729 169.622 74.4412 172.145 74.7731 174.651C75.1518 177.061 75.3275 179.497 75.2924 181.937V182.371H71.9969C57.2529 182.32 44.0825 191.566 39.1197 205.447L22.8997 250.901C20.7287 228.258 20.0337 200.934 19.8619 186.361C19.7526 179.72 22.2047 173.289 26.7146 168.408L50.1347 142.988H50.2206V142.903L102.094 94.4146L102.27 94.2389L145.295 53.9038C148.555 50.6239 152.987 48.7809 157.61 48.7848C159.91 48.7691 162.191 49.2416 164.291 50.1748H164.377L164.639 50.6941C164.639 50.78 164.725 50.78 164.725 50.866C165.131 51.4868 165.451 52.1584 165.677 52.8612C165.947 53.3376 166.177 53.8296 166.372 54.3372C166.837 55.3368 167.185 56.3832 167.415 57.4609C167.54 57.6757 167.626 57.9099 167.673 58.1559C167.989 59.1751 168.219 60.2176 168.368 61.2758C168.602 62.2754 168.75 63.2906 168.801 64.3136Z" fill="#FDD7AD"/>
<path d="M207.922 229.82C207.922 230.609 207.836 231.394 207.664 232.163C207.449 234.131 206.797 236.029 205.755 237.715C204.166 240.3 202.241 242.663 200.031 244.74L198.73 246.563L178.083 231.73C172.198 227.563 165.17 225.322 157.958 225.31H89.6928C75.0191 225.283 61.9346 234.541 57.0772 248.383L22.029 347.792L11.6231 340.681C10.8617 340.181 10.1394 339.631 9.45215 339.033C1.15475 332.15 -1.92992 320.803 1.73264 310.666L17.9526 264.865L22.8998 250.901L39.1197 205.447C44.0825 191.566 57.253 182.32 71.9969 182.371H146.424C150.028 182.383 153.538 183.503 156.486 185.58L201.417 217.415C205.466 220.254 207.891 224.877 207.922 229.82V229.82Z" fill="#CBB292"/>
<path d="M191.788 225.744C200.464 234.42 202.198 242.659 200.031 244.74L198.73 246.563L178.083 231.73C172.198 227.563 165.17 225.322 157.958 225.31H89.6928C75.0191 225.283 61.9346 234.541 57.0772 248.383L22.029 347.792L11.6231 340.681C10.8617 340.181 10.1394 339.631 9.45215 339.033C9.01092 335.101 9.48729 331.123 10.8422 327.409L27.0622 281.608L48.2293 222.187C53.1882 208.306 66.3625 199.063 81.1026 199.114H147.638C151.242 199.126 154.752 200.246 157.7 202.324C157.7 202.324 190.359 224.311 191.788 225.744V225.744Z" fill="#FDD7AD"/>
<path d="M321.126 512.002H194.997C185.451 511.951 177.735 504.2 177.735 494.65C177.727 488.929 174.904 483.58 170.191 480.339L29.7524 384.054C20.0259 377.369 15.9768 365.007 19.8619 353.863L22.029 347.792L57.0772 248.383C61.9346 234.541 75.0191 225.283 89.6928 225.31H157.958C165.17 225.322 172.198 227.563 178.082 231.73L198.73 246.563L200.031 244.74C202.241 242.663 204.166 240.3 205.755 237.715C209.87 230.859 207.973 221.991 201.417 217.415L156.486 185.58C153.538 183.503 150.028 182.383 146.424 182.371H119.356V181.937C116.049 164.546 116.287 146.667 120.052 129.373L119.88 129.197L124.561 125.035L158.915 92.0718C171.976 78.8623 172.393 57.7342 159.867 44.0133L160.387 43.5799C160.387 43.5799 186.325 26.2315 203.674 52.256C221.022 78.2805 169.063 103.868 194.997 155.913C209.312 184.542 247.827 212.991 255.633 218.805C300.529 259.449 324.632 318.214 321.212 378.674C319.224 400.411 320.599 422.328 325.288 443.647L338.041 490.749C339.232 495.903 338.005 501.315 334.71 505.454C331.414 509.593 326.413 512.002 321.126 512.002V512.002Z" fill="#FDD7AD"/>
<path d="M171.663 49.8273L171.144 50.2607C183.67 63.9778 183.252 85.1059 170.191 98.3153L135.838 131.278L131.156 135.445L131.328 135.616C127.974 150.977 127.416 166.815 129.68 182.371H119.357V181.937C116.049 164.546 116.287 146.667 120.052 129.373L119.88 129.197L124.561 125.035L158.915 92.0718C166.169 84.7466 169.793 74.575 168.801 64.3136C168.735 63.2906 168.59 62.2753 168.368 61.2758C168.262 60.2137 168.028 59.1633 167.673 58.1559C167.626 57.9099 167.54 57.6757 167.415 57.4609C167.146 56.3949 166.798 55.3524 166.373 54.3372C166.177 53.8296 165.947 53.3376 165.677 52.8612C165.412 52.174 165.096 51.5063 164.725 50.8659C164.725 50.78 164.639 50.78 164.639 50.6941L164.377 50.1748H164.291C163.054 47.9609 161.57 45.8953 159.867 44.0133L160.387 43.5799C160.387 43.5799 180.859 29.8745 197.602 45.0558C188.664 43.2597 179.379 44.966 171.663 49.8273Z" fill="#CBB292"/>
<path d="M229.636 450.8C224.845 450.8 220.96 446.919 220.96 442.128C220.96 411.766 169.012 387.678 148.966 380.966C144.624 379.298 142.367 374.507 143.847 370.099C145.33 365.694 150.024 363.238 154.491 364.535C157.915 365.679 238.312 393.101 238.312 442.155C238.296 446.935 234.415 450.8 229.636 450.8V450.8Z" fill="#CBB292"/>
<path d="M264.254 381.407C234.528 381.407 212.514 360.685 199.277 343.29C197.399 340.826 196.981 337.542 198.18 334.684C199.379 331.825 202.01 329.826 205.083 329.432C208.16 329.041 211.21 330.318 213.084 332.786C223.947 347.046 241.631 364.015 264.262 364.015C269.053 364.015 272.938 367.897 272.938 372.688C272.938 377.479 269.053 381.364 264.262 381.364L264.254 381.407Z" fill="#CBB292"/>
<path d="M217.031 26.2315C213.564 26.2315 210.433 24.162 209.066 20.9758C207.699 17.7896 208.363 14.0958 210.753 11.5812L219.019 2.90505C221.124 0.538831 224.353 -0.488093 227.441 0.222554C230.526 0.929298 232.982 3.26819 233.845 6.31382C234.708 9.36335 233.837 12.6394 231.58 14.8611L223.31 23.5334C221.678 25.2553 219.405 26.2315 217.031 26.2315Z" fill="#07359B"/>
<path d="M240.452 56.0552C236.117 56.0513 232.451 52.8534 231.861 48.5583C231.276 44.2632 233.946 40.1945 238.12 39.027L249.397 35.8525C254.009 34.5523 258.803 37.2426 260.1 41.854C261.4 46.4693 258.71 51.2603 254.098 52.5605L242.822 55.7233C242.052 55.9459 241.252 56.0552 240.452 56.0552Z" fill="#07359B"/>
<path d="M244.876 97.3626C244.079 97.3665 243.286 97.2572 242.517 97.0424L231.241 93.8679C228.257 93.0284 225.946 90.6622 225.181 87.6595C224.411 84.6529 225.309 81.4706 227.527 79.3035C229.745 77.1404 232.951 76.3204 235.934 77.1599L247.211 80.3344C251.385 81.5019 254.055 85.5705 253.466 89.8656C252.876 94.1608 249.21 97.3587 244.876 97.3626Z" fill="#07359B"/>
<path d="M224.751 292.365C218.652 302.486 208.687 309.678 197.161 312.283C185.63 314.887 173.541 312.673 163.682 306.156L146.248 294.446C144.823 293.533 143.167 293.052 141.476 293.056H114.761C111.032 293.048 107.713 295.422 106.518 298.956C105.999 300.78 105.132 303.033 104.179 305.637C96.8032 326.105 89.9506 346.577 106.608 367.659H106.518C107.361 368.443 107.627 369.673 107.182 370.735C106.737 371.801 105.675 372.473 104.523 372.43C104.144 372.418 103.765 372.36 103.398 372.254C103.137 372.164 102.898 372.016 102.703 371.821C101.313 371.126 100.446 370.607 100.189 370.521C67.2255 357.249 81.7117 316.999 87.8694 299.737C88.7362 297.394 89.4312 295.399 89.9506 293.665C93.4257 282.916 103.461 275.653 114.761 275.708H141.476C146.627 275.719 151.66 277.227 155.963 280.046L173.311 291.67C179.199 295.59 186.439 296.93 193.338 295.372C200.238 293.814 206.2 289.499 209.831 283.427C211.698 280.487 210.936 276.598 208.098 274.579L205.06 272.412L188.668 260.702L188.235 260.355L170.711 247.95C164.857 243.725 157.806 241.476 150.586 241.53L99.4076 241.792C84.7183 241.714 71.6065 250.987 66.792 264.865L28.4483 373.644L26.2812 379.63C26.1251 380.021 26.0079 380.427 25.9337 380.845C18.9053 373.758 16.5469 363.277 19.862 353.863L22.0291 347.792L57.0773 248.383C61.9347 234.541 75.0192 225.283 89.6929 225.31H157.958C165.17 225.322 172.198 227.563 178.083 231.73L198.73 246.563L214.083 257.578L218.16 260.441C228.328 267.746 231.194 281.627 224.751 292.365V292.365Z" fill="#CBB292"/>
<path d="M88.7362 47.7461C83.051 43.9742 76.3857 41.9555 69.5682 41.9321C59.9979 41.9633 52.2472 49.7102 52.2159 59.2805V119.916L39.2915 131.973V43.5799C39.3227 34.0096 47.0735 26.2627 56.6399 26.2315C65.8432 26.2471 74.6638 29.894 81.1885 36.3797C84.4059 39.6557 86.9674 43.5135 88.7362 47.7461Z" fill="#CBB292"/>
</g>
<defs>
<clipPath id="clip0">
<rect width="512" height="512" fill="white"/>
</clipPath>
</defs>
</svg>
