<svg width="40" height="40" viewBox="0 0 40 40" fill="none" xmlns="http://www.w3.org/2000/svg">
<path d="M39.2644 14.2391C38.8072 13.726 38.1825 13.3923 37.5018 13.2976V13.2962L26.8711 11.8276L22.6643 1.77548C22.05 0.304125 20.3593 -0.390666 18.888 0.223606C18.1866 0.516471 17.6289 1.07408 17.3361 1.77548L13.1293 11.8276L2.49861 13.2962C0.914762 13.5166 -0.190492 14.9794 0.0299731 16.5633C0.124721 17.2439 0.458432 17.8687 0.971511 18.3258L8.98099 25.4682L7.33528 36.6759C7.157 37.814 7.67971 38.9479 8.66092 39.5514C9.62832 40.17 10.8727 40.1469 11.8164 39.4928L20.0001 33.9275L28.1839 39.4985C29.5044 40.3948 31.3015 40.0508 32.1979 38.7303C32.6051 38.1302 32.772 37.3989 32.6651 36.6816L31.0194 25.4695L39.0289 18.3272C40.2228 17.2634 40.3283 15.433 39.2644 14.2391ZM28.5424 23.8554C28.1841 24.1755 28.0108 24.6543 28.081 25.1296L29.7952 37.1288L20.8072 31.0178C20.3227 30.6885 19.6862 30.6885 19.2016 31.0178L10.1608 37.0916L11.9193 25.1239C11.9876 24.6505 11.8143 24.1744 11.4578 23.8555L2.88698 16.1302L14.3262 14.5517C14.8271 14.4827 15.254 14.154 15.449 13.6875L20.0172 2.85688C20.0224 2.86324 20.0262 2.87052 20.0287 2.87831L24.5498 13.6818C24.7447 14.1483 25.1718 14.477 25.6725 14.546L37.1261 16.1945L28.5424 23.8554Z" fill="#07359B"/>
</svg>
