<svg width="25" height="25" viewBox="0 0 25 25" fill="none" xmlns="http://www.w3.org/2000/svg">
<g clip-path="url(#clip0)">
<path d="M22.9225 18.9121L18.9421 16.9221C18.5667 16.7342 18.3333 16.3567 18.3333 15.9367V14.5279C18.4287 14.4113 18.5292 14.2784 18.6329 14.1317C19.1492 13.4025 19.5629 12.5909 19.8638 11.7154C20.4517 11.4459 20.8333 10.8646 20.8333 10.2084V8.54169C20.8333 8.14044 20.6833 7.75169 20.4167 7.44794V5.23169C20.44 5.00252 20.5317 3.63835 19.545 2.51294C18.6892 1.53669 17.3004 1.04169 15.4167 1.04169C13.5329 1.04169 12.1442 1.53669 11.2883 2.51252C10.6904 3.1946 10.4892 3.96294 10.4283 4.5146C9.71417 4.14544 8.8725 3.95835 7.91667 3.95835C3.58792 3.95835 3.33583 7.64794 3.33333 7.70836V9.61627C3.06333 9.91044 2.91667 10.25 2.91667 10.5871V12.0263C2.91667 12.4759 3.11792 12.895 3.46292 13.1784C3.80667 14.4742 4.65208 15.4534 4.98125 15.7971V16.94C4.98125 17.2679 4.80292 17.5688 4.49333 17.7379L1.72125 19.4767C0.659583 20.0559 0 21.1671 0 22.3763V23.9584H5.83333H6.66667H25V22.2738C25 20.8413 24.2037 19.5529 22.9225 18.9121ZM5.83333 22.1925V23.125H0.833333V22.3763C0.833333 21.4721 1.32667 20.6413 2.14208 20.1959L4.91375 18.4571C5.46917 18.1542 5.81417 17.5734 5.81417 16.94V15.4438L5.68167 15.32C5.67083 15.31 4.56375 14.2642 4.23667 12.8388L4.19875 12.6738L4.05625 12.5821C3.86458 12.4579 3.75 12.25 3.75 12.0263V10.5871C3.75 10.4371 3.85208 10.2588 4.02958 10.0979L4.16667 9.97419L4.16583 7.73252C4.17333 7.61294 4.39042 4.79169 7.91667 4.79169C8.91375 4.79169 9.75333 5.0221 10.4167 5.47669V7.44794C10.15 7.75169 10 8.14044 10 8.54169V10.2084C10 10.335 10.0146 10.4596 10.0421 10.5804C10.0533 10.6288 10.0758 10.6729 10.0912 10.7196C10.1142 10.7896 10.1325 10.8617 10.1646 10.9279C10.165 10.9288 10.1654 10.9292 10.1658 10.93C10.2725 11.15 10.4279 11.3467 10.6237 11.5038C10.6258 11.5117 10.6283 11.5188 10.6304 11.5263C10.6554 11.6217 10.6817 11.7167 10.71 11.8096L10.7437 11.9184C10.7496 11.9375 10.7567 11.9571 10.7629 11.9763C10.7775 12.0213 10.7917 12.0659 10.8067 12.11C10.8317 12.1829 10.8579 12.2584 10.8883 12.3404C10.9012 12.3746 10.9154 12.4054 10.9288 12.4392C10.9629 12.5263 10.9971 12.6104 11.0329 12.6938C11.0417 12.7138 11.0492 12.7354 11.0579 12.755L11.0812 12.8075C11.0921 12.8317 11.1033 12.8534 11.1142 12.8771C11.155 12.9663 11.195 13.0525 11.2367 13.1359C11.2433 13.1492 11.2496 13.1638 11.2562 13.1771C11.2825 13.2292 11.3088 13.2784 11.335 13.3284C11.38 13.4142 11.4242 13.495 11.4683 13.5734C11.49 13.6117 11.5112 13.6492 11.5325 13.6854C11.5925 13.7879 11.6496 13.8821 11.705 13.9696C11.7171 13.9884 11.7287 14.0079 11.7404 14.0259C11.8412 14.1821 11.9287 14.3088 12.0012 14.4075C12.0204 14.4338 12.0371 14.4563 12.0533 14.4784C12.0625 14.4904 12.075 14.5079 12.0829 14.5188V15.8975C12.0829 16.3009 11.8629 16.6709 11.5092 16.8642L10.4067 17.4654L10.2146 17.4484L10.1362 17.6129L7.79208 18.8917C6.58375 19.5517 5.83333 20.8159 5.83333 22.1925ZM24.1667 23.125H6.66667V22.1925C6.66667 21.1213 7.25083 20.1367 8.19125 19.6242L11.9083 17.5967C12.5304 17.2571 12.9167 16.6059 12.9167 15.8979V14.2238V14.2234L12.8358 14.1267L12.82 14.1079C12.8192 14.1067 12.7933 14.0754 12.7513 14.0204C12.7487 14.0171 12.7462 14.0138 12.7433 14.0104C12.7212 13.9817 12.6954 13.9471 12.6658 13.9059C12.6654 13.905 12.665 13.9046 12.6646 13.9038C12.6025 13.8175 12.5246 13.7054 12.4379 13.5704C12.4358 13.5675 12.4342 13.5642 12.4321 13.5613C12.3912 13.4975 12.3479 13.4279 12.3037 13.3542C12.3004 13.3488 12.2971 13.3434 12.2937 13.3375C12.1996 13.1796 12.0996 13.0009 12 12.8029C12 12.8029 11.9996 12.8025 11.9996 12.8021C11.9467 12.6959 11.8937 12.5842 11.8421 12.4679C11.835 12.4517 11.8275 12.4359 11.8204 12.4196C11.7975 12.3675 11.7746 12.3129 11.7512 12.2567C11.7429 12.2363 11.7346 12.215 11.7262 12.1942C11.7046 12.1396 11.6825 12.0846 11.6592 12.0217C11.6167 11.9084 11.5767 11.79 11.5383 11.6679L11.5154 11.5938C11.5129 11.5854 11.51 11.5771 11.5075 11.5684C11.4683 11.4367 11.4308 11.3021 11.3992 11.1638L11.3612 10.9988L11.2192 10.9071C10.9775 10.7513 10.8333 10.49 10.8333 10.2084V8.54169C10.8333 8.30794 10.9325 8.09002 11.1125 7.92711L11.25 7.80336V5.20835V5.06085L11.2387 5.0521C11.2246 4.75127 11.2425 3.82919 11.915 3.0621C12.6054 2.27419 13.7837 1.87502 15.4167 1.87502C17.0437 1.87502 18.2196 2.27127 18.9108 3.05335C19.7221 3.97044 19.5879 5.14377 19.5871 5.15377L19.5833 7.80336L19.7208 7.92752C19.9008 8.09002 20 8.30794 20 8.54169V10.2084C20 10.5721 19.7617 10.8904 19.4075 10.9996L19.2 11.0634L19.1333 11.2696C18.8546 12.1367 18.4575 12.9375 17.9525 13.65C17.8287 13.8254 17.7083 13.9809 17.6038 14.0996L17.5 14.2179V15.9367C17.5 16.6742 17.9096 17.3371 18.5692 17.6671L22.5496 19.6571C23.5471 20.1559 24.1667 21.1584 24.1667 22.2738V23.125Z" fill="#1D1D1D"/>
</g>
<defs>
<clipPath id="clip0">
<rect width="25" height="25" fill="white"/>
</clipPath>
</defs>
</svg>
