<svg width="26" height="26" viewBox="0 0 26 26" fill="none">
<g clip-path="url(#target0123)">
<path d="M13 8.27271C10.3882 8.27271 8.27277 10.3882 8.27277 13C8.27277 15.6118 10.3882 17.7273 13 17.7273C15.6119 17.7273 17.7273 15.6118 17.7273 13C17.7273 10.3882 15.6118 8.27271 13 8.27271ZM23.5655 11.8182C23.0218 6.88999 19.11 2.97818 14.1818 2.43457V0H11.8182V2.43457C6.88999 2.97818 2.97818 6.88999 2.43457 11.8182H0V14.1818H2.43457C2.97818 19.11 6.89004 23.0218 11.8182 23.5655V26.0001H14.1818V23.5655C19.11 23.0218 23.0218 19.11 23.5655 14.1818H26.0001V11.8182H23.5655ZM13 21.2727C8.43232 21.2727 4.72731 17.5677 4.72731 13C4.72731 8.43232 8.43232 4.72731 13 4.72731C17.5677 4.72731 21.2727 8.43226 21.2727 13C21.2727 17.5678 17.5677 21.2727 13 21.2727Z" fill="#07359B"/>
</g>
<defs>
<clipPath id="target0123">
<rect width="26" height="26" fill="white"/>
</clipPath>
</defs>
</svg>
