<svg width="55" height="55" viewBox="0 0 55 55" fill="none" xmlns="http://www.w3.org/2000/svg">
<g clip-path="url(#clip0)">
<path d="M50.5868 36.1012C47.2195 36.1012 43.9132 35.5745 40.7801 34.5391C39.218 34.0065 37.4395 34.4198 36.4205 35.4582L30.2363 40.1267C23.0643 36.2983 18.6466 31.882 14.8705 24.7639L19.4015 18.7408C20.5787 17.5652 21.001 15.8479 20.4951 14.2366C19.4552 11.0869 18.927 7.78221 18.927 4.41346C18.9272 1.97986 16.9473 0 14.5138 0H4.41318C1.97986 0 0 1.97986 0 4.41318C0 32.3072 22.6929 55 50.5868 55C53.0203 55 55.0001 53.0201 55.0001 50.5867V40.5144C55 38.0811 53.0201 36.1012 50.5868 36.1012ZM51.9445 50.5868C51.9445 51.3358 51.3358 51.9445 50.5868 51.9445C24.3773 51.9445 3.05565 30.6227 3.05565 4.41332C3.05565 3.66438 3.66438 3.05565 4.41332 3.05565H14.514C15.2629 3.05565 15.8717 3.66438 15.8717 4.41332C15.8717 8.10892 16.452 11.7359 17.5874 15.172C17.7455 15.6793 17.6172 16.2044 17.104 16.7386L11.8522 23.694C11.5002 24.1609 11.4449 24.7861 11.709 25.3067C15.9954 33.7319 21.2039 38.9404 29.6887 43.288C30.2049 43.558 30.8375 43.5014 31.306 43.1478L38.4212 37.7574C38.7807 37.3979 39.3194 37.2695 39.8058 37.4351C43.2657 38.5779 46.8927 39.1568 50.5868 39.1568C51.3358 39.1568 51.9445 39.7656 51.9445 40.5145V50.5868Z" fill="#07359B"/>
</g>
<defs>
<clipPath id="clip0">
<rect width="55" height="55" fill="white"/>
</clipPath>
</defs>
</svg>
