<svg width="70" height="70" viewBox="0 0 70 70" fill="none" xmlns="http://www.w3.org/2000/svg">
<path d="M35 0C15.7015 0 0 15.7006 0 35C0 54.2994 15.7015 70 35 70C54.2994 70 70 54.2994 70 35C70 15.7006 54.2985 0 35 0ZM35 64.8905C18.5186 64.8905 5.10945 51.4814 5.10945 35C5.10945 18.5186 18.5186 5.10945 35 5.10945C51.4814 5.10945 64.8905 18.5184 64.8905 34.9992C64.8905 51.4814 51.4814 64.8905 35 64.8905Z" fill="#07359B"/>
<path d="M46.9222 34.9999H35.8517V19.6714C35.8517 18.2604 34.708 17.1167 33.297 17.1167C31.8859 17.1167 30.7422 18.2604 30.7422 19.6714V37.5547C30.7422 38.9657 31.8859 40.1094 33.297 40.1094H46.9222C48.3333 40.1094 49.4769 38.9657 49.4769 37.5547C49.4769 36.1436 48.3333 34.9999 46.9222 34.9999Z" fill="#07359B"/>
</svg>
