<svg width="70" height="70" viewBox="0 0 70 70" fill="none" xmlns="http://www.w3.org/2000/svg">
<g clip-path="url(#clip0)">
<path d="M70 54.3898L69.5407 52.2254L59.7183 6.09707L59.2118 3.72448L56.8558 4.30429L53.811 5.05172C53.2876 3.6847 52.4642 2.47116 51.2806 1.61059C50.1576 0.793204 48.7947 0.734563 47.7201 1.65773C46.4813 2.72156 46.3561 4.78416 46.3951 6.42591C46.3997 6.58034 46.4044 6.72628 46.4089 6.87204L44.3882 7.36926C44.3274 7.212 44.2413 7.06832 44.1713 6.91503C43.6454 5.75485 42.9084 4.71572 41.8728 3.96319C40.7498 3.14618 39.3869 3.08717 38.3123 4.01014C37.1458 5.0142 36.9678 6.90465 36.984 8.49418C36.9874 8.6997 36.9896 8.90014 36.9964 9.09359C36.9989 9.12584 36.9989 9.15506 37.0009 9.18655L34.9659 9.68773C34.9468 9.64172 34.9212 9.5993 34.9027 9.55329C34.8246 9.36624 34.7311 9.18881 34.6427 9.00912C34.1242 7.95566 33.4269 7.01119 32.4686 6.31561C31.3447 5.4986 29.9812 5.43958 28.9076 6.36275C27.8106 7.30647 27.5849 9.0374 27.5753 10.5621C27.5741 10.7682 27.5781 10.9667 27.5837 11.1632C27.5873 11.2797 27.5896 11.39 27.5941 11.5018L25.5436 12.0058C25.4942 11.8823 25.4276 11.7699 25.3737 11.6487C25.2911 11.4639 25.2078 11.2806 25.1137 11.1043C24.6068 10.1555 23.9437 9.30873 23.0631 8.66916C21.9392 7.85233 20.5757 7.79313 19.5021 8.71629C18.4733 9.60137 18.2144 11.1768 18.1794 12.6281C18.1748 12.8336 18.1724 13.0321 18.1748 13.2309C18.1771 13.4317 18.1805 13.627 18.1875 13.8163L17.6559 13.9472L16.1054 14.2883C16.0291 14.0999 15.9339 13.9248 15.846 13.7434C15.7576 13.5625 15.6857 13.3719 15.586 13.1979C15.0957 12.3513 14.462 11.6036 13.6588 11.0204C12.5348 10.2034 11.1713 10.1444 10.0979 11.0676C9.13626 11.8942 8.84814 13.3236 8.78441 14.691C8.77517 14.8954 8.76725 15.0976 8.76537 15.2978C8.76424 15.5022 8.7682 15.7032 8.77404 15.8984L4.22401 16.8977L0 59.6469L14.7054 55.3369L14.8301 55.9086L14.9513 56.4839L15.1263 57.3151L3.21901 61.0892L0.0552467 62.0936L3.14491 63.3062L17.3377 68.8746L17.5811 68.9701L17.5835 68.9816L17.6001 68.977L17.7046 69.0185L18.0847 68.9127L46.7596 60.8837L47.8802 60.5703L47.8757 60.5475L67.8718 54.9811L70 54.3898ZM49.2966 3.40714C49.4092 3.27912 49.416 3.29458 49.4643 3.30382C49.7627 3.36114 50.0131 3.56723 50.3128 3.86137C50.7432 4.28675 51.0809 4.79246 51.3575 5.33776C51.4058 5.43317 51.4563 5.52387 51.4999 5.62135L48.7364 6.30052C48.7319 6.17476 48.7319 6.04447 48.7319 5.91417C48.7295 4.96612 48.8281 3.94792 49.2966 3.40714ZM39.9507 5.75843C40.0608 5.6304 40.038 5.64586 40.0861 5.6551C40.3848 5.71261 40.6212 5.91851 40.9197 6.21266C41.2827 6.56978 41.5604 6.99101 41.8129 7.43544C41.9072 7.6008 42.0058 7.76202 42.084 7.93718L40.7017 8.30524L39.5672 8.61353C39.5672 8.60259 39.5672 8.59109 39.5672 8.58035C39.5672 8.38387 39.4444 8.18193 39.4478 7.97867C39.4686 7.11791 39.5282 6.24528 39.9507 5.75843ZM29.9354 10.0415C29.975 9.2797 30.1117 8.54263 30.4854 8.10971C30.5974 7.98168 30.6042 7.99714 30.6525 8.00638C30.951 8.06389 31.2014 8.26979 31.5004 8.56394C31.7944 8.85337 32.0378 9.18466 32.2577 9.53236C32.3668 9.70508 32.469 9.88307 32.5607 10.0673C32.5921 10.131 32.6325 10.1885 32.6617 10.2534L29.9233 10.9267C29.9211 10.8349 29.9211 10.7414 29.9211 10.6482C29.9199 10.4463 29.9247 10.2438 29.9354 10.0415ZM21.1091 10.4612C21.2209 10.3332 21.2142 10.3486 21.2624 10.3579C21.5609 10.4154 21.8043 10.6213 22.1017 10.9152C22.3249 11.1353 22.5167 11.3785 22.6964 11.6334C22.8152 11.8016 22.9117 11.9855 23.0128 12.1663C23.0892 12.3011 23.1753 12.4297 23.2419 12.5704C23.2481 12.5836 23.2528 12.5973 23.2573 12.6117L20.7567 13.2386C20.7567 13.0657 20.6334 12.8902 20.6368 12.7116C20.6402 12.5072 20.5932 12.3034 20.611 12.1026C20.6706 11.4481 20.7837 10.8379 21.1091 10.4612ZM11.1233 14.7748C11.1336 14.567 11.1502 14.3609 11.1772 14.1612C11.2513 13.6204 11.397 13.1324 11.6744 12.8127C11.7864 12.6846 11.7932 12.7001 11.8415 12.7093C12.1399 12.7668 12.3903 12.9727 12.6894 13.2667C12.8374 13.4124 12.9575 13.582 13.0865 13.7426C13.2192 13.9097 13.349 14.0801 13.4625 14.2621C13.5711 14.4367 13.6744 14.6128 13.7662 14.7972L11.1112 15.3804C11.1089 15.1794 11.1123 14.9786 11.1233 14.7748ZM47.2644 58.282L46.6983 58.4393L46.1323 58.5965L19.3714 66.0503L17.6258 57.7604L17.5036 57.184L17.3814 56.6055L17.2166 55.8247L17.0961 55.2474L16.9749 54.671L9.33499 18.415L14.4786 17.1462C14.6771 18.4759 14.6066 19.8576 14.334 21.0437C13.994 22.5197 16.2604 23.1459 16.6015 21.6693C16.9592 20.1177 17.023 18.3196 16.7382 16.5917L23.8899 14.8326C24.0817 16.1506 24.0112 17.5164 23.7406 18.6922C23.4008 20.1682 25.6673 20.7944 26.0082 19.3178C26.3634 17.7766 26.4285 15.9928 26.1505 14.2775L33.3 12.5196C33.4848 13.8263 33.4141 15.1783 33.1461 16.3418C32.8063 17.8179 35.0728 18.444 35.4137 16.9677C35.7667 15.4366 35.8328 13.6683 35.5617 11.9651L42.7106 10.2072C42.8897 11.5018 42.8184 12.8383 42.5522 13.9915C42.2122 15.4673 44.48 16.0937 44.8209 14.6171C45.1722 13.0981 45.2387 11.3438 44.9746 9.65077L50.9908 8.17193L51.5947 8.02392L52.1206 7.89419C52.1367 8.01826 52.1527 8.14007 52.1642 8.26508C52.2767 9.42997 52.1962 10.6092 51.9573 11.6412C51.6176 13.1172 53.8851 13.7434 54.226 12.267C54.5752 10.7583 54.6416 9.01949 54.3869 7.33852L57.4226 6.59165L67.2463 52.719L47.2644 58.282ZM26.6495 45.286L19.4753 47.0058L17.7536 39.8311L24.9278 38.1102L26.6495 45.286ZM28.1598 44.8314L26.4388 37.6565L33.613 35.9356L35.3339 43.1091L28.1598 44.8314ZM35.1199 35.4787L42.2929 33.7564L44.0152 40.9302L36.8414 42.6523L35.1199 35.4787ZM50.9774 31.5829L52.6997 38.7565L49.4986 39.5247L48.8971 39.6693L48.2931 39.8141L45.5238 40.4779L43.8038 33.3029L48.9521 32.067L49.5561 31.9229L50.1576 31.7783L50.9774 31.5829ZM52.4874 31.1289L59.6621 29.4078L61.3832 36.5819L54.2085 38.3031L52.4874 31.1289ZM34.5901 33.9917L32.8684 26.8176L40.0425 25.0967L41.7648 32.2708L34.5901 33.9917ZM43.2689 31.8143L41.5489 24.6402L48.7249 22.919L49.4688 26.023L49.9028 27.8382L50.3392 29.6535L50.4447 30.0932L50.2979 30.1282L49.6964 30.2729L49.0949 30.4175L43.2689 31.8143ZM57.4072 20.7427L59.1283 27.9169L51.9534 29.6378L50.7617 24.6745L50.3276 22.8587L50.2311 22.4637L50.3644 22.4322L50.9659 22.2876L57.4072 20.7427ZM28.8173 53.5928L28.9034 53.9511L23.9182 55.1463L21.7293 55.6709L21.6294 55.2542L21.4657 54.5746L21.3279 54.0041L21.1906 53.4324L20.0074 48.4975L27.1816 46.7765L28.2797 51.3552L28.4173 51.9258L28.5546 52.4986L28.6793 53.0211L28.8173 53.5928ZM37.5097 51.455L37.5855 51.7733L33.1329 52.842L30.4102 53.4942L30.3195 53.1177L30.1822 52.5437L30.0657 52.0544L29.9279 51.4827L29.7906 50.9121L28.6911 46.3197L35.8666 44.5999L36.8803 48.8318L37.0181 49.4035L37.1558 49.9741L37.2338 50.3071L37.3715 50.8799L37.5097 51.455ZM45.7569 47.4548L46.2722 49.5962L44.9876 49.905L44.417 50.0418L43.8453 50.1794L39.0965 51.3183L39.016 50.9785L38.8784 50.4043L38.7407 49.8338L38.6695 49.5328L38.5318 48.9611L38.3963 48.3894L37.3779 44.1447L44.5515 42.4237L45.485 46.3123L45.6217 46.8842L45.7569 47.4548Z" fill="#07359B"/>
</g>
<defs>
<clipPath id="clip0">
<rect width="70" height="70" fill="white"/>
</clipPath>
</defs>
</svg>
