<svg width="25" height="25" viewBox="0 0 25 25" fill="none" xmlns="http://www.w3.org/2000/svg">
<path d="M22.8711 9.70702L20.0195 3.03222C19.7754 2.45605 19.209 2.08495 18.584 2.08495H6.41602C5.79102 2.08495 5.22949 2.45605 4.98047 3.03222L2.12891 9.70702C0.874023 10.2832 0 11.5527 0 13.0225V17.1875C0 18.0469 0.703125 18.75 1.5625 18.75H2.08496V21.3525C2.08496 22.2119 2.78809 22.915 3.64746 22.915H5.73242C6.5918 22.915 7.29492 22.2119 7.29492 21.3525V18.75H17.71V21.3525C17.71 22.2119 18.4131 22.915 19.2725 22.915H21.3574C22.2168 22.915 22.9199 22.2119 22.9199 21.3525V18.75H23.4375C24.2969 18.75 25 18.0469 25 17.1875V13.0225C25 11.5527 24.126 10.2832 22.8711 9.70702ZM5.9375 3.44238C6.02051 3.25195 6.20605 3.12499 6.41602 3.12499H18.584C18.7939 3.12499 18.9795 3.24706 19.0625 3.43749L21.6016 9.37988C21.5186 9.37499 21.4355 9.37011 21.3574 9.37011H3.64746C3.56445 9.37011 3.48145 9.37499 3.40332 9.37988L5.9375 3.44238ZM6.25 21.3525C6.25 21.6406 6.01562 21.875 5.72754 21.875H3.64746C3.35937 21.875 3.125 21.6406 3.125 21.3525V18.75H6.25V21.3525ZM21.3525 21.875H19.2676C18.9795 21.875 18.7451 21.6406 18.7451 21.3525V18.75H21.8701V21.3525H21.875C21.875 21.6406 21.6406 21.875 21.3525 21.875ZM23.4375 17.71H22.3975H18.2324H6.77246H2.60254H1.5625C1.27441 17.71 1.04004 17.4756 1.04004 17.1875V13.0225C1.04004 11.5869 2.20703 10.4199 3.64258 10.4199H21.3525C22.7881 10.4199 23.9551 11.5869 23.9551 13.0225V17.1875H23.96C23.96 17.4756 23.7256 17.71 23.4375 17.71Z" fill="#1D1D1D"/>
<path d="M4.6875 11.46C3.25195 11.46 2.08496 12.6269 2.08496 14.0625C2.08496 15.4981 3.25195 16.665 4.6875 16.665C6.12305 16.665 7.29004 15.4981 7.29004 14.0625C7.29004 12.6269 6.12305 11.46 4.6875 11.46ZM4.6875 15.625C3.82812 15.625 3.125 14.9219 3.125 14.0625C3.125 13.2031 3.82812 12.5 4.6875 12.5C5.54688 12.5 6.25 13.2031 6.25 14.0625C6.25 14.9219 5.54688 15.625 4.6875 15.625Z" fill="#1D1D1D"/>
<path d="M20.3125 11.46C18.877 11.46 17.71 12.6269 17.71 14.0625C17.71 15.4981 18.877 16.665 20.3125 16.665C21.748 16.665 22.915 15.4981 22.915 14.0625C22.915 12.6269 21.748 11.46 20.3125 11.46ZM20.3125 15.625C19.4531 15.625 18.75 14.9219 18.75 14.0625C18.75 13.2031 19.4531 12.5 20.3125 12.5C21.1719 12.5 21.875 13.2031 21.875 14.0625C21.875 14.9219 21.1719 15.625 20.3125 15.625Z" fill="#1D1D1D"/>
<path d="M16.1475 14.585H8.85254C8.56445 14.585 8.33008 14.8193 8.33008 15.1074C8.33008 15.3955 8.56445 15.6299 8.85254 15.6299H16.1426C16.4307 15.6299 16.665 15.3955 16.665 15.1074C16.665 14.8193 16.4355 14.585 16.1475 14.585Z" fill="#1D1D1D"/>
<path d="M16.1475 12.5H8.85254C8.56445 12.5 8.33008 12.7344 8.33008 13.0225C8.33008 13.3105 8.56445 13.5449 8.85254 13.5449H16.1426C16.4307 13.5449 16.665 13.3105 16.665 13.0225C16.665 12.7344 16.4355 12.5 16.1475 12.5Z" fill="#1D1D1D"/>
</svg>
