<svg width="512" height="512" viewBox="0 0 512 512" fill="none" xmlns="http://www.w3.org/2000/svg">
<g clip-path="url(#clip051154153)">
<path d="M446.908 175.275H45.6469C35.7409 175.275 27.7109 183.305 27.7109 193.211V241.391H464.845V193.211C464.844 183.306 456.814 175.275 446.908 175.275Z" fill="#2762E1"/>
<path d="M301.231 75.667L264.893 443.532C263.98 452.773 255.749 459.524 246.508 458.611L62.388 440.423C53.147 439.51 46.396 431.279 47.309 422.038L83.647 54.174C84.56 44.933 92.791 38.182 102.032 39.095L286.152 57.283C295.392 58.195 302.143 66.426 301.231 75.667Z" fill="#B6FA4C"/>
<path d="M286.152 57.282L102.032 39.094C92.791 38.181 84.56 44.932 83.647 54.173L80.387 87.177C83.149 85.774 86.324 85.103 89.635 85.43L273.755 103.618C282.996 104.531 289.747 112.762 288.834 122.003L255.756 456.865C260.701 454.353 264.307 449.462 264.892 443.533L301.23 75.668C302.144 66.426 295.392 58.195 286.152 57.282Z" fill="#A8E83A"/>
<path d="M103.162 106.336L76.653 374.703C76.274 378.544 78.082 382.288 81.358 384.33C90.385 389.958 97.375 398.401 101.216 408.314C102.597 411.877 105.895 414.334 109.697 414.71L205.144 424.138C208.946 424.514 212.662 422.749 214.712 419.525C220.418 410.556 228.925 403.643 238.879 399.89C242.491 398.528 244.997 395.211 245.376 391.37L271.885 123.003C272.264 119.162 270.456 115.418 267.18 113.376C258.153 107.748 251.163 99.305 247.322 89.392C245.941 85.83 242.643 83.372 238.841 82.996L143.394 73.568C139.592 73.192 135.876 74.957 133.826 78.181C128.12 87.15 119.613 94.063 109.659 97.816C106.048 99.178 103.542 102.495 103.162 106.336Z" fill="#77DD00"/>
<path d="M267.182 113.376C258.155 107.748 251.165 99.305 247.324 89.392C245.943 85.829 242.645 83.372 238.843 82.996L143.396 73.568C139.594 73.192 135.878 74.957 133.827 78.181C128.121 87.15 119.614 94.063 109.66 97.816C106.048 99.178 103.542 102.495 103.163 106.336L102.154 116.552L225.827 128.387C229.629 128.763 232.928 131.22 234.308 134.783C238.149 144.695 245.139 153.139 254.166 158.767C257.442 160.809 259.25 164.553 258.871 168.394L235.879 401.148C236.865 400.7 237.863 400.275 238.88 399.891C242.492 398.529 244.998 395.212 245.377 391.371L271.886 123.004C272.266 119.162 270.457 115.418 267.182 113.376Z" fill="#73CC00"/>
<path d="M457.345 130.474L249.176 435.942C243.947 443.615 233.487 445.597 225.814 440.368L72.9239 336.177C65.2509 330.948 63.2689 320.488 68.4979 312.815L276.668 7.34702C281.897 -0.325981 292.357 -2.30798 300.03 2.92102L452.92 107.112C460.593 112.341 462.574 122.8 457.345 130.474Z" fill="#B6FA4C"/>
<path d="M452.92 107.112L300.03 2.92101C292.357 -2.30799 281.897 -0.326989 276.668 7.34701L258.862 33.476C260.407 33.959 261.909 34.671 263.317 35.63L416.207 139.821C423.88 145.05 425.862 155.51 420.633 163.183L230.27 442.523C237.15 444.675 244.907 442.209 249.177 435.943L457.346 130.474C462.574 122.8 460.593 112.341 452.92 107.112Z" fill="#A8E83A"/>
<path d="M268.802 62.482L116.937 285.329C114.763 288.519 114.557 292.671 116.453 296.033C121.68 305.298 123.769 316.058 122.39 326.6C121.895 330.388 123.612 334.126 126.769 336.277L206.027 390.289C209.184 392.441 213.291 392.672 216.636 390.825C225.943 385.687 236.721 383.696 247.256 385.171C251.079 385.706 254.868 383.996 257.042 380.806L408.907 157.96C411.081 154.77 411.287 150.618 409.39 147.256C404.163 137.991 402.074 127.231 403.453 116.69C403.948 112.902 402.231 109.164 399.074 107.013L319.816 53C316.659 50.848 312.552 50.617 309.207 52.464C299.9 57.602 289.122 59.593 278.587 58.118C274.765 57.581 270.975 59.292 268.802 62.482Z" fill="#77DD00"/>
<path d="M409.39 147.256C404.163 137.991 402.075 127.231 403.453 116.69C403.948 112.902 402.231 109.164 399.074 107.012L319.816 53C316.659 50.849 312.552 50.617 309.207 52.464C299.901 57.602 289.122 59.593 278.587 58.117C274.764 57.582 270.975 59.292 268.801 62.482L262.472 71.769L361.526 138.539C364.683 140.691 366.401 144.428 365.905 148.216C364.527 158.757 366.616 169.517 371.842 178.782C373.738 182.144 373.532 186.297 371.358 189.486L238.29 384.755C241.273 384.624 244.274 384.754 247.257 385.172C251.08 385.708 254.869 383.997 257.043 380.807L408.907 157.96C411.081 154.77 411.287 150.618 409.39 147.256Z" fill="#73CC00"/>
<path d="M286.18 255.39C316.219 255.39 340.57 231.039 340.57 201C340.57 170.961 316.219 146.61 286.18 146.61C256.141 146.61 231.79 170.961 231.79 201C231.79 231.039 256.141 255.39 286.18 255.39Z" fill="#B6FA4C"/>
<path d="M453.122 512H34.109C19.823 512 8.24097 500.419 8.24097 486.132V230.139C8.24097 215.853 19.822 204.271 34.109 204.271H453.122C467.408 204.271 478.99 215.852 478.99 230.139V486.132C478.99 500.419 467.409 512 453.122 512Z" fill="#2762E1"/>
<path d="M453.122 204.271H406.062C420.348 204.271 431.93 215.853 431.93 230.139V486.132C431.93 500.418 420.348 512 406.062 512H453.122C467.408 512 478.99 500.419 478.99 486.132V230.139C478.99 215.853 467.408 204.271 453.122 204.271Z" fill="#0A47CD"/>
<path d="M494.387 308.688H400.079C372.77 308.688 350.632 330.826 350.632 358.135C350.632 385.444 372.77 407.582 400.079 407.582H494.387C499.563 407.582 503.759 403.386 503.759 398.21V318.06C503.759 312.885 499.563 308.688 494.387 308.688Z" fill="#07359B"/>
<path d="M494.387 308.688H447.16C452.336 308.688 456.532 312.884 456.532 318.06V385.571C456.532 391.091 452.057 395.566 446.537 395.566H400.078C374.804 395.566 353.973 376.6 351.007 352.126C350.768 354.097 350.631 356.099 350.631 358.134C350.631 385.443 372.769 407.581 400.078 407.581H447.159H494.386C499.562 407.581 503.758 403.385 503.758 398.209V386.194V318.06C503.759 312.885 499.563 308.688 494.387 308.688Z" fill="#07359B"/>
<path d="M453.122 204.271H34.109C19.823 204.271 8.24097 215.853 8.24097 230.139V258.487H478.99V230.139C478.99 215.853 467.409 204.271 453.122 204.271Z" fill="#07359B"/>
<path d="M474.572 215.676C473.642 214.3 472.583 213.018 471.413 211.848C471.399 211.834 471.385 211.822 471.371 211.808C470.212 210.654 468.945 209.608 467.584 208.689C467.24 208.457 466.89 208.232 466.534 208.016C466.005 207.695 465.46 207.398 464.907 207.114C464.549 206.93 464.186 206.755 463.818 206.587C460.557 205.103 456.937 204.27 453.121 204.27H406.064C420.349 204.271 431.929 215.852 431.929 230.138V258.485H478.989V230.138C478.989 225.673 477.858 221.473 475.867 217.808C475.47 217.076 475.037 216.364 474.572 215.676Z" fill="#07359B"/>
<path d="M34.109 512H453.122C467.408 512 478.99 500.418 478.99 486.132V457.784H8.24097V486.132C8.24097 500.418 19.822 512 34.109 512Z" fill="#07359B"/>
<path d="M431.93 457.784V486.132C431.93 486.147 431.93 486.162 431.93 486.176C431.926 488.565 429.926 490.472 427.537 490.472H34.109C19.823 490.472 8.24097 478.89 8.24097 464.604V486.131C8.24097 500.419 19.822 512 34.109 512H406.063H453.123C453.634 512 454.14 511.981 454.643 511.952C454.8 511.943 454.956 511.928 455.112 511.916C455.463 511.889 455.812 511.857 456.159 511.816C456.331 511.796 456.503 511.774 456.675 511.751C457.02 511.704 457.362 511.648 457.702 511.588C457.853 511.561 458.005 511.537 458.155 511.507C458.636 511.412 459.114 511.308 459.585 511.186C459.585 511.186 459.586 511.186 459.587 511.186C459.794 511.133 459.996 511.07 460.201 511.012C461.224 510.721 462.224 510.377 463.192 509.968C463.579 509.804 463.961 509.632 464.338 509.45C464.715 509.268 465.087 509.078 465.453 508.879L465.454 508.878C466.186 508.48 466.897 508.048 467.585 507.584L467.586 507.583L467.587 507.582C468.173 507.186 468.737 506.763 469.286 506.322C469.312 506.301 469.339 506.281 469.364 506.26C469.921 505.81 470.457 505.336 470.975 504.842C471.584 504.26 472.165 503.65 472.715 503.012V503.011C473.575 502.013 474.362 500.95 475.064 499.828C475.083 499.798 475.103 499.768 475.122 499.738C475.38 499.321 475.63 498.899 475.865 498.467C475.865 498.466 475.866 498.465 475.867 498.463V498.462C476.492 497.311 477.03 496.105 477.477 494.856C477.528 494.714 477.574 494.569 477.623 494.426C477.731 494.107 477.834 493.785 477.93 493.461C477.978 493.296 478.025 493.131 478.071 492.965C478.16 492.639 478.242 492.31 478.318 491.978C478.353 491.827 478.391 491.676 478.423 491.524C478.524 491.047 478.616 490.566 478.69 490.08C478.69 490.077 478.691 490.075 478.691 490.072C478.691 490.071 478.691 490.069 478.691 490.068C478.778 489.5 478.839 488.923 478.888 488.343C478.9 488.196 478.911 488.049 478.922 487.902C478.962 487.317 478.989 486.728 478.989 486.132V464.605V457.785L431.93 457.784Z" fill="#07359B"/>
<path d="M401.84 381.099C414.52 381.099 424.799 370.82 424.799 358.14C424.799 345.46 414.52 335.181 401.84 335.181C389.16 335.181 378.881 345.46 378.881 358.14C378.881 370.82 389.16 381.099 401.84 381.099Z" fill="#FDD7AD"/>
</g>
<defs>
<clipPath id="clip0">
<rect width="512" height="512" fill="white"/>
</clipPath>
</defs>
</svg>
