<svg width="70" height="70" viewBox="0 0 70 70" fill="none" xmlns="http://www.w3.org/2000/svg">
<path d="M32.0032 35.5413L11.6994 8.85124C11.0478 7.99456 9.85276 7.77157 8.93606 8.3354C8.00733 8.90647 7.67223 10.0947 8.16565 11.0668L23.309 40.9026H32.0032V35.5413Z" fill="#07359B"/>
<path d="M11.6994 8.85124C11.0478 7.99456 9.8529 7.77157 8.93606 8.3354C8.5687 8.5614 8.29595 8.8846 8.12888 9.2521L28.1278 35.5415V40.9027H32.0033V35.5415L11.6994 8.85124Z" fill="#07359B"/>
<path d="M35.0167 46.5064H23.309V34.8814C23.309 32.0828 25.5777 29.8141 28.3764 29.8141H35.0167V46.5064Z" fill="#1D1D1D"/>
<path d="M39.3687 46.5065V20.8717C39.3687 19.8181 40.2228 18.9641 41.2764 18.9641H58.2503C58.9764 18.9641 59.6396 19.3763 59.9609 20.0274L66.8536 33.9922C67.0723 34.4353 67.1861 34.9228 67.1861 35.4171V46.5066H39.3687V46.5065Z" fill="#07359B"/>
<path d="M1.8457 52.5873H68.1543C68.6074 52.5873 68.9746 52.2201 68.9746 51.767V47.3268C68.9746 46.8737 68.6074 46.5065 68.1543 46.5065H1.8457C1.39262 46.5065 1.02539 46.8737 1.02539 47.3268V51.767C1.02539 52.2201 1.39262 52.5873 1.8457 52.5873Z" fill="#9C9C9C"/>
<path d="M39.3687 46.5064H35.0168V28.1511C35.0168 27.6244 35.4439 27.1973 35.9707 27.1973H39.3688V46.5064H39.3687Z" fill="#1D1D1D"/>
<path d="M53.2774 62.0322C57.5647 62.0322 61.0403 58.5567 61.0403 54.2693C61.0403 49.982 57.5647 46.5065 53.2774 46.5065C48.9901 46.5065 45.5145 49.982 45.5145 54.2693C45.5145 58.5567 48.9901 62.0322 53.2774 62.0322Z" fill="#5A5A5A"/>
<path d="M56.4815 54.7859C56.7697 53.0083 55.5623 51.3337 53.7847 51.0455C52.0071 50.7574 50.3324 51.9648 50.0443 53.7424C49.7561 55.52 50.9635 57.1946 52.7411 57.4828C54.5187 57.7709 56.1934 56.5635 56.4815 54.7859Z" fill="#BFBFBF"/>
<path d="M15.7015 62.0322C19.9888 62.0322 23.4643 58.5567 23.4643 54.2693C23.4643 49.982 19.9888 46.5065 15.7015 46.5065C11.4141 46.5065 7.93857 49.982 7.93857 54.2693C7.93857 58.5567 11.4141 62.0322 15.7015 62.0322Z" fill="#5A5A5A"/>
<path d="M18.9125 54.7826C19.2007 53.005 17.9933 51.3304 16.2157 51.0422C14.4381 50.7541 12.7634 51.9615 12.4753 53.7391C12.1871 55.5167 13.3945 57.1913 15.1721 57.4795C16.9497 57.7677 18.6244 56.5602 18.9125 54.7826Z" fill="#BFBFBF"/>
<path d="M66.8537 33.9922L59.961 20.0274C59.6396 19.3763 58.9765 18.9641 58.2504 18.9641H53.5998C54.3259 18.9641 54.9891 19.3763 55.3104 20.0274L62.2031 33.9922C62.4218 34.4353 62.5356 34.9228 62.5356 35.4171V46.5064H67.1862V35.4171C67.1862 34.9228 67.0723 34.4353 66.8537 33.9922Z" fill="#07359B"/>
<path d="M68.1543 46.5065H63.5037C63.9567 46.5065 64.324 46.8738 64.324 47.3268V51.767C64.324 52.2201 63.9567 52.5873 63.5037 52.5873H68.1543C68.6074 52.5873 68.9746 52.2201 68.9746 51.767V47.3268C68.9746 46.8738 68.6074 46.5065 68.1543 46.5065Z" fill="#1D1D1D"/>
<path d="M61.4709 32.492L57.116 23.6688C56.9554 23.3433 56.6237 23.1371 56.2607 23.1371H44.5071C43.9804 23.1371 43.5533 23.5642 43.5533 24.091V32.9141C43.5533 33.4409 43.9804 33.868 44.5071 33.868H60.6156C61.3226 33.868 61.7839 33.1259 61.4709 32.492Z" fill="#A8C3FF"/>
<path d="M67.1862 41.295H62.6674C62.1388 41.295 61.7103 40.8665 61.7103 40.338V38.8341C61.7103 38.3055 62.1388 37.877 62.6674 37.877H67.1862V41.295Z" fill="#FEC165"/>
<path d="M62.5356 37.8871V41.2849C62.5788 41.2908 62.6225 41.295 62.6674 41.295H67.1862V37.877H62.6674C62.6225 37.877 62.5788 37.8811 62.5356 37.8871Z" fill="#FDB441"/>
<path d="M31.1412 29.8142H35.0167V46.5066H31.1412V29.8142Z" fill="#5A5A5A"/>
<path d="M29.5091 38.0355C30.8866 38.0355 32.0033 36.9188 32.0033 35.5413C32.0033 34.1638 30.8866 33.0472 29.5091 33.0472C28.1316 33.0472 27.015 34.1638 27.015 35.5413C27.015 36.9188 28.1316 38.0355 29.5091 38.0355Z" fill="#07359B"/>
<path d="M53.2774 46.5065C52.6083 46.5065 51.959 46.5912 51.3397 46.7504C54.6893 47.611 57.1647 50.6511 57.1647 54.2693C57.1647 57.8876 54.6893 60.9277 51.3397 61.7883C51.9591 61.9475 52.6083 62.0322 53.2774 62.0322C57.5647 62.0322 61.0403 58.5567 61.0403 54.2693C61.0403 49.982 57.5647 46.5065 53.2774 46.5065Z" fill="#1D1D1D"/>
<path d="M15.7014 46.5065C15.0323 46.5065 14.3831 46.5912 13.7637 46.7504C17.1133 47.611 19.5888 50.6511 19.5888 54.2693C19.5888 57.8876 17.1133 60.9277 13.7637 61.7883C14.3832 61.9475 15.0323 62.0322 15.7014 62.0322C19.9887 62.0322 23.4642 58.5567 23.4642 54.2693C23.4642 49.982 19.9887 46.5065 15.7014 46.5065Z" fill="#1D1D1D"/>
<path d="M61.4709 32.492L57.116 23.6688C56.9554 23.3433 56.6237 23.1371 56.2607 23.1371H52.3852C52.7483 23.1371 53.0798 23.3432 53.2405 23.6688L57.5954 32.492C57.9083 33.1259 57.447 33.868 56.7401 33.868H60.6155C61.3226 33.868 61.7839 33.1259 61.4709 32.492Z" fill="#77A1FF"/>
<path d="M29.5091 32.0218C27.5684 32.0218 25.9896 33.6007 25.9896 35.5413C25.9896 37.4819 27.5684 39.0609 29.5091 39.0609C31.4497 39.0609 33.0287 37.4819 33.0287 35.5413C33.0287 33.6007 31.4497 32.0218 29.5091 32.0218ZM29.5091 37.0101C28.6992 37.0101 28.0403 36.3513 28.0403 35.5413C28.0403 34.7314 28.6992 34.0726 29.5091 34.0726C30.3189 34.0726 30.9779 34.7314 30.9779 35.5413C30.9779 36.3513 30.3189 37.0101 29.5091 37.0101Z" fill="#1D1D1D"/>
<path d="M53.2775 49.9829C50.9139 49.9829 48.991 51.9057 48.991 54.2693C48.991 56.6329 50.9138 58.5557 53.2775 58.5557C55.641 58.5557 57.5639 56.6329 57.5639 54.2693C57.5639 51.9057 55.641 49.9829 53.2775 49.9829ZM53.2775 56.5048C52.0447 56.5048 51.0417 55.502 51.0417 54.2692C51.0417 53.0364 52.0447 52.0336 53.2775 52.0336C54.5103 52.0336 55.5131 53.0364 55.5131 54.2692C55.5131 55.502 54.5102 56.5048 53.2775 56.5048Z" fill="#1D1D1D"/>
<path d="M15.7015 49.9829C13.3379 49.9829 11.4151 51.9057 11.4151 54.2693C11.4151 56.6329 13.3379 58.5557 15.7015 58.5557C18.0651 58.5557 19.9879 56.6329 19.9879 54.2693C19.9879 51.9057 18.0649 49.9829 15.7015 49.9829ZM15.7015 56.5048C14.4687 56.5048 13.4659 55.502 13.4659 54.2692C13.4659 53.0364 14.4687 52.0336 15.7015 52.0336C16.9343 52.0336 17.9371 53.0364 17.9371 54.2692C17.9371 55.502 16.9341 56.5048 15.7015 56.5048Z" fill="#1D1D1D"/>
<path d="M68.2116 45.4841C68.2116 43.3893 68.2116 37.4248 68.2116 35.417C68.2116 34.7689 68.06 34.1192 67.7731 33.5384L64.021 25.9363C63.7704 25.4285 63.156 25.22 62.6477 25.4706C62.1398 25.7212 61.9314 26.3362 62.182 26.844L65.9343 34.4462C66.0825 34.7463 66.1608 35.082 66.1608 35.417V36.8516H62.6672C61.5742 36.8516 60.6848 37.741 60.6848 38.8341V40.338C60.6848 41.431 61.5742 42.3204 62.6672 42.3204H66.1608V45.481H40.394C40.394 45.0944 40.394 21.5916 40.394 20.8717C40.394 20.3851 40.7899 19.9894 41.2763 19.9894H58.2504C58.5886 19.9894 58.8917 20.1778 59.0414 20.4812L60.064 22.5529C60.3146 23.0607 60.9297 23.2692 61.4373 23.0186C61.9452 22.7678 62.1536 22.153 61.903 21.6452L60.8804 19.5734C60.3825 18.5651 59.3748 17.9387 58.2504 17.9387H41.2763C39.659 17.9387 38.3432 19.2544 38.3432 20.8717V26.1719H35.9706C34.8793 26.1719 33.9913 27.0597 33.9913 28.1511V28.7888C27.8119 28.7888 28.3832 28.7865 28.1589 28.7943L23.3792 22.5112C23.0363 22.0604 22.3929 21.9731 21.9423 22.316C21.4916 22.6589 21.4041 23.3021 21.747 23.7529L25.9592 29.29C23.7684 30.2406 22.2837 32.421 22.2837 34.8815V36.6166L9.0799 10.6026C8.83272 10.116 8.98816 9.50693 9.47311 9.20889C9.92879 8.92861 10.5413 9.02254 10.8832 9.47221L18.8498 19.9446C19.1927 20.3954 19.8361 20.4827 20.2867 20.1398C20.7374 19.7969 20.8249 19.1537 20.482 18.7029L12.5154 8.23053C11.5656 6.98188 9.78879 6.60699 8.39877 7.46203C6.97156 8.33977 6.53652 10.1233 7.25115 11.5311L9.1283 15.2296V27.1722C9.1283 28.0695 9.85824 28.7995 10.7557 28.7995H12.0598C12.4348 28.7995 12.7399 29.1045 12.7399 29.4796V29.8139C12.7399 30.3734 12.2847 30.8284 11.7254 30.8284H10.1538C9.58754 30.8284 9.12844 31.2873 9.12844 31.8537C9.12844 32.4202 9.58754 32.8791 10.1538 32.8791H11.7255C13.4157 32.8791 14.7908 31.504 14.7908 29.8139V29.4796C14.7908 27.9738 13.5658 26.7487 12.06 26.7487H11.1792C11.1792 25.8575 11.1792 20.1926 11.1792 19.2699L22.2837 41.1479V45.4812C21.5734 45.4812 2.86166 45.4812 1.8457 45.4812C0.827969 45.4812 0 46.3092 0 47.3269V51.7671C0 52.7848 0.827969 53.6128 1.8457 53.6128H6.94039C6.92426 53.8299 6.91332 54.0484 6.91332 54.2695C6.91332 59.1153 10.8556 63.0577 15.7015 63.0577C20.5473 63.0577 24.4896 59.1153 24.4896 54.2695C24.4896 54.0484 24.4787 53.8299 24.4625 53.6128H44.5163C44.1338 58.7633 48.2254 63.0577 53.2775 63.0577C58.1232 63.0577 62.0657 59.1153 62.0657 54.2695C62.0657 54.0484 62.0547 53.8299 62.0386 53.6128H68.1543C69.172 53.6128 70 52.7848 70 51.7671V47.3269C70 46.3283 69.2027 45.5147 68.2116 45.4841ZM62.7356 40.2696V38.9024H66.1608V40.2696H62.7356ZM36.0421 29.8142V28.2226H38.3432V45.481H36.0421V29.8142ZM24.3344 40.9034C24.3344 40.9032 24.3344 40.9029 24.3344 40.9026C24.3344 33.9256 24.334 34.9886 24.3351 34.8495C24.3522 32.6653 26.1358 30.8396 28.3763 30.8396H33.9912V45.4812H24.3343V40.9034H24.3344ZM7.34111 51.5619H2.05078V47.5318H10.06C8.80031 48.5885 7.84697 50.0038 7.34111 51.5619ZM15.7015 61.0068C11.9864 61.0068 8.9641 57.9844 8.9641 54.2693C8.9641 50.4746 12.0943 47.532 15.7015 47.532C19.3341 47.532 22.4388 50.4996 22.4388 54.2693C22.4388 57.9843 19.4165 61.0068 15.7015 61.0068ZM44.9172 51.5619H24.0617C23.5748 50.0621 22.6476 48.6264 21.3429 47.5318H47.636C46.3683 48.5954 45.4193 50.0141 44.9172 51.5619ZM53.2775 61.0068C49.5625 61.0068 46.54 57.9844 46.54 54.2693C46.54 50.4826 49.6625 47.532 53.2775 47.532H53.2785C56.9067 47.532 60.015 50.4971 60.015 54.2693C60.0149 57.9843 56.9924 61.0068 53.2775 61.0068ZM67.9492 51.5619H61.6376C61.1378 50.0216 60.1923 48.6003 58.9188 47.5318H67.9492V51.5619Z" fill="#1D1D1D"/>
<path d="M56.2607 22.1119H44.5071C43.4158 22.1119 42.5279 22.9997 42.5279 24.0911V32.9143C42.5279 34.0056 43.4157 34.8936 44.5071 34.8936H60.6155C61.3044 34.8936 61.9328 34.5442 62.2964 33.9592C62.6601 33.3742 62.6952 32.6562 62.3905 32.0383L58.0355 23.2153C57.6997 22.5345 57.0196 22.1119 56.2607 22.1119ZM44.5788 32.8426V24.1626H56.2163L60.5006 32.8426H44.5788Z" fill="#1D1D1D"/>
</svg>
